<?xml version="1.0" encoding="UTF-8"?>
<svg id="Layer_2" xmlns="http://www.w3.org/2000/svg" version="1.1" viewBox="0 0 309.8 384.4">
  <!-- Generator: Adobe Illustrator 29.3.1, SVG Export Plug-In . SVG Version: 2.1.0 Build 151)  -->
  <path d="M154.7,12.7c34.8,0,62.6,12.2,82.7,36.3,21.6,26,33.5,64.3,33.5,107.8s-11.9,81.9-33.5,107.8c-20.1,24.1-47.9,36.3-82.7,36.3s-62.6-12.2-82.7-36.3c-21.6-26-33.5-64.3-33.5-107.8s11.9-81.9,33.5-107.8c20.1-24.1,47.9-36.3,82.7-36.3M154.7,0C115.9,0,84.8,13.8,62.2,40.9c-23.5,28.2-36.4,69.4-36.4,115.9s12.9,87.7,36.4,115.9c22.6,27.1,53.7,40.9,92.5,40.9s69.8-13.8,92.5-40.9c23.5-28.2,36.4-69.4,36.4-115.9s-12.9-87.7-36.4-115.9C224.5,13.8,193.4,0,154.7,0h0ZM230.8,98.2l-4.5,9.1v116l4.5,9.7v9.5h-36l-17.4-17.5v-53.3c-14.2-2.1-29-2.9-42.7,1.4-.6.2-2.3.6-2.7.9,0,0-.1,0-.2,0v68.3h-36c-.2-.5-.7-.9-1.1-1.3-5-4.9-10-9.8-14.9-14.9-.2-.2-1.5-1.3-1.5-1.4v-9l4.4-9.6v-115.4c-1.2-3.3-2.9-6.4-4.4-9.6v-10h36c4.4,4.6,9.1,9.1,13.6,13.6,1,1,2.2,2.5,3.3,3.5,0,0,.5.2.5.3v38.4c15.2-2.4,31-.7,45.6,4.2v-60h36c5.4,5.5,10.9,11,16.4,16.5.3.3.6.7,1,.9v9.6h.1ZM183.5,139.7c-4.8-1.5-9.4-3.4-14.3-4.7-16.2-4.3-33.2-4-49.2.7-3.9,1.2-7.7,2.7-11.6,3.9v-62.3l-.2-.2h-23.6v2.2c0,.3,0,.7.2,1,1.4,3,3,5.9,4.2,8.9v117.9c-1.2,3.3-2.8,6.4-4.3,9.6,0,.2-.1.4-.1.6h0c0,.9.7,1.6,1.6,1.6h22l.2-.2v-66.6c3.7-1.2,7.4-2.5,11.1-3.5,21.1-5.6,43.7-4.3,63.9,3.7v66.6h23.9v-2c-1.5-3.3-3.3-6.5-4.6-9.9v-118.6l4.6-9.1v-2.1h-23.9v62.5h0Z"/>
  <path d="M154.7,12.7c34.8,0,62.6,12.2,82.7,36.3,21.6,26,33.5,64.3,33.5,107.8s-11.9,81.9-33.5,107.8c-20.1,24.1-47.9,36.3-82.7,36.3s-62.6-12.2-82.7-36.3c-21.6-26-33.5-64.3-33.5-107.8s11.9-81.9,33.5-107.8c20.1-24.1,47.9-36.3,82.7-36.3M154.7,0C115.9,0,84.8,13.8,62.2,40.9c-23.5,28.2-36.4,69.4-36.4,115.9s12.9,87.7,36.4,115.9c22.6,27.1,53.7,40.9,92.5,40.9s69.8-13.8,92.5-40.9c23.5-28.2,36.4-69.4,36.4-115.9s-12.9-87.7-36.4-115.9C224.5,13.8,193.4,0,154.7,0h0ZM230.8,98.2l-4.5,9.1v116l4.5,9.7v9.5h-36l-17.4-17.5v-53.3c-14.2-2.1-29-2.9-42.7,1.4-.6.2-2.3.6-2.7.9,0,0-.1,0-.2,0v68.3h-36c-.2-.5-.7-.9-1.1-1.3-5-4.9-10-9.8-14.9-14.9-.2-.2-1.5-1.3-1.5-1.4v-9l4.4-9.6v-115.4c-1.2-3.3-2.9-6.4-4.4-9.6v-10h36c4.4,4.6,9.1,9.1,13.6,13.6,1,1,2.2,2.5,3.3,3.5,0,0,.5.2.5.3v38.4c15.2-2.4,31-.7,45.6,4.2v-60h36c5.4,5.5,10.9,11,16.4,16.5.3.3.6.7,1,.9v9.6h.1ZM183.5,139.7c-4.8-1.5-9.4-3.4-14.3-4.7-16.2-4.3-33.2-4-49.2.7-3.9,1.2-7.7,2.7-11.6,3.9v-62.3l-.2-.2h-23.6v2.2c0,.3,0,.7.2,1,1.4,3,3,5.9,4.2,8.9v117.9c-1.2,3.3-2.8,6.4-4.3,9.6,0,.2-.1.4-.1.6h0c0,.9.7,1.6,1.6,1.6h22l.2-.2v-66.6c3.7-1.2,7.4-2.5,11.1-3.5,21.1-5.6,43.7-4.3,63.9,3.7v66.6h23.9v-2c-1.5-3.3-3.3-6.5-4.6-9.9v-118.6l4.6-9.1v-2.1h-23.9v62.5h0Z"/>
  <path d="M0,343.8h8.2v16.8h17.9v-16.8h8.2v40.1h-8.2v-16.7H8.2v16.7H0v-40.1ZM58.7,343.8h6.4c.3,0,.6.2.7.5l14.8,38.5c.2.5-.2,1.1-.7,1.1h-6.7c-.3,0-.6-.2-.7-.5l-3.1-7.9c-.1-.3-.4-.5-.7-.5h-13.8c-.3,0-.6.2-.7.5l-3.1,7.9c-.1.3-.4.5-.7.5h-6.7c-.6,0-.9-.5-.7-1.1l14.8-38.5c.1-.3.4-.5.7-.5h.2ZM66.4,368.6c.5,0,.9-.5.7-1l-5.2-14.2h-.1l-5.1,14.2c-.2.5.2,1,.7,1h9ZM124.3,370.9v12.2c0,.4-.4.8-.8.8h-6.6c-.4,0-.8-.3-.8-.8v-10.4c0-.2,0-.4-.2-.5l-3.2-3.4c-.2-.2-.4-.2-.6-.2h-12c-.4,0-.8.3-.8.8v13.8c0,.4-.4.8-.8.8h-6.6c-.4,0-.8-.3-.8-.8v-38.5c0-.4.4-.8.8-.8h25.4c.2,0,.4,0,.5.2l6,5.7c.2,0,.2.3.2.6v11.5c0,.2,0,.4-.2.6l-3.3,3.2c-.3.3-.3.8,0,1.1l3.6,3.7c.1,0,.2.3.2.5h0ZM100.1,362.1h13.4c.2,0,.4,0,.5-.2l1.6-1.6c.2,0,.2-.3.2-.6v-7.1c0-.2,0-.4-.2-.6l-1.6-1.6c-.2-.1-.3-.2-.5-.2h-13.4c-.4,0-.8.3-.8.8v10.2c0,.4.4.8.8.8h0ZM168.8,343.8h-6.2c-.2,0-.4,0-.5.3l-10.9,28.3c0,.2-.4.2-.5,0l-10.6-28.3c0-.2-.3-.3-.5-.3h-6.2c-.4,0-.6.3-.5.7l14.6,38.9c.1.3.4.5.7.5h5.8c.1,0,.2,0,.3-.2l15-39.2c.1-.3-.1-.7-.5-.7h0ZM180.5,343.8h29c.4,0,.8.3.8.8v5c0,.4-.4.8-.8.8h-20.8c-.4,0-.8.3-.8.8v8.6c0,.4.4.8.8.8h19c.4,0,.8.3.8.8v4.9c0,.4-.4.8-.8.8h-19c-.4,0-.8.3-.8.8v8.7c0,.4.4.8.8.8h20.8c.4,0,.8.3.8.8v5c0,.4-.4.8-.8.8h-29c-.4,0-.8-.3-.8-.8v-38.5c0-.4.4-.8.8-.8h0ZM233.5,367.3l-14.1-22.3c-.3-.5,0-1.2.7-1.2h7.1c.3,0,.5,0,.7.4l9.8,16.1h.1l9.8-16.1c0-.2.4-.4.7-.4h7.1c.6,0,1,.7.7,1.2l-14.1,22.3c0,0-.1.3-.1.4v15.4c0,.4-.4.8-.8.8h-6.6c-.4,0-.8-.3-.8-.8v-15.4c0,0,0-.3-.1-.4h-.1ZM262.6,350.3v-5.7c0-.4.4-.8.8-.8h6.6c.4,0,.8.3.8.8v5.7h0l-.9,7.7c0,.4-.4.7-.8.7h-4.9c-.4,0-.7-.3-.8-.7l-.9-7.6h.1ZM277.5,377.4v-4.6c0-.4.4-.8.8-.8h6.5c.4,0,.8.3.8.8v2.3c0,.2,0,.4.2.6l1.5,1.4c.1,0,.3.2.5.2h11.9c.2,0,.4,0,.5-.2l1.6-1.5c.2,0,.2-.3.2-.6v-6c0-.2,0-.4-.2-.6l-1.5-1.4c-.2,0-.3-.2-.5-.2h-15.4c-.2,0-.4,0-.5-.2l-6-5.7c-.2,0-.2-.3-.2-.6v-9.9c0-.2,0-.4.2-.6l6-5.7c.2,0,.3-.2.5-.2h18.4c.2,0,.4,0,.5.2l6,5.7c.2,0,.2.3.2.6v4.7c0,.4-.4.8-.8.8h-6.5c-.4,0-.8-.3-.8-.8v-2.3c0-.2,0-.4-.2-.6l-1.5-1.4c-.2-.1-.3-.2-.5-.2h-11.3c-.2,0-.4,0-.5.2l-1.5,1.4c-.2.1-.2.3-.2.6v5.2c0,.2,0,.4.2.6l1.5,1.4c.2,0,.3.2.5.2h15.4c.2,0,.4,0,.5.2l6,5.7c.2,0,.2.3.2.6v10.6c0,.2,0,.4-.2.6l-6.2,5.9c-.2,0-.3.2-.5.2h-18.9c-.2,0-.4,0-.5-.2l-6-5.7c-.2,0-.2-.3-.2-.6h0Z"/>
</svg>