<?xml version="1.0" encoding="UTF-8"?>
<svg id="Layer_2" xmlns="http://www.w3.org/2000/svg" version="1.1" viewBox="0 0 256 256">
  <!-- Generator: Adobe Illustrator 29.3.1, SVG Export Plug-In . SVG Version: 2.1.0 Build 151)  -->
  <defs>
    <style>
      .st0 {
        fill: #2a3c1a;
      }
    </style>
  </defs>
  <g id="Layer_1-2">
    <path class="st0" d="M127.7,29c23.8,0,42.9,8.3,56.7,24.8,14.9,17.8,23.1,44.1,23.1,74,0,29.9-8,56.2-22.8,74.1-13.7,16.6-32.8,25-56.6,25.1-23.8,0-42.9-8.3-56.7-24.8-14.9-17.8-23.1-44.1-23.1-74,0-29.9,8-56.2,22.8-74.1,13.7-16.6,32.8-25,56.6-25.1M127.7,20.3c-26.6,0-47.8,9.6-63.3,28.2-16,19.4-24.8,47.7-24.8,79.7,0,31.9,9,60.2,25.2,79.5,15.5,18.6,36.9,28,63.4,27.9,26.6,0,47.8-9.6,63.3-28.2,16.1-19.4,24.8-47.7,24.8-79.7,0-31.9-9-60.2-25.2-79.5-15.5-18.6-36.9-28-63.4-27.9h0ZM180.1,87.6l-3.1,6.2v79.7c.1,0,3.3,6.7,3.3,6.7v6.5s-24.6,0-24.6,0l-12-12v-36.6c-9.8-1.4-20-2-29.4,1-.4.1-1.6.4-1.8.6,0,0,0,0-.1.1v46.9s-24.5,0-24.5,0c-.1-.3-.5-.6-.7-.9-3.5-3.3-6.9-6.7-10.2-10.2-.1-.1-1-.9-1-1v-6.2l3-6.6-.2-79.2c-.9-2.2-2-4.4-3.1-6.6v-6.9s24.6,0,24.6,0c3,3.2,6.2,6.2,9.3,9.3.7.7,1.5,1.7,2.3,2.4,0,0,.4.2.4.2v26.4c10.5-1.7,21.3-.6,31.3,2.8v-41.2c-.1,0,24.6,0,24.6,0,3.7,3.8,7.5,7.5,11.3,11.3.2.2.4.5.7.6v6.6s0,0,0,0ZM147.7,116.2c-3.3-1-6.5-2.3-9.8-3.2-11.1-2.9-22.8-2.7-33.8.6-2.7.8-5.3,1.9-7.9,2.7v-42.8c-.1,0-.2-.1-.2-.1h-16.2v1.9c1,2.1,2.2,4.2,3,6.4l.2,80.9c-.8,2.3-2,4.5-3,6.8v1.3h16.2s.1-.1.1-.1v-45.7c2.4-.8,4.9-1.7,7.5-2.4,14.4-3.9,29.9-3.1,43.8,2.4v45.7c.1,0,16.5,0,16.5,0v-1.4c-1.1-2.2-2.3-4.5-3.2-6.8l-.2-81.4,3.1-6.3v-1.5h-16.4s.1,42.9.1,42.9h0Z"/>
  </g>
</svg>