<?xml version="1.0" encoding="UTF-8"?>
<svg id="Layer_2" xmlns="http://www.w3.org/2000/svg" version="1.1" viewBox="0 0 912.5 262.3">
  <!-- Generator: Adobe Illustrator 29.3.1, SVG Export Plug-In . SVG Version: 2.1.0 Build 151)  -->
  <defs>
    <style>
      .st0 {
        fill: #fafaf9;
      }
    </style>
  </defs>
  <g id="Layer_1-2">
    <path class="st0" d="M107.6,10.6c29.1,0,52.3,10.2,69,30.4,18,21.7,28,53.7,28,90.2s-9.9,68.5-28,90.2c-16.8,20.2-40,30.4-69,30.4s-52.3-10.2-69-30.4c-18-21.7-28-53.8-28-90.2s9.9-68.5,28-90.2c16.8-20.2,40-30.4,69-30.4M107.6,0C75.2,0,49.3,11.5,30.4,34.2,10.8,57.8,0,92.3,0,131.2s10.8,73.3,30.4,97c18.9,22.7,44.8,34.2,77.2,34.2s58.3-11.5,77.2-34.2c19.6-23.6,30.4-58,30.4-97s-10.8-73.3-30.4-97C165.9,11.5,139.9,0,107.6,0h0ZM171.2,82.1l-3.8,7.6v97c0,0,3.8,8.1,3.8,8.1v7.9h-30l-14.5-14.6v-44.6c-11.9-1.7-24.2-2.5-35.7,1.1-.5.1-1.9.5-2.2.7,0,0-.1,0-.1.1v57.2h-30.1c-.2-.4-.6-.8-.9-1.1-4.2-4.1-8.4-8.2-12.4-12.4-.2-.2-1.2-1.1-1.2-1.2v-7.6s3.7-8.1,3.7-8.1v-96.5c-1-2.7-2.4-5.3-3.7-8v-8.4h30c3.7,3.9,7.6,7.6,11.3,11.4.9.9,1.9,2.1,2.8,2.9,0,0,.4.2.4.2v32.1c12.7-2,25.9-.6,38,3.5v-50.2h30c4.5,4.6,9.1,9.2,13.7,13.8.2.2.5.6.8.7v8h0ZM131.6,116.8c-4-1.3-7.9-2.8-11.9-3.9-13.5-3.6-27.8-3.4-41.1.6-3.3,1-6.4,2.2-9.7,3.3v-52.1h-.1c0-.1-19.7-.1-19.7-.1v2.3c1.2,2.6,2.6,5.2,3.7,7.8v98.6c-1,2.8-2.5,5.5-3.7,8.3v1.6h19.8v-55.8c3.1-1,6.2-2.1,9.3-2.9,17.6-4.7,36.5-3.6,53.4,3.1v55.7h19.9v-1.7c-1.3-2.7-2.7-5.4-3.8-8.3v-99.2c0,0,3.8-7.6,3.8-7.6v-1.8h-19.9v52.2h0ZM302.4,97h16.1v30.6h35v-30.6h16.1v73.2h-16.1v-30.4h-35v30.4h-16.1s0-73.2,0-73.2ZM417.5,97h12.6c.6,0,1.2.4,1.4.9l29.1,70.3c.4.9-.4,1.9-1.4,1.9h-13c-.6,0-1.2-.4-1.4-.9l-6-14.4c-.2-.6-.8-.9-1.4-.9h-27c-.6,0-1.2.4-1.4.9l-6,14.4c-.2.6-.8.9-1.4.9h-13c-1.1,0-1.8-1-1.4-1.9l29.1-70.3c.2-.6.8-.9,1.4-.9h0ZM432.6,142.3c1.1,0,1.8-1,1.4-1.9l-10.2-25.9h-.2l-9.9,25.9c-.4.9.4,1.9,1.4,1.9h17.5ZM546.1,146.6v22.3c0,.8-.7,1.4-1.5,1.4h-13c-.8,0-1.5-.6-1.5-1.4v-19c0-.4-.2-.7-.4-1l-6.2-6.1c-.3-.3-.7-.4-1.1-.4h-23.6c-.9,0-1.5.6-1.5,1.4v25.2c0,.8-.7,1.4-1.5,1.4h-13c-.9,0-1.5-.6-1.5-1.4v-70.3c0-.8.7-1.4,1.5-1.4h49.8c.4,0,.8.1,1.1.4l11.8,10.5c.3.3.5.6.5,1v21c0,.4-.2.8-.5,1l-6.5,5.8c-.6.6-.6,1.4,0,2l7,6.8c.3.3.4.6.4,1h0ZM498.6,130.5h26.4c.4,0,.8-.1,1.1-.4l3.2-2.8c.3-.3.5-.6.5-1v-13c0-.4-.2-.8-.5-1l-3.2-2.8c-.3-.2-.7-.4-1.1-.4h-26.4c-.9,0-1.5.6-1.5,1.4v18.7c0,.8.7,1.4,1.5,1.4h0ZM633.4,97h-12.1c-.4,0-.8.2-.9.6l-21.4,51.8c-.2.4-.9.4-1,0l-20.9-51.8c-.1-.3-.5-.6-.9-.6h-12.1c-.7,0-1.2.6-.9,1.2l28.6,71.1c.2.6.8.9,1.4.9h11.3c.2,0,.4-.1.5-.3l29.4-71.7c.2-.6-.2-1.2-.9-1.2h0ZM656.3,97h56.8c.8,0,1.5.6,1.5,1.4v9.2c0,.8-.7,1.4-1.5,1.4h-40.7c-.8,0-1.5.6-1.5,1.4v15.7c0,.8.7,1.4,1.5,1.4h37.3c.8,0,1.5.6,1.5,1.4v9c0,.8-.7,1.4-1.5,1.4h-37.3c-.8,0-1.5.6-1.5,1.4v16c0,.8.7,1.4,1.5,1.4h40.7c.8,0,1.5.6,1.5,1.4v9.2c0,.8-.7,1.4-1.5,1.4h-56.8c-.8,0-1.5-.6-1.5-1.4v-70.3c0-.8.7-1.4,1.5-1.4h0ZM760.1,140l-27.8-40.8c-.7-.9,0-2.2,1.3-2.2h14c.5,0,1,.3,1.3.7l19.3,29.3h.2l19.3-29.3c.3-.4.8-.7,1.3-.7h14c1.2,0,1.9,1.2,1.3,2.2l-27.8,40.8c-.2.2-.2.5-.2.8v28.1c0,.8-.7,1.4-1.5,1.4h-13c-.8,0-1.5-.6-1.5-1.4v-28.1c0-.3,0-.5-.2-.8h0ZM816.2,108.9v-10.4c0-.8.7-1.4,1.5-1.4h13c.8,0,1.5.6,1.5,1.4v10.4c0,0,0,.1,0,.2l-1.7,13.9c0,.7-.7,1.3-1.5,1.3h-9.6c-.8,0-1.4-.5-1.5-1.3l-1.7-13.9c0,0,0-.1,0-.2h0ZM848.3,158.3v-8.4c0-.8.7-1.4,1.5-1.4h12.8c.8,0,1.5.6,1.5,1.4v4.1c0,.4.2.8.5,1l3,2.6c.3.2.7.4,1.1.4h23.3c.4,0,.8-.1,1.1-.4l3.1-2.7c.3-.3.5-.6.5-1v-10.9c0-.4-.2-.8-.5-1l-3-2.6c-.3-.2-.7-.4-1.1-.4h-30.2c-.4,0-.8-.1-1.1-.4l-11.9-10.5c-.3-.3-.5-.6-.5-1v-18.1c0-.4.2-.8.5-1l11.9-10.5c.3-.2.7-.4,1.1-.4h36.2c.4,0,.8.1,1.1.4l11.9,10.5c.3.3.5.6.5,1v8.5c0,.8-.7,1.4-1.5,1.4h-12.8c-.8,0-1.5-.6-1.5-1.4v-4.2c0-.4-.2-.8-.5-1l-3-2.6c-.3-.2-.7-.4-1.1-.4h-22.2c-.4,0-.8.1-1.1.4l-3,2.6c-.3.3-.5.6-.5,1v9.6c0,.4.2.8.5,1l3,2.6c.3.2.7.4,1.1.4h30.2c.4,0,.8.1,1.1.4l11.9,10.5c.3.3.5.6.5,1v19.4c0,.4-.2.8-.5,1l-12.1,10.7c-.3.2-.7.4-1.1.4h-37.1c-.4,0-.8-.1-1.1-.4l-11.9-10.5c-.3-.3-.5-.6-.5-1h0Z"/>
  </g>
</svg>