<?xml version="1.0" encoding="UTF-8"?>
<svg id="Layer_2" data-name="Layer 2" xmlns="http://www.w3.org/2000/svg" viewBox="0 0 470.02 123.81">
  <defs>
    <style>
      .cls-1 {
        fill: #d8c7a2;
        stroke: #d8c7a2;
        stroke-miterlimit: 10;
      }
    </style>
  </defs>
  <g id="Layer_1-2" data-name="Layer 1">
    <path class="cls-1" d="M398.57,77.38h6.02v-30.96h-6.02v30.96ZM137.38,46.42l-5.09,5.09v20.79l5.09,5.09h15.13l5-5v-4.73h-6.02v2.52l-2.08,2.08h-8.85l-2.26-2.26v-16.19l2.26-2.26h8.85l2.08,2.08v2.52h6.02v-4.73l-5-5h-15.13ZM316.61,46.42v30.96h19.82l5.31-5.31v-20.35l-5.31-5.31h-19.82ZM335.71,70l-2.26,2.26h-10.84v-20.7h10.84l2.26,2.26v16.19ZM170.77,46.42l-5.09,5.09v20.79l5.09,5.09h15.92l5.09-5.09v-20.79l-5.09-5.09h-15.92ZM185.77,70l-2.26,2.26h-9.55l-2.26-2.26v-16.19l2.26-2.26h9.55l2.26,2.26v16.19ZM464.74,59.03h-11.72l-1.46-1.46v-4.56l1.46-1.46h8.76l1.46,1.46v2.65h5.93v-4.47l-4.78-4.78h-13.98l-4.78,4.78v8.18l4.78,4.78h11.72l1.46,1.46v5.13l-1.5,1.5h-9.16l-1.46-1.46v-2.61h-5.93v4.42l4.78,4.78h14.33l4.87-4.87v-8.71l-4.78-4.78ZM414.98,77.38h22.38v-5.09h-16.37v-7.96h15.08v-5h-15.08v-7.83h16.37v-5.09h-22.38v30.96ZM285.86,46.42l-5.09,5.09v20.79l5.09,5.09h15.92l5.09-5.09v-20.79l-5.09-5.09h-15.92ZM300.86,70l-2.26,2.26h-9.55l-2.26-2.26v-16.19l2.26-2.26h9.55l2.26,2.26v16.19ZM216.38,66.41h-.09l-9.2-19.99h-5.57v30.96h5.79v-18.84h.09l7.08,14.51h3.72l7.12-14.51h.09v18.84h5.79v-30.96h-5.57l-9.25,19.99ZM351.68,77.38h6.02v-30.96h-6.02v30.96ZM365.88,51.51h9.25v25.88h6.02v-25.88h9.25v-5.09h-24.51v5.09ZM256.23,66.41h-.09l-9.2-19.99h-5.57v30.96h5.79v-18.84h.09l7.08,14.51h3.72l7.12-14.51h.09v18.84h5.79v-30.96h-5.57l-9.25,19.99ZM50.85.5c-15.14,0-27.29,5.39-36.12,16.02C5.55,27.57.5,43.69.5,61.9s5.05,34.33,14.23,45.39c8.83,10.63,20.98,16.02,36.12,16.02s27.29-5.39,36.12-16.02c9.18-11.05,14.23-27.17,14.23-45.39s-5.05-34.33-14.23-45.39C78.15,5.89,65.99.5,50.85.5ZM83.16,104.12c-7.84,9.44-18.71,14.23-32.31,14.23s-24.47-4.79-32.31-14.23c-8.44-10.16-13.09-25.16-13.09-42.22s4.65-32.06,13.09-42.22c7.84-9.44,18.71-14.23,32.31-14.23s24.47,4.79,32.31,14.23c8.44,10.16,13.09,25.16,13.09,42.22s-4.65,32.06-13.09,42.22ZM80.24,34.84c-2.14-2.15-4.31-4.3-6.42-6.46h-14.06v23.48c-5.69-1.91-11.86-2.56-17.81-1.63v-15.04s-.18-.09-.2-.11c-.42-.39-.89-.95-1.29-1.36-1.76-1.78-3.6-3.53-5.31-5.34h-14.06v3.93c.59,1.24,1.26,2.47,1.75,3.75l-.02,45.19-1.72,3.78v3.54c0,.05.49.47.57.55,1.91,1.96,3.85,3.91,5.82,5.82.15.14.33.31.41.5h14.02l.05-26.76s.04-.04.06-.06c.16-.1.82-.27,1.04-.34,5.35-1.68,11.15-1.35,16.7-.53h0v20.86s6.81,6.84,6.81,6.84h14.06v-3.71l-1.79-3.81.03-45.42,1.76-3.56v-3.75c-.14-.07-.28-.23-.39-.34ZM71.46,31.58l-1.76,3.58-.03,46.44c.51,1.32,1.19,2.59,1.8,3.87v.79h-9.33v-26.07c-7.92-3.14-16.75-3.63-25-1.44-1.47.39-2.9.92-4.35,1.37v26.07l-.06.06h-8.61c-.34,0-.62-.28-.62-.62,0-.09.02-.17.05-.25.55-1.25,1.19-2.47,1.66-3.75v-46.15c-.46-1.19-1.08-2.33-1.63-3.49-.06-.12-.09-.25-.09-.38v-.88h9.23l.06.06v24.4c1.52-.48,3-1.07,4.52-1.53,6.26-1.87,12.93-1.98,19.25-.29,1.89.51,3.71,1.23,5.58,1.82,0,0,0,0,0,0v-24.46h9.33v.84Z"/>
  </g>
</svg>