<?xml version="1.0" encoding="UTF-8"?><svg id="a" xmlns="http://www.w3.org/2000/svg" viewBox="0 0 249.7 122.8"><g id="b"><path d="M132.2,76.9h6v-12.2h13.8v-5.1h-13.8v-8.6h15.9v-5.1h-21.9v31h0ZM162.1,76.9h22.4v-5.1h-16.4v-8h15.1v-5h-15.1v-7.8h16.4v-5.1h-22.4v31h0ZM244.4,45.9h-19.8v31h19.8l5.3-5.3v-20.3l-5.3-5.3h0ZM243.7,69.5l-2.3,2.3h-10.8v-20.7h10.8l2.3,2.3v16.2h0ZM193.4,76.9h22.4v-5.1h-16.4v-8h15.1v-5h-15.1v-7.8h16.4v-5.1h-22.4v31h0ZM79.7,34.3c-2.1-2.2-4.3-4.3-6.4-6.5h-14.1v23.5c-5.7-1.9-11.9-2.6-17.8-1.6v-15s-.2,0-.2-.1c-.4-.4-.9-1-1.3-1.4-1.8-1.8-3.6-3.5-5.3-5.3h-14.1v3.9c.6,1.2,1.3,2.5,1.8,3.8v45.2s-1.7,3.8-1.7,3.8v3.5c0,0,.5.5.6.6,1.9,2,3.9,3.9,5.8,5.8.1.1.3.3.4.5h14v-26.8s0,0,.1,0c.2,0,.8-.3,1-.3,5.3-1.7,11.2-1.3,16.7-.5h0v20.9l6.8,6.8h14.1v-3.7l-1.8-3.8v-45.4s1.8-3.6,1.8-3.6v-3.8c-.1,0-.3-.2-.4-.3h0ZM71,31.1l-1.8,3.6v46.4c.5,1.3,1.2,2.6,1.8,3.9v.8h-9.3v-26.1c-7.9-3.1-16.8-3.6-25-1.4-1.5.4-2.9.9-4.3,1.4v26.1h0c0,0-8.6,0-8.6,0-.3,0-.6-.3-.6-.6s0-.2,0-.2c.5-1.2,1.2-2.5,1.7-3.8v-46.2c-.5-1.2-1.1-2.3-1.6-3.5,0-.1,0-.2,0-.4v-.9h9.3v24.5c1.5-.5,3-1.1,4.5-1.5,6.3-1.9,12.9-2,19.2-.3,1.9.5,3.7,1.2,5.6,1.8h0v-24.5h9.3v.8h0ZM50.3,0c-15.1,0-27.3,5.4-36.1,16C5.1,27.1,0,43.2,0,61.4s5.1,34.3,14.2,45.4c8.8,10.6,21,16,36.1,16s27.3-5.4,36.1-16c9.2-11.1,14.2-27.2,14.2-45.4s-5.1-34.3-14.2-45.4C77.7,5.4,65.5,0,50.3,0ZM82.7,103.6c-7.8,9.4-18.7,14.2-32.3,14.2s-24.5-4.8-32.3-14.2c-8.4-10.2-13.1-25.2-13.1-42.2s4.6-32.1,13.1-42.2c7.8-9.4,18.7-14.2,32.3-14.2s24.5,4.8,32.3,14.2c8.4,10.2,13.1,25.2,13.1,42.2s-4.7,32.1-13.1,42.2Z" style="fill:#1b1b1b;"/></g></svg>