<?xml version="1.0" encoding="UTF-8"?>
<svg id="Layer_2" data-name="Layer 2" xmlns="http://www.w3.org/2000/svg" viewBox="0 0 912.45 262.34">
  <defs>
    <style>
      .cls-1 {
        fill: #1b1b1b;
      }
    </style>
  </defs>
  <g id="Layer_1-2" data-name="Layer 1">
    <path class="cls-1" d="M107.56,10.59c29.05,0,52.27,10.23,69.02,30.39,18.03,21.71,27.96,53.74,27.96,90.19s-9.93,68.48-27.96,90.19c-16.75,20.17-39.97,30.39-69.02,30.39s-52.27-10.23-69.02-30.39c-18.03-21.71-27.96-53.75-27.96-90.19s9.93-68.48,27.96-90.19c16.75-20.17,39.97-30.39,69.02-30.39M107.56,0C75.22,0,49.26,11.51,30.4,34.22,10.8,57.83,0,92.26,0,131.17s10.8,73.35,30.4,96.96c18.85,22.7,44.81,34.22,77.16,34.22s58.31-11.51,77.16-34.22c19.61-23.61,30.4-58.04,30.4-96.96s-10.8-73.35-30.4-96.96C165.87,11.51,139.91,0,107.56,0h0ZM171.18,82.1l-3.76,7.6-.07,97.03,3.83,8.14v7.92h-30.04s-14.54-14.61-14.54-14.61v-44.55c-11.87-1.73-24.25-2.46-35.69,1.14-.48.15-1.89.53-2.23.73-.06.03-.12.05-.13.13l-.1,57.16h-29.96c-.18-.4-.56-.76-.88-1.07-4.2-4.06-8.35-8.23-12.42-12.42-.17-.17-1.23-1.07-1.25-1.18l.03-7.56,3.68-8.07.04-96.53c-1.06-2.73-2.48-5.35-3.75-8.01v-8.4h30.04c3.65,3.88,7.58,7.61,11.35,11.41.87.88,1.87,2.06,2.76,2.9.05.05.44.21.44.23v32.13c12.73-1.99,25.9-.6,38.05,3.48v-50.16h30.04c4.49,4.63,9.13,9.22,13.71,13.81.24.24.53.58.83.73v8.01ZM131.64,116.85c-3.98-1.26-7.87-2.81-11.91-3.89-13.49-3.6-27.75-3.36-41.12.63-3.26.97-6.42,2.25-9.67,3.27v-52.12s-.13-.13-.13-.13h-19.72s0,2.31,0,2.31c1.22,2.61,2.62,5.15,3.66,7.83v98.58c-1.04,2.82-2.46,5.51-3.66,8.27v1.61s19.72,0,19.72,0l.13-.13v-55.69c3.1-.98,6.15-2.1,9.3-2.94,17.61-4.68,36.48-3.64,53.4,3.07v55.69s19.94,0,19.94,0v-1.7c-1.29-2.74-2.74-5.45-3.84-8.27l.07-99.21,3.76-7.64v-1.79s-19.94,0-19.94,0v52.25ZM302.37,97.04h16.1v30.64h35.04v-30.64h16.1v73.2h-16.1v-30.43h-35.04v30.43h-16.1v-73.2ZM417.53,97.04h12.57c.63,0,1.2.36,1.43.91l29.13,70.35c.39.93-.35,1.94-1.43,1.94h-13.05c-.63,0-1.2-.36-1.43-.91l-5.99-14.39c-.23-.55-.8-.91-1.43-.91h-27.02c-.63,0-1.2.36-1.43.91l-5.99,14.39c-.23.55-.8.91-1.43.91h-13.05c-1.08,0-1.82-1-1.43-1.94l29.13-70.35c.23-.55.8-.91,1.43-.91ZM432.63,142.33c1.07,0,1.81-.99,1.44-1.92l-10.25-25.9h-.24l-9.93,25.91c-.36.93.38,1.9,1.44,1.9h17.53ZM546.08,146.56v22.26c0,.79-.69,1.43-1.53,1.43h-13.03c-.85,0-1.53-.64-1.53-1.43v-19.03c0-.36-.15-.71-.42-.98l-6.23-6.15c-.29-.29-.69-.45-1.12-.45h-23.61c-.85,0-1.53.64-1.53,1.43v25.17c0,.79-.69,1.43-1.53,1.43h-13.03c-.85,0-1.53-.64-1.53-1.43v-70.35c0-.79.69-1.43,1.53-1.43h49.82c.4,0,.78.14,1.06.4l11.75,10.48c.3.27.47.64.47,1.03v20.96c0,.39-.17.76-.47,1.03l-6.48,5.81c-.61.55-.63,1.45-.04,2.01l7.04,6.82c.27.27.43.62.43.99ZM498.6,130.51h26.38c.39,0,.77-.14,1.06-.39l3.22-2.85c.3-.27.48-.64.48-1.03v-13c0-.39-.17-.76-.48-1.03l-3.22-2.85c-.28-.25-.66-.39-1.06-.39h-26.38c-.85,0-1.53.64-1.53,1.43v18.69c0,.79.69,1.43,1.53,1.43ZM633.38,97.04h-12.11c-.42,0-.79.25-.92.61l-21.44,51.77c-.19.45-.87.44-1.05,0l-20.89-51.79c-.14-.35-.51-.59-.91-.59h-12.09c-.68,0-1.15.63-.91,1.22l28.61,71.06c.22.56.8.93,1.44.93h11.31c.23,0,.44-.13.52-.34l29.36-71.67c.21-.59-.25-1.2-.92-1.2ZM656.28,97.04h56.83c.85,0,1.53.64,1.53,1.43v9.17c0,.79-.69,1.43-1.53,1.43h-40.73c-.85,0-1.53.64-1.53,1.43v15.66c0,.79.69,1.43,1.53,1.43h37.3c.85,0,1.53.64,1.53,1.43v8.97c0,.79-.69,1.43-1.53,1.43h-37.3c-.85,0-1.53.64-1.53,1.43v15.97c0,.79.69,1.43,1.53,1.43h40.73c.85,0,1.53.64,1.53,1.43v9.17c0,.79-.69,1.43-1.53,1.43h-56.83c-.85,0-1.53-.64-1.53-1.43v-70.35c0-.79.69-1.43,1.53-1.43ZM760.07,139.99l-27.75-40.76c-.65-.95.09-2.19,1.3-2.19h13.99c.53,0,1.03.26,1.31.68l19.32,29.33h.24l19.32-29.33c.28-.42.77-.68,1.31-.68h13.99c1.21,0,1.94,1.24,1.3,2.19l-27.75,40.76c-.16.23-.24.49-.24.76v28.07c0,.79-.69,1.43-1.53,1.43h-13.03c-.85,0-1.53-.64-1.53-1.43v-28.07c0-.27-.08-.53-.24-.76ZM816.16,108.88v-10.41c0-.79.69-1.43,1.53-1.43h13.03c.85,0,1.53.64,1.53,1.43v10.41c0,.05,0,.11-.01.16l-1.73,13.92c-.09.72-.74,1.26-1.52,1.26h-9.58c-.78,0-1.43-.54-1.52-1.26l-1.73-13.92c0-.05-.01-.11-.01-.16ZM848.28,158.34v-8.42c0-.79.69-1.43,1.53-1.43h12.8c.85,0,1.53.64,1.53,1.43v4.13c0,.39.17.76.48,1.03l2.99,2.64c.28.25.66.39,1.06.39h23.28c.39,0,.77-.14,1.06-.39l3.1-2.74c.3-.27.48-.64.48-1.03v-10.91c0-.39-.17-.76-.48-1.03l-2.99-2.64c-.28-.25-.66-.39-1.06-.39h-30.15c-.39,0-.77-.14-1.06-.39l-11.86-10.48c-.3-.27-.48-.64-.48-1.03v-18.12c0-.39.17-.76.48-1.03l11.86-10.48c.28-.25.66-.39,1.06-.39h36.18c.39,0,.77.14,1.06.39l11.86,10.48c.3.27.48.64.48,1.03v8.52c0,.79-.69,1.43-1.53,1.43h-12.8c-.85,0-1.53-.64-1.53-1.43v-4.24c0-.39-.17-.76-.48-1.03l-2.99-2.64c-.28-.25-.66-.39-1.06-.39h-22.22c-.39,0-.77.14-1.06.39l-2.99,2.64c-.3.27-.48.64-.48,1.03v9.55c0,.39.17.76.48,1.03l2.99,2.64c.28.25.66.39,1.06.39h30.15c.39,0,.77.14,1.06.39l11.86,10.48c.3.27.48.64.48,1.03v19.38c0,.39-.17.76-.48,1.03l-12.1,10.69c-.28.25-.66.39-1.06.39h-37.13c-.39,0-.77-.14-1.06-.39l-11.86-10.48c-.3-.27-.48-.64-.48-1.03Z"/>
  </g>
</svg>