<?xml version="1.0" encoding="UTF-8"?>
<svg id="Layer_2" data-name="Layer 2" xmlns="http://www.w3.org/2000/svg" viewBox="0 0 536.87 122.81">
  <defs>
    <style>
      .cls-1 {
        fill: #1b1b1b;
      }
    </style>
  </defs>
  <g id="Layer_1-2" data-name="Layer 1">
    <path class="cls-1" d="M384.58,76.88h22.38v-5.09h-16.37v-7.96h15.08v-5h-15.08v-7.83h16.37v-5.09h-22.38v30.96ZM174.78,45.92l-11.32,30.96h6.1l2.52-6.86h10.88l2.52,6.86h6.1l-11.32-30.96h-5.48ZM173.46,65.07l3.98-11.77h.09l4.11,11.77h-8.18ZM355.83,45.92l-5.09,5.09v20.79l5.09,5.09h15.13l5-5v-4.73h-6.02v2.52l-2.08,2.08h-8.85l-2.26-2.26v-16.19l2.26-2.26h8.85l2.08,2.08v2.52h6.02v-4.73l-5-5h-15.13ZM481.31,76.88h22.38v-5.09h-16.37v-7.96h15.08v-5h-15.08v-7.83h16.37v-5.09h-22.38v30.96ZM533.68,63.13l3.01-3.05v-9.38l-4.73-4.78h-19.42v30.96h6.02v-11.85h9.64l2.65,2.96v8.89h6.02v-10.26l-3.18-3.5ZM530.77,58.53l-1.55,1.55h-10.66v-9.11h10.66l1.55,1.55v6.02ZM435.09,66.93h-.09l-13.8-21.01h-5.4v30.96h5.79v-20.97h.09l13.8,20.97h5.4v-30.96h-5.79v21.01ZM136.88,45.92l-5.09,5.09v20.79l5.09,5.09h15.3l5.09-5.09v-12.16h-12.47v5.13h6.63v4.82l-2.17,2.17h-9.2l-2.26-2.26v-16.19l2.26-2.26h9.11l2.08,2.08v2.52h6.02v-4.73l-5-5h-15.39ZM268.25,76.88h22.38v-5.09h-16.37v-7.96h15.08v-5h-15.08v-7.83h16.37v-5.09h-22.38v30.96ZM318.76,66.93h-.09l-13.8-21.01h-5.4v30.96h5.79v-20.97h.09l13.8,20.97h5.4v-30.96h-5.79v21.01ZM223.26,60.08v-9.38l-4.73-4.78h-19.42v30.96h6.02v-11.85h9.64l2.65,2.96v8.89h6.02v-10.26l-3.18-3.5,3.01-3.05ZM217.33,58.53l-1.55,1.55h-10.66v-9.11h10.66l1.55,1.55v6.02ZM233.39,45.92v30.96h19.82l5.31-5.31v-20.35l-5.31-5.31h-19.82ZM252.5,69.5l-2.26,2.26h-10.84v-20.7h10.84l2.26,2.26v16.19ZM448.85,51.01h9.25v25.88h6.02v-25.88h9.25v-5.09h-24.51v5.09ZM50.35,0c-15.14,0-27.29,5.39-36.12,16.02C5.05,27.07,0,43.19,0,61.4s5.05,34.33,14.23,45.39c8.83,10.63,20.98,16.02,36.12,16.02s27.29-5.39,36.12-16.02c9.18-11.05,14.23-27.17,14.23-45.39s-5.05-34.33-14.23-45.39C77.65,5.39,65.49,0,50.35,0ZM82.66,103.62c-7.84,9.44-18.71,14.23-32.31,14.23s-24.47-4.79-32.31-14.23c-8.44-10.16-13.09-25.16-13.09-42.22s4.65-32.06,13.09-42.22c7.84-9.44,18.71-14.23,32.31-14.23s24.47,4.79,32.31,14.23c8.44,10.16,13.09,25.16,13.09,42.22s-4.65,32.06-13.09,42.22ZM79.74,34.34c-2.14-2.15-4.31-4.3-6.42-6.46h-14.06v23.48c-5.69-1.91-11.86-2.56-17.81-1.63v-15.04s-.18-.09-.2-.11c-.42-.39-.89-.95-1.29-1.36-1.76-1.78-3.6-3.53-5.31-5.34h-14.06v3.93c.59,1.24,1.26,2.47,1.75,3.75l-.02,45.19-1.72,3.78v3.54c0,.05.49.47.57.55,1.91,1.96,3.85,3.91,5.82,5.82.15.14.33.31.41.5h14.02l.05-26.76s.04-.04.06-.06c.16-.1.82-.27,1.04-.34,5.35-1.68,11.15-1.35,16.7-.53h0v20.86s6.81,6.84,6.81,6.84h14.06v-3.71l-1.79-3.81.03-45.42,1.76-3.56v-3.75c-.14-.07-.28-.23-.39-.34ZM70.96,31.08l-1.76,3.58-.03,46.44c.51,1.32,1.19,2.59,1.8,3.87v.79h-9.33v-26.07c-7.92-3.14-16.75-3.63-25-1.44-1.47.39-2.9.92-4.35,1.37v26.07l-.06.06h-8.61c-.34,0-.62-.28-.62-.62,0-.09.02-.17.05-.25.55-1.25,1.19-2.47,1.66-3.75v-46.15c-.46-1.19-1.08-2.33-1.63-3.49-.06-.12-.09-.25-.09-.38v-.88h9.23l.06.06v24.4c1.52-.48,3-1.07,4.52-1.53,6.26-1.87,12.93-1.98,19.25-.29,1.89.51,3.71,1.23,5.58,1.82,0,0,0,0,0,0v-24.46h9.33v.84Z"/>
  </g>
</svg>