<?xml version="1.0" encoding="UTF-8"?><svg id="a" xmlns="http://www.w3.org/2000/svg" viewBox="0 0 252.4 122.8"><g id="b"><path d="M131.6,72.1v-4.4h5.9v2.6l1.5,1.5h9.2l1.5-1.5v-5.1l-1.5-1.5h-11.7l-4.8-4.8v-8.2l4.8-4.8h14l4.8,4.8v4.5h-5.9v-2.7l-1.5-1.5h-8.8l-1.5,1.5v4.6l1.5,1.5h11.7l4.8,4.8v8.7l-4.9,4.9h-14.3l-4.8-4.8h0ZM164.8,45.9h22.4v5.1h-16.4v7.8h15.1v5h-15.1v8h16.4v5.1h-22.4v-31h0ZM196.1,45.9h22.4v5.1h-16.4v7.8h15.1v5h-15.1v8h16.4v5.1h-22.4v-31h0ZM227.3,45.9h19.8l5.3,5.3v20.4l-5.3,5.3h-19.8v-31h0ZM244.1,71.8l2.3-2.3v-16.2l-2.3-2.3h-10.8v20.7h10.8ZM50.3,5c13.6,0,24.5,4.8,32.3,14.2,8.4,10.2,13.1,25.2,13.1,42.2s-4.7,32.1-13.1,42.2c-7.8,9.4-18.7,14.2-32.3,14.2s-24.5-4.8-32.3-14.2c-8.4-10.2-13.1-25.2-13.1-42.2s4.6-32.1,13.1-42.2c7.8-9.4,18.7-14.2,32.3-14.2M50.3,0c-15.1,0-27.3,5.4-36.1,16C5.1,27.1,0,43.2,0,61.4s5.1,34.3,14.2,45.4c8.8,10.6,21,16,36.1,16s27.3-5.4,36.1-16c9.2-11.1,14.2-27.2,14.2-45.4s-5.1-34.3-14.2-45.4C77.7,5.4,65.5,0,50.3,0h0ZM80.1,38.4l-1.8,3.6v45.4s1.8,3.8,1.8,3.8v3.7h-14.1l-6.8-6.8v-20.9h0c-5.6-.8-11.4-1.2-16.7.5-.2,0-.9.2-1,.3,0,0,0,0,0,0v26.8h-14.1c0-.2-.3-.4-.4-.5-2-1.9-3.9-3.8-5.8-5.8,0,0-.6-.5-.6-.6v-3.5l1.7-3.8v-45.2c-.5-1.3-1.1-2.5-1.7-3.8v-3.9h14.1c1.7,1.8,3.5,3.6,5.3,5.3.4.4.9,1,1.3,1.4,0,0,.2,0,.2.1v15c6-.9,12.1-.3,17.8,1.6v-23.5h14.1c2.1,2.2,4.3,4.3,6.4,6.5s.2.3.4.3v3.8h0ZM61.6,54.7h0c-1.9-.6-3.7-1.3-5.6-1.8-6.3-1.7-13-1.6-19.2.3-1.5.5-3,1-4.5,1.5v-24.4h0c0,0-9.2,0-9.2,0v.9c0,.1,0,.3,0,.4.5,1.2,1.2,2.3,1.6,3.5v46.1c-.5,1.3-1.1,2.5-1.7,3.8,0,0,0,.2,0,.2h0c0,.3.3.6.6.6h8.7v-26.1c1.5-.5,2.9-1,4.3-1.4,8.2-2.2,17.1-1.7,25,1.4v26.1h9.3v-.8c-.6-1.3-1.3-2.6-1.8-3.9v-46.4s1.8-3.6,1.8-3.6v-.8h-9.3v24.5h0Z" style="fill:#c05017;"/></g></svg>