<?xml version="1.0" encoding="UTF-8"?>
<svg id="Layer_2" data-name="Layer 2" xmlns="http://www.w3.org/2000/svg" viewBox="0 0 252.41 122.81">
  <g id="Layer_1-2" data-name="Layer 1">
    <path d="M131.57,72.11v-4.42h5.93v2.61l1.46,1.46h9.16l1.5-1.5v-5.13l-1.46-1.46h-11.72l-4.78-4.78v-8.18l4.78-4.78h13.98l4.78,4.78v4.47h-5.93v-2.65l-1.46-1.46h-8.76l-1.46,1.46v4.56l1.46,1.46h11.72l4.78,4.78v8.71l-4.87,4.87h-14.33l-4.78-4.78ZM164.83,45.92h22.38v5.09h-16.37v7.83h15.08v5h-15.08v7.96h16.37v5.09h-22.38v-30.96ZM196.06,45.92h22.38v5.09h-16.37v7.83h15.08v5h-15.08v7.96h16.37v5.09h-22.38v-30.96ZM227.29,45.92h19.82l5.31,5.31v20.35l-5.31,5.31h-19.82v-30.96ZM244.14,71.75l2.26-2.26v-16.19l-2.26-2.26h-10.84v20.7h10.84ZM50.35,4.96c13.6,0,24.47,4.79,32.31,14.23,8.44,10.16,13.09,25.16,13.09,42.22s-4.65,32.06-13.09,42.22c-7.84,9.44-18.71,14.23-32.31,14.23s-24.47-4.79-32.31-14.23c-8.44-10.16-13.09-25.16-13.09-42.22s4.65-32.06,13.09-42.22c7.84-9.44,18.71-14.23,32.31-14.23M50.35,0c-15.14,0-27.29,5.39-36.12,16.02C5.05,27.07,0,43.19,0,61.4s5.05,34.33,14.23,45.39c8.83,10.63,20.98,16.02,36.12,16.02s27.29-5.39,36.12-16.02c9.18-11.05,14.23-27.17,14.23-45.39s-5.05-34.33-14.23-45.39C77.65,5.39,65.49,0,50.35,0h0ZM80.13,38.43l-1.76,3.56-.03,45.42,1.79,3.81v3.71h-14.06s-6.81-6.84-6.81-6.84v-20.86s0,0,0,0c-5.56-.81-11.35-1.15-16.7.53-.22.07-.89.25-1.04.34-.03.02-.06.02-.06.06l-.05,26.76h-14.02c-.08-.19-.26-.36-.41-.5-1.97-1.9-3.91-3.85-5.82-5.82-.08-.08-.58-.5-.58-.55v-3.54s1.74-3.78,1.74-3.78l.02-45.19c-.5-1.28-1.16-2.51-1.75-3.75v-3.93h14.06c1.71,1.81,3.55,3.56,5.31,5.34.41.41.87.96,1.29,1.36.03.02.2.1.2.11v15.04c5.96-.93,12.12-.28,17.81,1.63v-23.48s14.06,0,14.06,0c2.1,2.17,4.28,4.32,6.42,6.46.11.11.25.27.39.34v3.75ZM61.62,54.7s0,0,0,0c-1.86-.59-3.68-1.32-5.58-1.82-6.31-1.69-12.99-1.58-19.25.29-1.53.46-3.01,1.05-4.52,1.53v-24.4s-.06-.06-.06-.06h-9.23s0,.88,0,.88c0,.13.03.26.09.38.55,1.16,1.17,2.29,1.63,3.49v46.15c-.47,1.28-1.11,2.5-1.66,3.75-.04.08-.05.17-.05.25h0c0,.34.28.62.62.62h8.61s.06-.06.06-.06v-26.07c1.45-.46,2.88-.98,4.35-1.37,8.24-2.19,17.08-1.7,25,1.44v26.07s9.33,0,9.33,0v-.79c-.6-1.28-1.28-2.55-1.8-3.87l.03-46.44,1.76-3.58v-.84s-9.33,0-9.33,0v24.46Z"/>
  </g>
</svg>