<?xml version="1.0" encoding="UTF-8"?><svg id="a" xmlns="http://www.w3.org/2000/svg" viewBox="0 0 469 122.8"><g id="b"><path d="M398.1,76.9h6v-31h-6v31ZM136.9,45.9l-5.1,5.1v20.8l5.1,5.1h15.1l5-5v-4.7h-6v2.5l-2.1,2.1h-8.9l-2.3-2.3v-16.2l2.3-2.3h8.9l2.1,2.1v2.5h6v-4.7l-5-5s-15.1,0-15.1,0ZM316.1,45.9v31h19.8l5.3-5.3v-20.3l-5.3-5.3h-19.8ZM335.2,69.5l-2.3,2.3h-10.8v-20.7h10.8l2.3,2.3v16.2h0ZM170.3,45.9l-5.1,5.1v20.8l5.1,5.1h15.9l5.1-5.1v-20.8l-5.1-5.1s-15.9,0-15.9,0ZM185.3,69.5l-2.3,2.3h-9.6l-2.3-2.3v-16.2l2.3-2.3h9.6l2.3,2.3v16.2ZM464.2,58.5h-11.7l-1.5-1.5v-4.6l1.5-1.5h8.8l1.5,1.5v2.7h5.9v-4.5l-4.8-4.8h-14l-4.8,4.8v8.2l4.8,4.8h11.7l1.5,1.5v5.1l-1.5,1.5h-9.2l-1.5-1.5v-2.6h-5.9v4.4l4.8,4.8h14.3l4.9-4.9v-8.7l-4.8-4.8h0ZM414.5,76.9h22.4v-5.1h-16.4v-8h15.1v-5h-15.1v-7.8h16.4v-5.1h-22.4v31h0ZM285.4,45.9l-5.1,5.1v20.8l5.1,5.1h15.9l5.1-5.1v-20.8l-5.1-5.1s-15.9,0-15.9,0ZM300.4,69.5l-2.3,2.3h-9.5l-2.3-2.3v-16.2l2.3-2.3h9.5l2.3,2.3v16.2ZM215.9,65.9h0l-9.2-20h-5.6v31h5.8v-18.8h0l7.1,14.5h3.7l7.1-14.5h0v18.8h5.8v-31h-5.6l-9.2,20h0ZM351.2,76.9h6v-31h-6v31ZM365.4,51h9.2v25.9h6v-25.9h9.2v-5.1h-24.5v5.1h0ZM255.7,65.9h0l-9.2-20h-5.6v31h5.8v-18.8h0l7.1,14.5h3.7l7.1-14.5h0v18.8h5.8v-31h-5.6l-9.2,20h0ZM50.3,0c-15.1,0-27.3,5.4-36.1,16C5.1,27.1,0,43.2,0,61.4s5.1,34.3,14.2,45.4c8.8,10.6,21,16,36.1,16s27.3-5.4,36.1-16c9.2-11.1,14.2-27.2,14.2-45.4s-5.1-34.3-14.2-45.4C77.7,5.4,65.5,0,50.3,0ZM82.7,103.6c-7.8,9.4-18.7,14.2-32.3,14.2s-24.5-4.8-32.3-14.2c-8.4-10.2-13.1-25.2-13.1-42.2s4.6-32.1,13.1-42.2c7.8-9.4,18.7-14.2,32.3-14.2s24.5,4.8,32.3,14.2c8.4,10.2,13.1,25.2,13.1,42.2s-4.7,32.1-13.1,42.2ZM79.7,34.3c-2.1-2.2-4.3-4.3-6.4-6.5h-14.1v23.5c-5.7-1.9-11.9-2.6-17.8-1.6v-15s-.2,0-.2-.1c-.4-.4-.9-1-1.3-1.4-1.8-1.8-3.6-3.5-5.3-5.3h-14.1v3.9c.6,1.2,1.3,2.5,1.8,3.8v45.2s-1.7,3.8-1.7,3.8v3.5c0,0,.5.5.6.6,1.9,2,3.9,3.9,5.8,5.8.1.1.3.3.4.5h14v-26.8s0,0,.1,0c.2,0,.8-.3,1-.3,5.3-1.7,11.2-1.3,16.7-.5h0v20.9l6.8,6.8h14.1v-3.7l-1.8-3.8v-45.4s1.8-3.6,1.8-3.6v-3.8c-.1,0-.3-.2-.4-.3h0ZM71,31.1l-1.8,3.6v46.4c.5,1.3,1.2,2.6,1.8,3.9v.8h-9.3v-26.1c-7.9-3.1-16.8-3.6-25-1.4-1.5.4-2.9.9-4.3,1.4v26.1h0c0,0-8.6,0-8.6,0-.3,0-.6-.3-.6-.6s0-.2,0-.2c.5-1.2,1.2-2.5,1.7-3.8v-46.2c-.5-1.2-1.1-2.3-1.6-3.5,0-.1,0-.2,0-.4v-.9h9.3v24.5c1.5-.5,3-1.1,4.5-1.5,6.3-1.9,12.9-2,19.2-.3,1.9.5,3.7,1.2,5.6,1.8h0v-24.5h9.3v.8h0Z" style="fill:#f6eceb;"/></g></svg>