<?xml version="1.0" encoding="UTF-8"?>
<svg id="Layer_2" data-name="Layer 2" xmlns="http://www.w3.org/2000/svg" viewBox="0 0 176.61 215.37">
  <defs>
    <style>
      .cls-1 {
        fill: #c05017;
      }
    </style>
  </defs>
  <g id="Layer_1-2" data-name="Layer 1">
    <path class="cls-1" d="M88.05,8.69c23.85-.06,42.93,8.28,56.72,24.8,14.85,17.79,23.07,44.06,23.15,73.99.08,29.92-8.01,56.24-22.76,74.1-13.7,16.59-32.75,25.04-56.59,25.1-23.85.06-42.93-8.28-56.72-24.8-14.85-17.79-23.07-44.06-23.15-73.98-.08-29.92,8.01-56.24,22.76-74.1,13.71-16.59,32.75-25.04,56.59-25.1M88.03,0c-26.56.07-47.84,9.58-63.27,28.25C8.71,47.68-.08,75.97,0,107.92c.08,31.94,9.02,60.19,25.17,79.53,15.53,18.6,36.86,27.99,63.42,27.93,26.56-.07,47.84-9.57,63.27-28.25,16.05-19.42,24.84-47.72,24.75-79.66-.08-31.95-9.02-60.19-25.17-79.53C135.92,9.33,114.58-.07,88.03,0h0ZM140.43,67.27l-3.07,6.25.15,79.66,3.16,6.67.02,6.51-24.66.06-11.97-11.96-.1-36.58c-9.75-1.4-19.91-1.97-29.29,1.01-.39.12-1.55.44-1.83.61-.05.03-.1.04-.11.11l.04,46.92-24.59.06c-.14-.33-.46-.62-.72-.87-3.46-3.33-6.87-6.74-10.23-10.17-.14-.14-1.01-.87-1.03-.96v-6.21s3.01-6.63,3.01-6.63l-.17-79.25c-.88-2.24-2.05-4.39-3.09-6.57l-.02-6.9,24.66-.06c3.01,3.17,6.24,6.23,9.34,9.34.71.72,1.54,1.69,2.27,2.37.05.04.36.17.36.19l.07,26.38c10.44-1.66,21.26-.55,31.25,2.78l-.11-41.18,24.66-.06c3.7,3.79,7.52,7.55,11.28,11.31.2.2.43.47.69.6l.02,6.58ZM108.05,95.88c-3.27-1.03-6.47-2.29-9.79-3.17-11.08-2.93-22.79-2.7-33.76.6-2.67.81-5.27,1.86-7.93,2.7l-.11-42.79-.11-.11-16.19.04v1.89c1.01,2.14,2.17,4.22,3.03,6.42l.21,80.93c-.85,2.31-2.01,4.53-2.99,6.8v1.32s16.2-.04,16.2-.04l.11-.11-.12-45.72c2.54-.81,5.04-1.74,7.63-2.43,14.45-3.88,29.94-3.06,43.84,2.4l.12,45.72,16.37-.04v-1.39c-1.07-2.25-2.26-4.47-3.17-6.78l-.15-81.44,3.07-6.28v-1.47s-16.37.04-16.37.04l.11,42.89Z"/>
  </g>
</svg>