<?xml version="1.0" encoding="UTF-8"?>
<svg id="Layer_2" xmlns="http://www.w3.org/2000/svg" version="1.1" viewBox="0 0 340.2 215.8">
  <!-- Generator: Adobe Illustrator 29.3.1, SVG Export Plug-In . SVG Version: 2.1.0 Build 151)  -->
  <defs>
    <style>
      .st0 {
        fill: #fafaf9;
      }
    </style>
  </defs>
  <g id="Layer_1-2">
    <path class="st0" d="M170.1,0c-17.8,0-32.1,6.3-42.4,18.8-10.8,13-16.7,31.9-16.7,53.3s5.9,40.3,16.7,53.3c10.4,12.5,24.6,18.8,42.4,18.8s32.1-6.3,42.4-18.8c10.8-13,16.7-31.9,16.7-53.3s-5.9-40.3-16.7-53.3C202.2,6.3,187.9,0,170.1,0h0ZM205.1,45.2l-2.1,4.2v53.3s2.1,4.5,2.1,4.5v4.4h-16.5l-8-8v-24.5c-6.5-.9-13.3-1.3-19.6.6-.3,0-1,.3-1.2.4,0,0,0,0,0,0v31.4h-16.5c-.1-.2-.3-.4-.5-.6-2.3-2.2-4.6-4.5-6.8-6.8,0,0-.7-.6-.7-.7v-4.2l2-4.4v-53.1c-.6-1.5-1.3-2.9-2-4.4v-4.6h16.5c2,2.1,4.2,4.2,6.2,6.3.5.5,1,1.1,1.5,1.6,0,0,.2.1.2.1v17.7c7-1.1,14.2-.3,20.9,1.9v-27.6h16.5c2.5,2.5,5,5.1,7.5,7.6.1.1.3.3.5.4v4.4h0ZM183.4,64.2c-2.2-.7-4.3-1.5-6.6-2.1-7.4-2-15.3-1.8-22.6.3-1.8.5-3.5,1.2-5.3,1.8v-28.7h0c0,0-10.9,0-10.9,0v1c0,.2,0,.3.1.5.6,1.4,1.4,2.7,1.9,4.1v54.2c-.6,1.5-1.3,2.9-1.9,4.4,0,0,0,.2,0,.3h0c0,.4.3.7.7.7h10.2v-30.7c1.7-.5,3.4-1.2,5.1-1.6,9.7-2.6,20.1-2,29.4,1.7v30.6h11v-.9c-.7-1.5-1.5-3-2.1-4.6v-54.5s2.1-4.2,2.1-4.2v-1h-11v28.7h0ZM0,171.7h9v18.4h19.6v-18.4h9v44h-9v-18.3H9v18.3H0v-44h0ZM64.4,171.7h7c.3,0,.7.2.8.6l16.3,42.3c.2.6-.2,1.2-.8,1.2h-7.3c-.3,0-.7-.2-.8-.6l-3.3-8.7c-.1-.3-.4-.6-.8-.6h-15.1c-.3,0-.7.2-.8.6l-3.3,8.7c-.1.3-.5.6-.8.6h-7.3c-.6,0-1-.6-.8-1.2l16.3-42.3c.1-.3.5-.6.8-.6h0ZM72.9,199c.6,0,1-.6.8-1.1l-5.7-15.6h-.1l-5.5,15.6c-.2.6.2,1.1.8,1.1h9.8,0ZM136.3,201.5v13.4c0,.5-.4.9-.9.9h-7.3c-.5,0-.9-.4-.9-.9v-11.4c0-.2,0-.4-.2-.6l-3.5-3.7c-.2-.2-.4-.3-.6-.3h-13.2c-.5,0-.9.4-.9.9v15.1c0,.5-.4.9-.9.9h-7.3c-.5,0-.9-.4-.9-.9v-42.3c0-.5.4-.9.9-.9h27.9c.2,0,.4,0,.6.2l6.6,6.3c.2.2.3.4.3.6v12.6c0,.2,0,.5-.3.6l-3.6,3.5c-.3.3-.4.9,0,1.2l3.9,4.1c.1.2.2.4.2.6h0ZM109.8,191.9h14.8c.2,0,.4,0,.6-.2l1.8-1.7c.2-.2.3-.4.3-.6v-7.8c0-.2,0-.5-.3-.6l-1.8-1.7c-.2-.1-.4-.2-.6-.2h-14.8c-.5,0-.9.4-.9.9v11.2c0,.5.4.9.9.9h0ZM185.2,171.7h-6.8c-.2,0-.4.1-.5.4l-12,31.1c-.1.3-.5.3-.6,0l-11.7-31.2c0-.2-.3-.4-.5-.4h-6.8c-.4,0-.6.4-.5.7l16,42.8c.1.3.4.6.8.6h6.3c.1,0,.2,0,.3-.2l16.4-43.1c.1-.4-.1-.7-.5-.7h0ZM198,171.7h31.8c.5,0,.9.4.9.9v5.5c0,.5-.4.9-.9.9h-22.8c-.5,0-.9.4-.9.9v9.4c0,.5.4.9.9.9h20.9c.5,0,.9.4.9.9v5.4c0,.5-.4.9-.9.9h-20.9c-.5,0-.9.4-.9.9v9.6c0,.5.4.9.9.9h22.8c.5,0,.9.4.9.9v5.5c0,.5-.4.9-.9.9h-31.8c-.5,0-.9-.4-.9-.9v-42.3c0-.5.4-.9.9-.9h0ZM256,197.6l-15.5-24.5c-.4-.6,0-1.3.7-1.3h7.8c.3,0,.6.2.7.4l10.8,17.6h.1l10.8-17.6c.2-.2.4-.4.7-.4h7.8c.7,0,1.1.8.7,1.3l-15.5,24.5c0,.1-.1.3-.1.5v16.9c0,.5-.4.9-.9.9h-7.3c-.5,0-.9-.4-.9-.9v-16.9c0-.2,0-.3-.1-.5h0ZM288,178.9v-6.3c0-.5.4-.9.9-.9h7.3c.5,0,.9.4.9.9v6.3h0c0,.1-1,8.5-1,8.5,0,.4-.4.8-.9.8h-5.4c-.4,0-.8-.3-.9-.8l-1-8.4h0c0-.1,0-.1,0-.1ZM304.4,208.6v-5.1c0-.5.4-.9.9-.9h7.2c.5,0,.9.4.9.9v2.5c0,.2.1.5.3.6l1.7,1.6c.2.1.4.2.6.2h13c.2,0,.4,0,.6-.2l1.7-1.6c.2-.2.3-.4.3-.6v-6.6c0-.2-.1-.5-.3-.6l-1.7-1.6c-.2-.1-.4-.2-.6-.2h-16.9c-.2,0-.4,0-.6-.2l-6.6-6.3c-.2-.2-.3-.4-.3-.6v-10.9c0-.2.1-.5.3-.6l6.6-6.3c.2-.1.4-.2.6-.2h20.2c.2,0,.4,0,.6.2l6.6,6.3c.2.2.3.4.3.6v5.1c0,.5-.4.9-.9.9h-7.2c-.5,0-.9-.4-.9-.9v-2.6c0-.2-.1-.5-.3-.6l-1.7-1.6c-.2-.1-.4-.2-.6-.2h-12.4c-.2,0-.4,0-.6.2l-1.7,1.6c-.2.2-.3.4-.3.6v5.7c0,.2.1.5.3.6l1.7,1.6c.2.1.4.2.6.2h16.9c.2,0,.4,0,.6.2l6.6,6.3c.2.2.3.4.3.6v11.7c0,.2-.1.5-.3.6l-6.8,6.4c-.2.1-.4.2-.6.2h-20.8c-.2,0-.4,0-.6-.2l-6.6-6.3c-.2-.2-.3-.4-.3-.6h0Z"/>
  </g>
</svg>