<?xml version="1.0" encoding="UTF-8"?>
<svg id="Layer_2" xmlns="http://www.w3.org/2000/svg" version="1.1" viewBox="0 0 309.8 384.4">
  <!-- Generator: Adobe Illustrator 29.3.1, SVG Export Plug-In . SVG Version: 2.1.0 Build 151)  -->
  <defs>
    <style>
      .st0 {
        fill: #f6eceb;
      }
    </style>
  </defs>
  <path class="st0" d="M155.5,0C116.9,0,85.8,13.8,63.3,41c-23.4,28.3-36.3,69.5-36.3,116s12.9,87.8,36.3,116c22.5,27.2,53.5,41,92.2,41s69.7-13.8,92.2-41c23.4-28.3,36.3-69.5,36.3-116s-12.9-87.8-36.3-116C225.2,13.8,194.1,0,155.5,0h0ZM231.5,98.3l-4.5,9.1v116.1c0,0,4.5,9.7,4.5,9.7v9.5h-35.9l-17.4-17.5v-53.3c-14.2-2.1-29-2.9-42.6,1.4-.6.2-2.3.6-2.7.9,0,0-.1,0-.2.1v68.4h-35.9c-.2-.5-.7-.9-1-1.3-5-4.9-10-9.9-14.8-14.9-.2-.2-1.5-1.3-1.5-1.4v-9.1s4.4-9.7,4.4-9.7v-115.5c-1.2-3.3-2.9-6.4-4.4-9.6v-10.1h35.9c4.4,4.6,9.1,9.1,13.6,13.7,1,1.1,2.2,2.5,3.3,3.5,0,0,.5.2.5.3v38.5c15.2-2.4,30.9-.7,45.5,4.2v-60h35.9c5.4,5.6,10.9,11,16.4,16.5.3.3.6.7,1,.9v9.6ZM184.3,139.9c-4.8-1.5-9.4-3.4-14.2-4.7-16.1-4.3-33.2-4-49.1.8-3.9,1.2-7.7,2.7-11.5,3.9v-62.4l-.2-.2h-23.6v2.3c0,.3,0,.7.2,1,1.4,3,3,5.9,4.2,8.9v118c-1.2,3.3-2.8,6.4-4.2,9.6,0,.2-.1.4-.1.7h0c0,.9.7,1.6,1.6,1.6h22l.2-.2v-66.6c3.7-1.2,7.3-2.5,11.1-3.5,21-5.6,43.6-4.4,63.8,3.7v66.6h23.8v-2c-1.5-3.3-3.3-6.5-4.6-9.9v-118.7c0,0,4.6-9.2,4.6-9.2v-2.1h-23.8v62.5Z"/>
  <path class="st0" d="M0,343.9h8.2v16.8h17.9v-16.8h8.2v40.1h-8.2v-16.7H8.2v16.7H0v-40.1ZM58.7,343.9h6.4c.3,0,.6.2.7.5l14.8,38.5c.2.5-.2,1.1-.7,1.1h-6.7c-.3,0-.6-.2-.7-.5l-3.1-7.9c-.1-.3-.4-.5-.7-.5h-13.8c-.3,0-.6.2-.7.5l-3.1,7.9c-.1.3-.4.5-.7.5h-6.7c-.6,0-.9-.5-.7-1.1l14.8-38.5c.1-.3.4-.5.7-.5h0ZM66.4,368.7c.5,0,.9-.5.7-1l-5.2-14.2h-.1l-5.1,14.2c-.2.5.2,1,.7,1h8.9ZM124.2,371v12.2c0,.4-.4.8-.8.8h-6.6c-.4,0-.8-.3-.8-.8v-10.4c0-.2,0-.4-.2-.5l-3.2-3.4c-.2-.2-.4-.2-.6-.2h-12c-.4,0-.8.3-.8.8v13.8c0,.4-.4.8-.8.8h-6.6c-.4,0-.8-.3-.8-.8v-38.5c0-.4.4-.8.8-.8h25.4c.2,0,.4,0,.5.2l6,5.7c.2.1.2.3.2.6v11.5c0,.2,0,.4-.2.6l-3.3,3.2c-.3.3-.3.8,0,1.1l3.6,3.7c.1.1.2.3.2.5h0ZM100,362.2h13.4c.2,0,.4,0,.5-.2l1.6-1.6c.2-.1.2-.3.2-.6v-7.1c0-.2,0-.4-.2-.6l-1.6-1.6c-.2-.1-.3-.2-.5-.2h-13.4c-.4,0-.8.3-.8.8v10.2c0,.4.4.8.8.8ZM168.7,343.9h-6.2c-.2,0-.4.1-.5.3l-10.9,28.3c0,.2-.4.2-.5,0l-10.6-28.3c0-.2-.3-.3-.5-.3h-6.2c-.4,0-.6.3-.5.7l14.6,38.9c.1.3.4.5.7.5h5.8c.1,0,.2,0,.3-.2l15-39.2c.1-.3-.1-.7-.5-.7h0ZM180.4,343.9h29c.4,0,.8.3.8.8v5c0,.4-.4.8-.8.8h-20.8c-.4,0-.8.3-.8.8v8.6c0,.4.4.8.8.8h19c.4,0,.8.3.8.8v4.9c0,.4-.4.8-.8.8h-19c-.4,0-.8.3-.8.8v8.7c0,.4.4.8.8.8h20.8c.4,0,.8.3.8.8v5c0,.4-.4.8-.8.8h-29c-.4,0-.8-.3-.8-.8v-38.5c0-.4.4-.8.8-.8h0ZM233.3,367.4l-14.1-22.3c-.3-.5,0-1.2.7-1.2h7.1c.3,0,.5.1.7.4l9.8,16.1h.1l9.8-16.1c.1-.2.4-.4.7-.4h7.1c.6,0,1,.7.7,1.2l-14.1,22.3c0,.1-.1.3-.1.4v15.4c0,.4-.4.8-.8.8h-6.6c-.4,0-.8-.3-.8-.8v-15.4c0-.1,0-.3-.1-.4h0ZM262.4,350.4v-5.7c0-.4.4-.8.8-.8h6.6c.4,0,.8.3.8.8v5.7h0c0,0-.9,7.7-.9,7.7,0,.4-.4.7-.8.7h-4.9c-.4,0-.7-.3-.8-.7l-.9-7.6h0ZM277.3,377.5v-4.6c0-.4.4-.8.8-.8h6.5c.4,0,.8.3.8.8v2.3c0,.2,0,.4.2.6l1.5,1.4c.1.1.3.2.5.2h11.9c.2,0,.4,0,.5-.2l1.6-1.5c.2-.1.2-.3.2-.6v-6c0-.2,0-.4-.2-.6l-1.5-1.4c-.2-.1-.3-.2-.5-.2h-15.4c-.2,0-.4,0-.5-.2l-6-5.7c-.2-.1-.2-.3-.2-.6v-9.9c0-.2,0-.4.2-.6l6-5.7c.2-.1.3-.2.5-.2h18.4c.2,0,.4,0,.5.2l6,5.7c.2.1.2.3.2.6v4.7c0,.4-.4.8-.8.8h-6.5c-.4,0-.8-.3-.8-.8v-2.3c0-.2,0-.4-.2-.6l-1.5-1.4c-.2-.1-.3-.2-.5-.2h-11.3c-.2,0-.4,0-.5.2l-1.5,1.4c-.2.1-.2.3-.2.6v5.2c0,.2,0,.4.2.6l1.5,1.4c.2.1.3.2.5.2h15.4c.2,0,.4,0,.5.2l6,5.7c.2.1.2.3.2.6v10.6c0,.2,0,.4-.2.6l-6.2,5.9c-.2.1-.3.2-.5.2h-18.9c-.2,0-.4,0-.5-.2l-6-5.7c-.2-.1-.2-.3-.2-.6h0Z"/>
</svg>