<?xml version="1.0" encoding="UTF-8"?>
<svg id="Layer_2" xmlns="http://www.w3.org/2000/svg" version="1.1" viewBox="0 0 170.8 208.3">
  <!-- Generator: Adobe Illustrator 29.3.1, SVG Export Plug-In . SVG Version: 2.1.0 Build 151)  -->
  <defs>
    <style>
      .st0 {
        fill: #fafaf9;
      }
    </style>
  </defs>
  <g id="Layer_1-2">
    <path class="st0" d="M117.4,137.5l-.2-78.8,3-6.1v-1.4h-15.8s.1,41.5.1,41.5c-3.2-1-6.2-2.2-9.5-3.1-10.7-2.8-22-2.6-32.7.6-2.6.8-5.1,1.8-7.7,2.6v-41.4c-.1,0-.2,0-.2,0h-15.7v1.9c1,2.1,2.1,4.1,2.9,6.2l.2,78.3c-.8,2.2-1.9,4.4-2.9,6.6v1.3h15.7s0-.1,0-.1v-44.2c2.3-.8,4.8-1.7,7.3-2.3,14-3.8,29-3,42.4,2.3v44.2c.1,0,15.9,0,15.9,0v-1.4c-1-2.2-2.2-4.3-3.1-6.6h0ZM146.5,27C131.4,9,110.8,0,85.1,0S38.9,9.3,23.9,27.3C8.4,46.1,0,73.5,0,104.4c0,30.9,8.7,58.2,24.3,76.9,15,18,35.7,27.1,61.3,27,25.7,0,46.3-9.3,61.2-27.3,15.5-18.8,24-46.1,23.9-77,0-30.9-8.7-58.2-24.3-76.9h0ZM112.2,160.9l-11.6-11.6v-35.4c-9.5-1.3-19.4-1.9-28.4,1-.4.1-1.5.4-1.8.6,0,0,0,0-.1,0v45.4s-23.7,0-23.7,0c-.1-.3-.5-.6-.7-.9-3.3-3.2-6.7-6.5-9.9-9.8-.1-.1-1-.8-1-.9v-6l2.9-6.4-.2-76.6c-.8-2.2-2-4.2-3-6.3v-6.7s23.8,0,23.8,0c2.9,3.1,6,6,9,9,.7.7,1.5,1.6,2.2,2.3,0,0,.3.2.3.2v25.5c10.2-1.6,20.6-.5,30.3,2.7v-39.8c0,0,23.8,0,23.8,0,3.6,3.7,7.3,7.3,10.9,10.9.2.2.4.5.7.6v6.4s-2.9,6-2.9,6v77c.1,0,3.2,6.4,3.2,6.4v6.3s-23.8,0-23.8,0h0Z"/>
  </g>
</svg>