<?xml version="1.0" encoding="UTF-8"?>
<svg id="Layer_2" data-name="Layer 2" xmlns="http://www.w3.org/2000/svg" viewBox="0 0 326.51 251.99">
  <defs>
    <style>
      .cls-1 {
        fill: #1b1b1b;
      }
    </style>
  </defs>
  <g id="Layer_1-2" data-name="Layer 1">
    <path class="cls-1" d="M0,165.74h8.64v17.69h18.81v-17.69h8.64v42.26h-8.64v-17.57H8.64v17.57H0v-42.26ZM61.82,165.74h6.75c.34,0,.65.21.77.53l15.63,40.61c.21.54-.19,1.12-.77,1.12h-7.01c-.34,0-.64-.21-.77-.53l-3.22-8.31c-.12-.32-.43-.53-.77-.53h-14.51c-.34,0-.64.21-.77.53l-3.22,8.31c-.12.32-.43.53-.77.53h-7.01c-.58,0-.98-.58-.77-1.12l15.63-40.61c.12-.32.43-.53.77-.53ZM69.93,191.88c.57,0,.97-.57.77-1.11l-5.5-14.95h-.13l-5.33,14.96c-.19.54.21,1.1.78,1.1h9.41ZM130.83,194.33v12.85c0,.45-.37.82-.82.82h-7c-.45,0-.82-.37-.82-.82v-10.98c0-.21-.08-.41-.22-.56l-3.35-3.55c-.16-.16-.37-.26-.6-.26h-12.68c-.45,0-.82.37-.82.82v14.53c0,.45-.37.82-.82.82h-7c-.45,0-.82-.37-.82-.82v-40.61c0-.45.37-.82.82-.82h26.74c.21,0,.42.08.57.23l6.31,6.05c.16.16.25.37.25.59v12.1c0,.22-.09.44-.25.59l-3.48,3.35c-.33.31-.34.83-.02,1.16l3.78,3.94c.15.15.23.36.23.57ZM105.34,185.06h14.16c.21,0,.41-.08.57-.23l1.73-1.64c.16-.16.26-.37.26-.6v-7.5c0-.23-.09-.44-.26-.6l-1.73-1.64c-.15-.15-.36-.23-.57-.23h-14.16c-.45,0-.82.37-.82.82v10.79c0,.45.37.82.82.82ZM177.69,165.74h-6.5c-.22,0-.42.14-.49.35l-11.51,29.89c-.1.26-.47.26-.56,0l-11.22-29.9c-.08-.2-.27-.34-.49-.34h-6.49c-.36,0-.62.36-.49.71l15.36,41.02c.12.32.43.53.77.53h6.07c.12,0,.24-.08.28-.19l15.76-41.38c.12-.34-.14-.69-.49-.69ZM189.98,165.74h30.51c.45,0,.82.37.82.82v5.3c0,.45-.37.82-.82.82h-21.87c-.45,0-.82.37-.82.82v9.04c0,.45.37.82.82.82h20.02c.45,0,.82.37.82.82v5.18c0,.45-.37.82-.82.82h-20.02c-.45,0-.82.37-.82.82v9.22c0,.45.37.82.82.82h21.87c.45,0,.82.37.82.82v5.3c0,.45-.37.82-.82.82h-30.51c-.45,0-.82-.37-.82-.82v-40.61c0-.45.37-.82.82-.82ZM245.7,190.53l-14.9-23.53c-.35-.55.05-1.26.7-1.26h7.51c.29,0,.55.15.7.39l10.37,16.93h.13l10.37-16.93c.15-.24.42-.39.7-.39h7.51c.65,0,1.04.72.7,1.26l-14.9,23.53c-.08.13-.13.28-.13.44v16.2c0,.45-.37.82-.82.82h-7c-.45,0-.82-.37-.82-.82v-16.2c0-.16-.04-.31-.13-.44ZM276.34,172.58v-6.01c0-.45.37-.82.82-.82h7c.45,0,.82.37.82.82v6.01s0,.06,0,.09l-.93,8.04c-.05.42-.4.73-.82.73h-5.14c-.42,0-.77-.31-.82-.73l-.93-8.04s0-.06,0-.09ZM292.06,201.13v-4.86c0-.45.37-.82.82-.82h6.87c.45,0,.82.37.82.82v2.39c0,.23.09.44.26.6l1.6,1.52c.15.15.36.23.57.23h12.5c.21,0,.41-.08.57-.23l1.67-1.58c.16-.16.26-.37.26-.6v-6.3c0-.23-.09-.44-.26-.6l-1.6-1.52c-.15-.15-.36-.23-.57-.23h-16.18c-.21,0-.41-.08-.57-.23l-6.37-6.05c-.16-.16-.26-.37-.26-.6v-10.46c0-.23.09-.44.26-.6l6.37-6.05c.15-.15.36-.23.57-.23h19.42c.21,0,.41.08.57.23l6.37,6.05c.16.16.26.37.26.6v4.92c0,.45-.37.82-.82.82h-6.87c-.45,0-.82-.37-.82-.82v-2.45c0-.23-.09-.44-.26-.6l-1.6-1.52c-.15-.15-.36-.23-.57-.23h-11.93c-.21,0-.41.08-.57.23l-1.6,1.52c-.16.16-.26.37-.26.6v5.51c0,.23.09.44.26.6l1.6,1.52c.15.15.36.23.57.23h16.18c.21,0,.41.08.57.23l6.37,6.05c.16.16.26.37.26.6v11.19c0,.23-.09.44-.26.6l-6.5,6.17c-.15.15-.36.23-.57.23h-19.93c-.21,0-.41-.08-.57-.23l-6.37-6.05c-.16-.16-.26-.37-.26-.6ZM163.25,5.54c15.21,0,27.36,5.35,36.13,15.91,9.44,11.37,14.64,28.13,14.64,47.21s-5.2,35.85-14.64,47.21c-8.77,10.56-20.92,15.91-36.13,15.91s-27.36-5.35-36.13-15.91c-9.44-11.37-14.64-28.13-14.64-47.21s5.2-35.85,14.64-47.21c8.77-10.56,20.92-15.91,36.13-15.91M163.25,0c-16.93,0-30.52,6.03-40.39,17.91-10.26,12.36-15.92,30.38-15.92,50.75s5.65,38.39,15.92,50.75c9.87,11.89,23.46,17.91,40.39,17.91s30.52-6.03,40.39-17.91c10.26-12.36,15.92-30.38,15.92-50.75s-5.65-38.39-15.92-50.75C193.78,6.03,180.19,0,163.25,0h0ZM196.56,42.98l-1.97,3.98-.04,50.79,2.01,4.26v4.15h-15.73s-7.61-7.65-7.61-7.65v-23.32s0,0,0,0c-6.21-.91-12.69-1.29-18.68.6-.25.08-.99.28-1.17.38-.03.02-.06.03-.07.07l-.05,29.92h-15.68c-.09-.21-.29-.4-.46-.56-2.2-2.13-4.37-4.31-6.5-6.5-.09-.09-.65-.56-.65-.62v-3.96s1.94-4.23,1.94-4.23l.02-50.53c-.56-1.43-1.3-2.8-1.96-4.19v-4.4h15.73c1.91,2.03,3.97,3.98,5.94,5.97.45.46.98,1.08,1.44,1.52.03.03.23.11.23.12v16.82c6.66-1.04,13.56-.32,19.92,1.82v-26.26s15.73,0,15.73,0c2.35,2.43,4.78,4.83,7.18,7.23.13.13.28.3.44.38v4.19ZM175.86,61.17s0,0,0,0c-2.08-.66-4.12-1.47-6.23-2.04-7.06-1.89-14.53-1.76-21.53.33-1.71.51-3.36,1.18-5.06,1.71v-27.28s-.07-.07-.07-.07h-10.32s0,.98,0,.98c0,.15.03.29.1.43.62,1.29,1.3,2.56,1.82,3.9v51.61c-.53,1.43-1.24,2.8-1.86,4.19-.04.09-.06.19-.06.28h0c0,.38.31.69.69.69h9.63s.07-.07.07-.07v-29.15c1.62-.51,3.22-1.1,4.87-1.54,9.22-2.45,19.1-1.9,27.95,1.61v29.15s10.44,0,10.44,0v-.89c-.68-1.44-1.43-2.85-2.01-4.33l.04-51.93,1.97-4v-.93s-10.44,0-10.44,0v27.35ZM42.67,248.35v-14.87l3.64-3.64h10.82l3.58,3.57v3.38h-4.3v-1.8l-1.49-1.49h-6.33l-1.61,1.61v11.58l1.61,1.61h6.33l1.49-1.49v-1.8h4.3v3.38l-3.58,3.57h-10.82l-3.64-3.64ZM66.56,248.35v-14.87l3.64-3.64h11.39l3.64,3.64v14.87l-3.64,3.64h-11.39l-3.64-3.64ZM79.3,248.32l1.61-1.61v-11.58l-1.61-1.61h-6.83l-1.61,1.61v11.58l1.61,1.61h6.83ZM92.18,229.84h3.99l6.58,14.3h.06l6.61-14.3h3.99v22.14h-4.14v-13.48h-.06l-5.09,10.38h-2.66l-5.06-10.38h-.06v13.48h-4.14v-22.14ZM120.68,229.84h3.99l6.58,14.3h.06l6.61-14.3h3.99v22.14h-4.14v-13.48h-.06l-5.09,10.38h-2.66l-5.06-10.38h-.06v13.48h-4.14v-22.14ZM148.86,248.35v-14.87l3.64-3.64h11.39l3.64,3.64v14.87l-3.64,3.64h-11.39l-3.64-3.64ZM161.61,248.32l1.61-1.61v-11.58l-1.61-1.61h-6.83l-1.61,1.61v11.58l1.61,1.61h6.83ZM174.48,229.84h14.17l3.8,3.8v14.55l-3.8,3.8h-14.17v-22.14ZM186.54,248.32l1.61-1.61v-11.58l-1.61-1.61h-7.75v14.8h7.75ZM199.57,229.84h4.3v22.14h-4.3v-22.14ZM216.33,233.48h-6.61v-3.64h17.52v3.64h-6.61v18.5h-4.3v-18.5ZM233.1,229.84h4.3v22.14h-4.3v-22.14ZM244.83,229.84h16.01v3.64h-11.7v5.6h10.79v3.58h-10.79v5.69h11.7v3.64h-16.01v-22.14ZM266.69,248.57v-3.16h4.24v1.87l1.04,1.04h6.55l1.08-1.08v-3.67l-1.04-1.04h-8.38l-3.42-3.42v-5.85l3.42-3.42h10l3.42,3.42v3.2h-4.24v-1.9l-1.04-1.04h-6.26l-1.04,1.04v3.26l1.04,1.04h8.38l3.42,3.42v6.23l-3.48,3.48h-10.25l-3.42-3.42Z"/>
  </g>
</svg>