<?xml version="1.0" encoding="UTF-8"?><svg id="a" xmlns="http://www.w3.org/2000/svg" viewBox="0 0 326.5 252"><g id="b"><path d="M0,165.7h8.6v17.7h18.8v-17.7h8.6v42.3h-8.6v-17.6H8.6v17.6H0v-42.3ZM61.8,165.7h6.8c.3,0,.7.2.8.5l15.6,40.6c.2.5-.2,1.1-.8,1.1h-7c-.3,0-.6-.2-.8-.5l-3.2-8.3c-.1-.3-.4-.5-.8-.5h-14.5c-.3,0-.6.2-.8.5l-3.2,8.3c-.1.3-.4.5-.8.5h-7c-.6,0-1-.6-.8-1.1l15.6-40.6c.1-.3.4-.5.8-.5h0ZM69.9,191.9c.6,0,1-.6.8-1.1l-5.5-14.9h-.1l-5.3,15c-.2.5.2,1.1.8,1.1h9.4ZM130.8,194.3v12.9c0,.4-.4.8-.8.8h-7c-.4,0-.8-.4-.8-.8v-11c0-.2,0-.4-.2-.6l-3.3-3.6c-.2-.2-.4-.3-.6-.3h-12.7c-.4,0-.8.4-.8.8v14.5c0,.4-.4.8-.8.8h-7c-.4,0-.8-.4-.8-.8v-40.6c0-.4.4-.8.8-.8h26.7c.2,0,.4,0,.6.2l6.3,6.1c.2.2.2.4.2.6v12.1c0,.2,0,.4-.2.6l-3.5,3.4c-.3.3-.3.8,0,1.2l3.8,3.9c.1.1.2.4.2.6h0ZM105.3,185.1h14.2c.2,0,.4,0,.6-.2l1.7-1.6c.2-.2.3-.4.3-.6v-7.5c0-.2,0-.4-.3-.6l-1.7-1.6c-.2-.1-.4-.2-.6-.2h-14.2c-.4,0-.8.4-.8.8v10.8c0,.4.4.8.8.8h0ZM177.7,165.7h-6.5c-.2,0-.4.1-.5.4l-11.5,29.9c-.1.3-.5.3-.6,0l-11.2-29.9c0-.2-.3-.3-.5-.3h-6.5c-.4,0-.6.4-.5.7l15.4,41c.1.3.4.5.8.5h6.1c.1,0,.2,0,.3-.2l15.8-41.4c.1-.3-.1-.7-.5-.7h0ZM190,165.7h30.5c.4,0,.8.4.8.8v5.3c0,.4-.4.8-.8.8h-21.9c-.4,0-.8.4-.8.8v9c0,.4.4.8.8.8h20c.4,0,.8.4.8.8v5.2c0,.4-.4.8-.8.8h-20c-.4,0-.8.4-.8.8v9.2c0,.4.4.8.8.8h21.9c.4,0,.8.4.8.8v5.3c0,.4-.4.8-.8.8h-30.5c-.4,0-.8-.4-.8-.8v-40.6c0-.4.4-.8.8-.8h0ZM245.7,190.5l-14.9-23.5c-.4-.6,0-1.3.7-1.3h7.5c.3,0,.6.1.7.4l10.4,16.9h.1l10.4-16.9c.1-.2.4-.4.7-.4h7.5c.6,0,1,.7.7,1.3l-14.9,23.5c0,.1-.1.3-.1.4v16.2c0,.4-.4.8-.8.8h-7c-.4,0-.8-.4-.8-.8v-16.2c0-.2,0-.3-.1-.4h0ZM276.3,172.6v-6c0-.4.4-.8.8-.8h7c.5,0,.8.4.8.8v6h0c0,0-.9,8.1-.9,8.1,0,.4-.4.7-.8.7h-5.1c-.4,0-.8-.3-.8-.7l-.9-8h0ZM292.1,201.1v-4.9c0-.4.4-.8.8-.8h6.9c.5,0,.8.4.8.8v2.4c0,.2,0,.4.3.6l1.6,1.5c.1.1.4.2.6.2h12.5c.2,0,.4,0,.6-.2l1.7-1.6c.2-.2.3-.4.3-.6v-6.3c0-.2,0-.4-.3-.6l-1.6-1.5c-.1-.1-.4-.2-.6-.2h-16.2c-.2,0-.4,0-.6-.2l-6.4-6.1c-.2-.2-.3-.4-.3-.6v-10.5c0-.2,0-.4.3-.6l6.4-6.1c.1-.1.4-.2.6-.2h19.4c.2,0,.4,0,.6.2l6.4,6.1c.2.2.3.4.3.6v4.9c0,.4-.4.8-.8.8h-6.9c-.5,0-.8-.4-.8-.8v-2.4c0-.2,0-.4-.3-.6l-1.6-1.5c-.1-.1-.4-.2-.6-.2h-11.9c-.2,0-.4,0-.6.2l-1.6,1.5c-.2.2-.3.4-.3.6v5.5c0,.2,0,.4.3.6l1.6,1.5c.1.1.4.2.6.2h16.2c.2,0,.4,0,.6.2l6.4,6.1c.2.2.3.4.3.6v11.2c0,.2,0,.4-.3.6l-6.5,6.2c-.1.1-.4.2-.6.2h-19.9c-.2,0-.4,0-.6-.2l-6.4-6.1c-.2-.2-.3-.4-.3-.6h0ZM163.2,5.5c15.2,0,27.4,5.3,36.1,15.9,9.4,11.4,14.6,28.1,14.6,47.2s-5.2,35.8-14.6,47.2c-8.8,10.6-20.9,15.9-36.1,15.9s-27.4-5.3-36.1-15.9c-9.4-11.4-14.6-28.1-14.6-47.2s5.2-35.8,14.6-47.2c8.8-10.6,20.9-15.9,36.1-15.9M163.2,0c-16.9,0-30.5,6-40.4,17.9-10.3,12.4-15.9,30.4-15.9,50.8s5.7,38.4,15.9,50.8c9.9,11.9,23.5,17.9,40.4,17.9s30.5-6,40.4-17.9c10.3-12.4,15.9-30.4,15.9-50.8s-5.6-38.4-15.9-50.8C193.8,6,180.2,0,163.2,0h0ZM196.6,43l-2,4v50.8s2,4.3,2,4.3v4.2h-15.7l-7.6-7.7v-23.3h0c-6.2-.9-12.7-1.3-18.7.6-.2,0-1,.3-1.2.4,0,0,0,0,0,0v29.9h-15.7c0-.2-.3-.4-.5-.6-2.2-2.1-4.4-4.3-6.5-6.5,0,0-.6-.6-.6-.6v-4l1.9-4.2v-50.5c-.5-1.4-1.3-2.8-1.9-4.2v-4.4h15.7c1.9,2,4,4,5.9,6,.4.5,1,1.1,1.4,1.5,0,0,.2.1.2.1v16.8c6.7-1,13.6-.3,19.9,1.8v-26.3h15.7c2.4,2.4,4.8,4.8,7.2,7.2.1.1.3.3.4.4v4.2h0ZM175.9,61.2h0c-2.1-.7-4.1-1.5-6.2-2-7.1-1.9-14.5-1.8-21.5.3-1.7.5-3.4,1.2-5.1,1.7v-27.3h0c0,0-10.3,0-10.3,0v1c0,.2,0,.3.1.4.6,1.3,1.3,2.6,1.8,3.9v51.6c-.5,1.4-1.2,2.8-1.9,4.2,0,0,0,.2,0,.3h0c0,.4.3.7.7.7h9.7v-29.2c1.6-.5,3.2-1.1,4.9-1.5,9.2-2.5,19.1-1.9,27.9,1.6v29.2h10.4v-.9c-.7-1.4-1.4-2.8-2-4.3v-51.9s2-4,2-4v-.9h-10.4v27.3h0ZM122.4,244.6v7.3h-4.3v-6.4l-1.9-2.1h-6.9v8.5h-4.3v-22.1h13.9l3.4,3.4v6.7l-2.2,2.2,2.3,2.5h0ZM109.3,240h7.6l1.1-1.1v-4.3l-1.1-1.1h-7.6v6.5ZM129.5,229.8h16v3.6h-11.7v5.6h10.8v3.6h-10.8v5.7h11.7v3.6h-16v-22.1h0ZM156.9,233.5h-6.6v-3.6h17.5v3.6h-6.6v18.5h-4.3v-18.5ZM176.8,229.8h3.9l8.1,22.1h-4.4l-1.8-4.9h-7.8l-1.8,4.9h-4.4l8.1-22.1h0ZM181.7,243.5l-2.9-8.4h0l-2.9,8.4h5.9ZM194.4,229.8h4.3v22.1h-4.3v-22.1ZM206.1,229.8h4.3v18.5h11.1v3.6h-15.4v-22.1Z"/></g></svg>