<?xml version="1.0" encoding="UTF-8"?>
<svg id="Layer_2" data-name="Layer 2" xmlns="http://www.w3.org/2000/svg" viewBox="0 0 340.25 215.77">
  <defs>
    <style>
      .cls-1 {
        fill: #c05017;
      }
    </style>
  </defs>
  <g id="Layer_1-2" data-name="Layer 1">
    <path class="cls-1" d="M170.13,5.82c15.97,0,28.74,5.62,37.95,16.71,9.92,11.94,15.38,29.55,15.38,49.6s-5.46,37.66-15.38,49.6c-9.21,11.09-21.98,16.71-37.95,16.71s-28.74-5.62-37.95-16.71c-9.92-11.94-15.38-29.55-15.38-49.6s5.46-37.66,15.38-49.6c9.21-11.09,21.98-16.71,37.95-16.71M170.13,0c-17.79,0-32.06,6.33-42.43,18.81-10.78,12.98-16.72,31.92-16.72,53.31s5.94,40.33,16.72,53.31c10.37,12.48,24.64,18.81,42.43,18.81s32.06-6.33,42.43-18.81c10.78-12.98,16.72-31.92,16.72-53.31s-5.94-40.33-16.72-53.31C202.19,6.33,187.91,0,170.13,0h0ZM205.11,45.15l-2.07,4.18-.04,53.35,2.11,4.48v4.36h-16.52s-7.99-8.03-7.99-8.03v-24.5c-6.53-.95-13.33-1.35-19.62.63-.26.08-1.04.29-1.22.4-.03.02-.06.03-.07.07l-.05,31.43h-16.47c-.1-.22-.31-.42-.48-.59-2.31-2.23-4.59-4.53-6.83-6.83-.09-.1-.68-.59-.69-.65v-4.16s2.04-4.44,2.04-4.44l.02-53.08c-.58-1.5-1.37-2.94-2.06-4.4v-4.62h16.52c2.01,2.13,4.17,4.18,6.24,6.27.48.48,1.03,1.13,1.52,1.59.03.03.24.12.24.13v17.67c7-1.1,14.24-.33,20.92,1.92v-27.58s16.52,0,16.52,0c2.47,2.55,5.02,5.07,7.54,7.59.13.13.29.32.46.4v4.41ZM183.37,64.25c-2.19-.69-4.33-1.55-6.55-2.14-7.42-1.98-15.26-1.85-22.61.35-1.79.54-3.53,1.24-5.32,1.8v-28.66s-.07-.07-.07-.07h-10.85v1.03c0,.15.03.31.1.45.65,1.36,1.37,2.69,1.91,4.09v54.21c-.55,1.5-1.3,2.94-1.95,4.4-.04.09-.06.2-.06.3h0c0,.4.33.73.73.73h10.12s.07-.07.07-.07v-30.62c1.71-.54,3.38-1.15,5.11-1.61,9.68-2.57,20.06-2,29.36,1.69v30.62s10.97,0,10.97,0v-.93c-.71-1.51-1.51-3-2.11-4.55l.04-54.55,2.07-4.2v-.98s-10.97,0-10.97,0v28.73ZM0,171.73h9.01v18.43h19.6v-18.43h9.01v44.04h-9.01v-18.31H9.01v18.31H0v-44.04ZM64.42,171.73h7.03c.35,0,.67.22.8.55l16.29,42.32c.22.56-.2,1.17-.8,1.17h-7.3c-.35,0-.67-.22-.8-.55l-3.35-8.66c-.13-.33-.45-.55-.8-.55h-15.12c-.35,0-.67.22-.8.55l-3.35,8.66c-.13.33-.45.55-.8.55h-7.3c-.6,0-1.02-.6-.8-1.17l16.29-42.32c.13-.33.45-.55.8-.55ZM72.87,198.97c.6,0,1.01-.59.81-1.15l-5.73-15.58h-.13l-5.55,15.59c-.2.56.22,1.15.81,1.15h9.81ZM136.33,201.52v13.39c0,.47-.38.86-.86.86h-7.29c-.47,0-.86-.38-.86-.86v-11.45c0-.22-.08-.43-.23-.59l-3.49-3.7c-.16-.17-.39-.27-.62-.27h-13.21c-.47,0-.86.38-.86.86v15.15c0,.47-.38.86-.86.86h-7.29c-.47,0-.86-.38-.86-.86v-42.32c0-.47.38-.86.86-.86h27.87c.22,0,.43.09.59.24l6.57,6.3c.17.16.26.39.26.62v12.61c0,.23-.09.46-.26.62l-3.62,3.49c-.34.33-.35.87-.02,1.21l3.94,4.1c.15.16.24.37.24.59ZM109.77,191.86h14.76c.22,0,.43-.08.59-.24l1.8-1.71c.17-.16.27-.39.27-.62v-7.82c0-.24-.1-.46-.27-.62l-1.8-1.71c-.16-.15-.37-.24-.59-.24h-14.76c-.47,0-.86.38-.86.86v11.24c0,.47.38.86.86.86ZM185.17,171.73h-6.77c-.23,0-.44.15-.52.37l-11.99,31.14c-.1.27-.48.27-.59,0l-11.69-31.16c-.08-.21-.28-.35-.51-.35h-6.76c-.38,0-.64.38-.51.74l16.01,42.75c.13.34.45.56.8.56h6.33c.13,0,.25-.08.29-.2l16.42-43.12c.12-.35-.14-.72-.52-.72ZM197.98,171.73h31.79c.47,0,.86.38.86.86v5.52c0,.47-.38.86-.86.86h-22.79c-.47,0-.86.38-.86.86v9.42c0,.47.38.86.86.86h20.87c.47,0,.86.38.86.86v5.39c0,.47-.38.86-.86.86h-20.87c-.47,0-.86.38-.86.86v9.61c0,.47.38.86.86.86h22.79c.47,0,.86.38.86.86v5.52c0,.47-.38.86-.86.86h-31.79c-.47,0-.86-.38-.86-.86v-42.32c0-.47.38-.86.86-.86ZM256.04,197.57l-15.52-24.52c-.36-.57.05-1.32.72-1.32h7.83c.3,0,.58.16.73.41l10.81,17.65h.13l10.81-17.65c.16-.25.43-.41.73-.41h7.83c.68,0,1.09.75.72,1.32l-15.52,24.52c-.09.14-.13.3-.13.46v16.89c0,.47-.38.86-.86.86h-7.29c-.47,0-.86-.38-.86-.86v-16.89c0-.16-.05-.32-.13-.46ZM287.97,178.85v-6.27c0-.47.38-.86.86-.86h7.29c.47,0,.86.38.86.86v6.27s0,.07,0,.1l-.97,8.38c-.05.43-.42.76-.85.76h-5.36c-.44,0-.8-.33-.85-.76l-.97-8.38s0-.07,0-.1ZM304.36,208.61v-5.07c0-.47.38-.86.86-.86h7.16c.47,0,.86.38.86.86v2.49c0,.24.1.46.27.62l1.67,1.59c.16.15.37.24.59.24h13.02c.22,0,.43-.08.59-.24l1.74-1.65c.17-.16.27-.39.27-.62v-6.56c0-.24-.1-.46-.27-.62l-1.67-1.59c-.16-.15-.37-.24-.59-.24h-16.86c-.22,0-.43-.08-.59-.24l-6.64-6.31c-.17-.16-.27-.39-.27-.62v-10.9c0-.24.1-.46.27-.62l6.64-6.31c.16-.15.37-.24.59-.24h20.24c.22,0,.43.08.59.24l6.64,6.31c.17.16.27.39.27.62v5.13c0,.47-.38.86-.86.86h-7.16c-.47,0-.86-.38-.86-.86v-2.55c0-.24-.1-.46-.27-.62l-1.67-1.59c-.16-.15-.37-.24-.59-.24h-12.43c-.22,0-.43.08-.59.24l-1.67,1.59c-.17.16-.27.39-.27.62v5.74c0,.24.1.46.27.62l1.67,1.59c.16.15.37.24.59.24h16.86c.22,0,.43.08.59.24l6.64,6.31c.17.16.27.39.27.62v11.66c0,.24-.1.46-.27.62l-6.77,6.43c-.16.15-.37.24-.59.24h-20.77c-.22,0-.43-.08-.59-.24l-6.64-6.31c-.17-.16-.27-.39-.27-.62Z"/>
  </g>
</svg>