<?xml version="1.0" encoding="UTF-8"?>
<svg id="Layer_2" data-name="Layer 2" xmlns="http://www.w3.org/2000/svg" viewBox="0 0 327.51 252.99">
  <defs>
    <style>
      .cls-1 {
        fill: #d8c7a2;
        stroke: #d8c7a2;
        stroke-miterlimit: 10;
      }
    </style>
  </defs>
  <g id="Layer_1-2" data-name="Layer 1">
    <path class="cls-1" d="M.5,166.24h8.64v17.69h18.81v-17.69h8.64v42.26h-8.64v-17.57H9.14v17.57H.5v-42.26ZM62.32,166.24h6.75c.34,0,.65.21.77.53l15.63,40.61c.21.54-.19,1.12-.77,1.12h-7.01c-.34,0-.64-.21-.77-.53l-3.22-8.31c-.12-.32-.43-.53-.77-.53h-14.51c-.34,0-.64.21-.77.53l-3.22,8.31c-.12.32-.43.53-.77.53h-7.01c-.58,0-.98-.58-.77-1.12l15.63-40.61c.12-.32.43-.53.77-.53ZM70.43,192.38c.57,0,.97-.57.77-1.11l-5.5-14.95h-.13l-5.33,14.96c-.19.54.21,1.1.78,1.1h9.41ZM131.33,194.83v12.85c0,.45-.37.82-.82.82h-7c-.45,0-.82-.37-.82-.82v-10.98c0-.21-.08-.41-.22-.56l-3.35-3.55c-.16-.16-.37-.26-.6-.26h-12.68c-.45,0-.82.37-.82.82v14.53c0,.45-.37.82-.82.82h-7c-.45,0-.82-.37-.82-.82v-40.61c0-.45.37-.82.82-.82h26.74c.21,0,.42.08.57.23l6.31,6.05c.16.16.25.37.25.59v12.1c0,.22-.09.44-.25.59l-3.48,3.35c-.33.31-.34.83-.02,1.16l3.78,3.94c.15.15.23.36.23.57ZM105.84,185.56h14.16c.21,0,.41-.08.57-.23l1.73-1.64c.16-.16.26-.37.26-.6v-7.5c0-.23-.09-.44-.26-.6l-1.73-1.64c-.15-.15-.36-.23-.57-.23h-14.16c-.45,0-.82.37-.82.82v10.79c0,.45.37.82.82.82ZM178.19,166.24h-6.5c-.22,0-.42.14-.49.35l-11.51,29.89c-.1.26-.47.26-.56,0l-11.22-29.9c-.08-.2-.27-.34-.49-.34h-6.49c-.36,0-.62.36-.49.71l15.36,41.02c.12.32.43.53.77.53h6.07c.12,0,.24-.08.28-.19l15.76-41.38c.12-.34-.14-.69-.49-.69ZM190.48,166.24h30.51c.45,0,.82.37.82.82v5.3c0,.45-.37.82-.82.82h-21.87c-.45,0-.82.37-.82.82v9.04c0,.45.37.82.82.82h20.02c.45,0,.82.37.82.82v5.18c0,.45-.37.82-.82.82h-20.02c-.45,0-.82.37-.82.82v9.22c0,.45.37.82.82.82h21.87c.45,0,.82.37.82.82v5.3c0,.45-.37.82-.82.82h-30.51c-.45,0-.82-.37-.82-.82v-40.61c0-.45.37-.82.82-.82ZM246.2,191.03l-14.9-23.53c-.35-.55.05-1.26.7-1.26h7.51c.29,0,.55.15.7.39l10.37,16.93h.13l10.37-16.93c.15-.24.42-.39.7-.39h7.51c.65,0,1.04.72.7,1.26l-14.9,23.53c-.08.13-.13.28-.13.44v16.2c0,.45-.37.82-.82.82h-7c-.45,0-.82-.37-.82-.82v-16.2c0-.16-.04-.31-.13-.44ZM276.84,173.08v-6.01c0-.45.37-.82.82-.82h7c.45,0,.82.37.82.82v6.01s0,.06,0,.09l-.93,8.04c-.05.42-.4.73-.82.73h-5.14c-.42,0-.77-.31-.82-.73l-.93-8.04s0-.06,0-.09ZM292.56,201.63v-4.86c0-.45.37-.82.82-.82h6.87c.45,0,.82.37.82.82v2.39c0,.23.09.44.26.6l1.6,1.52c.15.15.36.23.57.23h12.5c.21,0,.41-.08.57-.23l1.67-1.58c.16-.16.26-.37.26-.6v-6.3c0-.23-.09-.44-.26-.6l-1.6-1.52c-.15-.15-.36-.23-.57-.23h-16.18c-.21,0-.41-.08-.57-.23l-6.37-6.05c-.16-.16-.26-.37-.26-.6v-10.46c0-.23.09-.44.26-.6l6.37-6.05c.15-.15.36-.23.57-.23h19.42c.21,0,.41.08.57.23l6.37,6.05c.16.16.26.37.26.6v4.92c0,.45-.37.82-.82.82h-6.87c-.45,0-.82-.37-.82-.82v-2.45c0-.23-.09-.44-.26-.6l-1.6-1.52c-.15-.15-.36-.23-.57-.23h-11.93c-.21,0-.41.08-.57.23l-1.6,1.52c-.16.16-.26.37-.26.6v5.51c0,.23.09.44.26.6l1.6,1.52c.15.15.36.23.57.23h16.18c.21,0,.41.08.57.23l6.37,6.05c.16.16.26.37.26.6v11.19c0,.23-.09.44-.26.6l-6.5,6.17c-.15.15-.36.23-.57.23h-19.93c-.21,0-.41-.08-.57-.23l-6.37-6.05c-.16-.16-.26-.37-.26-.6ZM163.75,6.04c15.21,0,27.36,5.35,36.13,15.91,9.44,11.37,14.64,28.13,14.64,47.21s-5.2,35.85-14.64,47.21c-8.77,10.56-20.92,15.91-36.13,15.91s-27.36-5.35-36.13-15.91c-9.44-11.37-14.64-28.13-14.64-47.21s5.2-35.85,14.64-47.21c8.77-10.56,20.92-15.91,36.13-15.91M163.75.5c-16.93,0-30.52,6.03-40.39,17.91-10.26,12.36-15.92,30.38-15.92,50.75s5.65,38.39,15.92,50.75c9.87,11.89,23.46,17.91,40.39,17.91s30.52-6.03,40.39-17.91c10.26-12.36,15.92-30.38,15.92-50.75s-5.65-38.39-15.92-50.75C194.28,6.53,180.69.5,163.75.5h0ZM197.06,43.48l-1.97,3.98-.04,50.79,2.01,4.26v4.15h-15.73s-7.61-7.65-7.61-7.65v-23.32s0,0,0,0c-6.21-.91-12.69-1.29-18.68.6-.25.08-.99.28-1.17.38-.03.02-.06.03-.07.07l-.05,29.92h-15.68c-.09-.21-.29-.4-.46-.56-2.2-2.13-4.37-4.31-6.5-6.5-.09-.09-.65-.56-.65-.62v-3.96s1.94-4.23,1.94-4.23l.02-50.53c-.56-1.43-1.3-2.8-1.96-4.19v-4.4h15.73c1.91,2.03,3.97,3.98,5.94,5.97.45.46.98,1.08,1.44,1.52.03.03.23.11.23.12v16.82c6.66-1.04,13.56-.32,19.92,1.82v-26.26s15.73,0,15.73,0c2.35,2.43,4.78,4.83,7.18,7.23.13.13.28.3.44.38v4.19ZM176.36,61.67s0,0,0,0c-2.08-.66-4.12-1.47-6.23-2.04-7.06-1.89-14.53-1.76-21.53.33-1.71.51-3.36,1.18-5.06,1.71v-27.28s-.07-.07-.07-.07h-10.32s0,.98,0,.98c0,.15.03.29.1.43.62,1.29,1.3,2.56,1.82,3.9v51.61c-.53,1.43-1.24,2.8-1.86,4.19-.04.09-.06.19-.06.28h0c0,.38.31.69.69.69h9.63s.07-.07.07-.07v-29.15c1.62-.51,3.22-1.1,4.87-1.54,9.22-2.45,19.1-1.9,27.95,1.61v29.15s10.44,0,10.44,0v-.89c-.68-1.44-1.43-2.85-2.01-4.33l.04-51.93,1.97-4v-.93s-10.44,0-10.44,0v27.35ZM18.91,248.85v-14.87l3.64-3.64h11.01l3.57,3.57v3.38h-4.3v-1.8l-1.49-1.49h-6.52l-1.61,1.61v11.58l1.61,1.61h6.58l1.55-1.55v-3.45h-4.75v-3.67h8.92v8.7l-3.64,3.64h-10.94l-3.64-3.64ZM49.66,230.34h3.92l8.1,22.14h-4.37l-1.8-4.9h-7.78l-1.8,4.9h-4.37l8.1-22.14ZM54.56,244.04l-2.94-8.42h-.06l-2.85,8.42h5.85ZM84.45,245.15v7.34h-4.3v-6.36l-1.9-2.12h-6.9v8.48h-4.3v-22.14h13.89l3.38,3.42v6.71l-2.15,2.18,2.28,2.5ZM71.36,240.47h7.62l1.11-1.11v-4.3l-1.11-1.11h-7.62v6.52ZM91.57,230.34h14.17l3.8,3.8v14.55l-3.8,3.8h-14.17v-22.14ZM103.62,248.82l1.61-1.61v-11.58l-1.61-1.61h-7.75v14.8h7.75ZM116.5,230.34h16.01v3.64h-11.7v5.6h10.79v3.58h-10.79v5.69h11.7v3.64h-16.01v-22.14ZM138.83,230.34h3.86l9.87,15.03h.06v-15.03h4.14v22.14h-3.86l-9.87-14.99h-.06v14.99h-4.14v-22.14ZM175.49,248.85v-14.87l3.64-3.64h10.82l3.57,3.57v3.38h-4.3v-1.8l-1.49-1.49h-6.33l-1.61,1.61v11.58l1.61,1.61h6.33l1.49-1.49v-1.8h4.3v3.38l-3.57,3.57h-10.82l-3.64-3.64ZM199.69,230.34h16.01v3.64h-11.7v5.6h10.79v3.58h-10.79v5.69h11.7v3.64h-16.01v-22.14ZM222.02,230.34h3.86l9.87,15.03h.06v-15.03h4.14v22.14h-3.86l-9.87-14.99h-.06v14.99h-4.14v-22.14ZM252.26,233.98h-6.61v-3.64h17.52v3.64h-6.61v18.5h-4.3v-18.5ZM268.87,230.34h16.01v3.64h-11.7v5.6h10.79v3.58h-10.79v5.69h11.7v3.64h-16.01v-22.14ZM308.6,245.15v7.34h-4.3v-6.36l-1.9-2.12h-6.9v8.48h-4.3v-22.14h13.89l3.38,3.42v6.71l-2.15,2.18,2.28,2.5ZM295.5,240.47h7.62l1.11-1.11v-4.3l-1.11-1.11h-7.62v6.52Z"/>
  </g>
</svg>