<?xml version="1.0" encoding="UTF-8"?>
<svg id="Layer_2" data-name="Layer 2" xmlns="http://www.w3.org/2000/svg" viewBox="0 0 382.61 112.43">
  <defs>
    <style>
      .cls-1 {
        fill: #c05017;
      }
    </style>
  </defs>
  <g id="Layer_1-2" data-name="Layer 1">
    <path class="cls-1" d="M122.6,25.25h6.88v14.09h14.98v-14.09h6.88v33.65h-6.88v-13.99h-14.98v13.99h-6.88V25.25ZM171.83,25.25h5.38c.27,0,.51.17.61.42l12.45,32.34c.17.43-.15.89-.61.89h-5.58c-.27,0-.51-.17-.61-.42l-2.56-6.61c-.1-.25-.34-.42-.61-.42h-11.55c-.27,0-.51.17-.61.42l-2.56,6.61c-.1.25-.34.42-.61.42h-5.58c-.46,0-.78-.46-.61-.89l12.45-32.34c.1-.25.34-.42.61-.42ZM178.28,46.07c.46,0,.77-.45.62-.88l-4.38-11.91h-.1l-4.24,11.91c-.15.43.16.88.62.88h7.49ZM226.78,48.02v10.23c0,.36-.29.66-.66.66h-5.57c-.36,0-.66-.29-.66-.66v-8.75c0-.17-.06-.33-.18-.45l-2.66-2.83c-.12-.13-.3-.21-.48-.21h-10.09c-.36,0-.66.29-.66.66v11.57c0,.36-.29.66-.66.66h-5.57c-.36,0-.66-.29-.66-.66V25.91c0-.36.29-.66.66-.66h21.3c.17,0,.33.07.45.18l5.02,4.82c.13.12.2.29.2.47v9.63c0,.18-.07.35-.2.47l-2.77,2.67c-.26.25-.27.66-.02.93l3.01,3.14c.12.12.18.28.18.45ZM206.48,40.64h11.28c.17,0,.33-.06.45-.18l1.38-1.31c.13-.12.2-.3.2-.48v-5.98c0-.18-.07-.35-.2-.48l-1.38-1.31c-.12-.12-.28-.18-.45-.18h-11.28c-.36,0-.66.29-.66.66v8.59c0,.36.29.66.66.66ZM264.1,25.25h-5.18c-.18,0-.34.11-.39.28l-9.17,23.8c-.08.21-.37.2-.45,0l-8.93-23.81c-.06-.16-.22-.27-.39-.27h-5.17c-.29,0-.49.29-.39.56l12.23,32.67c.1.26.34.43.61.43h4.84c.1,0,.19-.06.22-.15l12.55-32.95c.09-.27-.11-.55-.39-.55ZM273.89,25.25h24.3c.36,0,.66.29.66.66v4.22c0,.36-.29.66-.66.66h-17.41c-.36,0-.66.29-.66.66v7.2c0,.36.29.66.66.66h15.95c.36,0,.66.29.66.66v4.12c0,.36-.29.66-.66.66h-15.95c-.36,0-.66.29-.66.66v7.34c0,.36.29.66.66.66h17.41c.36,0,.66.29.66.66v4.22c0,.36-.29.66-.66.66h-24.3c-.36,0-.66-.29-.66-.66V25.91c0-.36.29-.66.66-.66ZM318.26,45l-11.86-18.74c-.28-.44.04-1.01.55-1.01h5.98c.23,0,.44.12.56.31l8.26,13.49h.1l8.26-13.49c.12-.19.33-.31.56-.31h5.98c.52,0,.83.57.55,1.01l-11.86,18.74c-.07.1-.1.23-.1.35v12.9c0,.36-.29.66-.66.66h-5.57c-.36,0-.66-.29-.66-.66v-12.9c0-.12-.04-.25-.1-.35ZM342.66,30.7v-4.79c0-.36.29-.66.66-.66h5.57c.36,0,.66.29.66.66v4.79s0,.05,0,.08l-.74,6.4c-.04.33-.32.58-.65.58h-4.09c-.33,0-.61-.25-.65-.58l-.74-6.4s0-.05,0-.08ZM355.18,53.43v-3.87c0-.36.29-.66.66-.66h5.47c.36,0,.66.29.66.66v1.9c0,.18.07.35.2.48l1.28,1.21c.12.12.28.18.45.18h9.95c.17,0,.33-.06.45-.18l1.33-1.26c.13-.12.2-.3.2-.48v-5.01c0-.18-.07-.35-.2-.48l-1.28-1.21c-.12-.12-.28-.18-.45-.18h-12.89c-.17,0-.33-.06-.45-.18l-5.07-4.82c-.13-.12-.2-.3-.2-.48v-8.33c0-.18.07-.35.2-.48l5.07-4.82c.12-.12.28-.18.45-.18h15.47c.17,0,.33.06.45.18l5.07,4.82c.13.12.2.3.2.48v3.92c0,.36-.29.66-.66.66h-5.47c-.36,0-.66-.29-.66-.66v-1.95c0-.18-.07-.35-.2-.48l-1.28-1.21c-.12-.12-.28-.18-.45-.18h-9.5c-.17,0-.33.06-.45.18l-1.28,1.21c-.13.12-.2.3-.2.48v4.39c0,.18.07.35.2.48l1.28,1.21c.12.12.28.18.45.18h12.89c.17,0,.33.06.45.18l5.07,4.82c.13.12.2.3.2.48v8.91c0,.18-.07.35-.2.48l-5.17,4.91c-.12.12-.28.18-.45.18h-15.87c-.17,0-.33-.06-.45-.18l-5.07-4.82c-.13-.12-.2-.3-.2-.48ZM46.1,4.54c12.45,0,22.4,4.38,29.58,13.02,7.73,9.31,11.98,23.03,11.98,38.65s-4.26,29.35-11.98,38.65c-7.18,8.64-17.13,13.02-29.58,13.02s-22.4-4.38-29.58-13.02c-7.73-9.31-11.98-23.03-11.98-38.65s4.26-29.35,11.98-38.65c7.18-8.64,17.13-13.02,29.58-13.02M46.1,0c-13.86,0-24.99,4.93-33.07,14.66C4.63,24.78,0,39.54,0,56.21s4.63,31.43,13.03,41.55c8.08,9.73,19.21,14.66,33.07,14.66s24.99-4.93,33.07-14.66c8.4-10.12,13.03-24.87,13.03-41.55s-4.63-31.43-13.03-41.55C71.08,4.93,59.96,0,46.1,0h0ZM73.36,35.19l-1.61,3.26-.03,41.58,1.64,3.49v3.4h-12.87s-6.23-6.26-6.23-6.26v-19.09s0,0,0,0c-5.09-.74-10.39-1.05-15.29.49-.21.06-.81.23-.95.31-.02.01-.05.02-.06.05l-.04,24.49h-12.84c-.08-.17-.24-.33-.38-.46-1.8-1.74-3.58-3.53-5.32-5.32-.07-.07-.53-.46-.53-.51v-3.24s1.59-3.46,1.59-3.46l.02-41.37c-.46-1.17-1.06-2.29-1.61-3.43v-3.6h12.87c1.57,1.66,3.25,3.26,4.86,4.89.37.38.8.88,1.18,1.24.02.02.19.09.19.1v13.77c5.45-.85,11.1-.26,16.31,1.49v-21.5s12.87,0,12.87,0c1.93,1.99,3.91,3.95,5.88,5.92.1.1.23.25.36.31v3.43ZM56.42,50.07s0,0,0,0c-1.71-.54-3.37-1.21-5.1-1.67-5.78-1.54-11.89-1.44-17.62.27-1.4.42-2.75.96-4.14,1.4v-22.33s-.06-.06-.06-.06h-8.45s0,.81,0,.81c0,.12.03.24.08.35.5,1.06,1.07,2.1,1.49,3.19v42.25c-.43,1.17-1.02,2.29-1.52,3.43-.03.07-.05.15-.05.23h0c0,.31.25.57.57.57h7.88s.06-.06.06-.06v-23.86c1.33-.42,2.64-.9,3.98-1.26,7.55-2.01,15.63-1.56,22.88,1.31v23.86s8.55,0,8.55,0v-.73c-.55-1.18-1.17-2.34-1.64-3.54l.03-42.51,1.61-3.28v-.77s-8.55,0-8.55,0v22.39ZM124.02,91.1v-12.17l2.98-2.98h8.86l2.93,2.93v2.77h-3.52v-1.48l-1.22-1.22h-5.18l-1.32,1.32v9.48l1.32,1.32h5.18l1.22-1.22v-1.48h3.52v2.77l-2.93,2.93h-8.86l-2.98-2.98ZM143.57,91.1v-12.17l2.98-2.98h9.32l2.98,2.98v12.17l-2.98,2.98h-9.32l-2.98-2.98ZM154.01,91.08l1.32-1.32v-9.48l-1.32-1.32h-5.59l-1.32,1.32v9.48l1.32,1.32h5.59ZM164.55,75.96h3.26l5.39,11.71h.05l5.41-11.71h3.26v18.13h-3.39v-11.03h-.05l-4.17,8.49h-2.17l-4.14-8.49h-.05v11.03h-3.39v-18.13ZM187.88,75.96h3.26l5.39,11.71h.05l5.41-11.71h3.26v18.13h-3.39v-11.03h-.05l-4.17,8.49h-2.18l-4.14-8.49h-.05v11.03h-3.39v-18.13ZM210.95,91.1v-12.17l2.98-2.98h9.32l2.98,2.98v12.17l-2.98,2.98h-9.32l-2.98-2.98ZM221.39,91.08l1.32-1.32v-9.48l-1.32-1.32h-5.59l-1.32,1.32v9.48l1.32,1.32h5.59ZM231.93,75.96h11.6l3.11,3.11v11.91l-3.11,3.11h-11.6v-18.13ZM241.8,91.08l1.32-1.32v-9.48l-1.32-1.32h-6.34v12.12h6.34ZM252.46,75.96h3.52v18.13h-3.52v-18.13ZM266.19,78.93h-5.41v-2.98h14.35v2.98h-5.41v15.15h-3.52v-15.15ZM279.91,75.96h3.52v18.13h-3.52v-18.13ZM289.52,75.96h13.1v2.98h-9.58v4.58h8.83v2.93h-8.83v4.66h9.58v2.98h-13.1v-18.13ZM307.41,91.29v-2.59h3.47v1.53l.85.85h5.36l.88-.88v-3l-.85-.85h-6.86l-2.8-2.8v-4.79l2.8-2.8h8.18l2.8,2.8v2.62h-3.47v-1.55l-.85-.85h-5.13l-.85.85v2.67l.85.85h6.86l2.8,2.8v5.1l-2.85,2.85h-8.39l-2.8-2.8Z"/>
  </g>
</svg>