<?xml version="1.0" encoding="UTF-8"?>
<svg id="Layer_2" class="overflow-visible" xmlns="http://www.w3.org/2000/svg" version="1.1" viewBox="0 0 375.9 113.4">
  <!-- Generator: Adobe Illustrator 29.4.0, SVG Export Plug-In . SVG Version: 2.1.0 Build 152)  -->
  <defs>
    <style>
      .st0 {
        fill: #d8c7a2;
      }
    </style>
  </defs>
  <path class="st0" d="M131.3,88v5.8h-3.4v-5.1l-1.5-1.7h-5.5v6.8h-3.4v-17.6h11.1l2.7,2.7v5.3l-1.7,1.7,1.8,2h0ZM120.8,84.3h6.1l.9-.9v-3.4l-.9-.9h-6.1v5.2h0ZM137,76.2h12.8v2.9h-9.4v4.5h8.6v2.9h-8.6v4.5h9.4v2.9h-12.8v-17.6ZM158.9,79.1h-5.3v-2.9h14v2.9h-5.3v14.7h-3.4v-14.7h0ZM174.8,76.2h3.1l6.5,17.6h-3.5l-1.4-3.9h-6.2l-1.4,3.9h-3.5l6.5-17.6h0ZM178.7,87.1l-2.4-6.7h0l-2.3,6.7h4.7ZM188.9,76.2h3.4v17.6h-3.4v-17.6ZM198.3,76.2h3.4v14.7h8.9v2.9h-12.3v-17.6Z"/>
  <path class="st0" d="M46.1,6c12.3,0,22.2,4.3,29.3,12.9,7.7,9.2,11.9,22.7,11.9,38.1s-4.2,29-11.9,38.1c-7.1,8.5-17,12.9-29.3,12.9s-22.2-4.3-29.3-12.9c-7.7-9.2-11.9-22.7-11.9-38.1s4.2-29,11.9-38.1c7.1-8.5,17-12.9,29.3-12.9M46.1,1.5c-13.7,0-24.8,4.9-32.8,14.5C5,26,.4,40.5.4,57s4.6,31,12.9,41c8,9.6,19,14.5,32.8,14.5s24.8-4.9,32.8-14.5c8.3-10,12.9-24.5,12.9-41s-4.6-31-12.9-41C70.9,6.4,59.9,1.5,46.1,1.5h0ZM73.1,36.3l-1.6,3.2v41s1.6,3.4,1.6,3.4v3.4h-12.8l-6.2-6.2v-18.8h0c-5-.7-10.3-1-15.2.5-.2,0-.8.2-.9.3,0,0,0,0,0,0v24.2h-12.8c0-.2-.2-.3-.4-.5-1.8-1.7-3.5-3.5-5.3-5.3,0,0-.5-.5-.5-.5v-3.2l1.6-3.4v-40.8c-.4-1.2-1-2.3-1.6-3.4v-3.6h12.8c1.6,1.6,3.2,3.2,4.8,4.8.4.4.8.9,1.2,1.2,0,0,.2,0,.2,0v13.6c5.4-.8,11-.3,16.2,1.5v-21.2h12.8c1.9,2,3.9,3.9,5.8,5.8,0,0,.2.2.4.3v3.4h0ZM56.4,50.9h0c-1.7-.5-3.3-1.2-5.1-1.6-5.7-1.5-11.8-1.4-17.5.3-1.4.4-2.7.9-4.1,1.4v-22h0c0,0-8.4,0-8.4,0v.8c0,.1,0,.2,0,.3.5,1,1.1,2.1,1.5,3.1v41.7c-.4,1.2-1,2.3-1.5,3.4,0,0,0,.1,0,.2h0c0,.3.2.6.6.6h7.9v-23.6c1.3-.4,2.6-.9,3.9-1.2,7.5-2,15.5-1.5,22.7,1.3v23.6h8.5v-.7c-.5-1.2-1.2-2.3-1.6-3.5v-42s1.6-3.2,1.6-3.2v-.8h-8.5v22.1h0Z"/>
  <path class="st0" d="M118.2,25h6.8v13.9h14.8v-13.9h6.8v33.2h-6.8v-13.8h-14.8v13.8h-6.8V25ZM167,25h5.3c.3,0,.5.2.6.4l12.3,31.9c.2.4-.1.9-.6.9h-5.5c-.3,0-.5-.2-.6-.4l-2.5-6.5c0-.2-.3-.4-.6-.4h-11.4c-.3,0-.5.2-.6.4l-2.5,6.5c0,.2-.3.4-.6.4h-5.5c-.5,0-.8-.5-.6-.9l12.3-31.9c0-.2.3-.4.6-.4h0ZM173.4,45.5c.5,0,.8-.4.6-.9l-4.3-11.8h0l-4.2,11.8c-.1.4.2.9.6.9h7.4,0ZM221.5,47.4v10.1c0,.4-.3.7-.7.7h-5.5c-.4,0-.7-.3-.7-.7v-8.6c0-.2,0-.3-.2-.4l-2.6-2.8c-.1-.1-.3-.2-.5-.2h-10c-.4,0-.7.3-.7.7v11.4c0,.4-.3.7-.7.7h-5.5c-.4,0-.7-.3-.7-.7v-31.9c0-.4.3-.7.7-.7h21.1c.2,0,.3,0,.4.2l5,4.8c.1.1.2.3.2.5v9.5c0,.2,0,.3-.2.5l-2.7,2.6c-.3.2-.3.7,0,.9l3,3.1c.1.1.2.3.2.4h0ZM201.4,40.1h11.2c.2,0,.3,0,.4-.2l1.4-1.3c.1-.1.2-.3.2-.5v-5.9c0-.2,0-.3-.2-.5l-1.4-1.3c-.1-.1-.3-.2-.4-.2h-11.2c-.4,0-.7.3-.7.7v8.5c0,.4.3.7.7.7h0ZM258.5,25h-5.1c-.2,0-.3.1-.4.3l-9.1,23.5c0,.2-.4.2-.4,0l-8.8-23.5c0-.2-.2-.3-.4-.3h-5.1c-.3,0-.5.3-.4.6l12.1,32.2c0,.3.3.4.6.4h4.8c0,0,.2,0,.2-.1l12.4-32.5c0-.3-.1-.5-.4-.5h0ZM268.2,25h24.1c.4,0,.7.3.7.7v4.2c0,.4-.3.7-.7.7h-17.3c-.4,0-.7.3-.7.7v7.1c0,.4.3.7.7.7h15.8c.4,0,.7.3.7.7v4.1c0,.4-.3.7-.7.7h-15.8c-.4,0-.7.3-.7.7v7.2c0,.4.3.7.7.7h17.3c.4,0,.7.3.7.7v4.2c0,.4-.3.7-.7.7h-24.1c-.4,0-.7-.3-.7-.7v-32c0-.4.3-.7.7-.7h0ZM312.1,44.4l-11.8-18.5c-.3-.4,0-1,.5-1h5.9c.2,0,.4.1.6.3l8.2,13.3h0l8.2-13.3c.1-.2.3-.3.6-.3h5.9c.5,0,.8.6.5,1l-11.8,18.5c0,0,0,.2,0,.3v12.7c0,.4-.3.7-.7.7h-5.5c-.4,0-.7-.3-.7-.7v-12.7c0-.1,0-.2,0-.3h0ZM336.3,30.3v-4.7c0-.4.3-.7.7-.7h5.5c.4,0,.7.3.7.7v4.7h0c0,0-.7,6.4-.7,6.4,0,.3-.3.6-.6.6h-4.1c-.3,0-.6-.2-.6-.6l-.7-6.3h0c0,0,0,0,0,0ZM348.7,52.8v-3.8c0-.4.3-.7.7-.7h5.4c.4,0,.7.3.7.7v1.9c0,.2,0,.3.2.5l1.3,1.2c.1.1.3.2.4.2h9.9c.2,0,.3,0,.4-.2l1.3-1.2c.1-.1.2-.3.2-.5v-4.9c0-.2,0-.3-.2-.5l-1.3-1.2c-.1-.1-.3-.2-.4-.2h-12.8c-.2,0-.3,0-.4-.2l-5-4.8c-.1-.1-.2-.3-.2-.5v-8.2c0-.2,0-.3.2-.5l5-4.8c.1-.1.3-.2.4-.2h15.3c.2,0,.3,0,.4.2l5,4.8c.1.1.2.3.2.5v3.9c0,.4-.3.7-.7.7h-5.4c-.4,0-.7-.3-.7-.7v-1.9c0-.2,0-.3-.2-.5l-1.3-1.2c-.1-.1-.3-.2-.4-.2h-9.4c-.2,0-.3,0-.4.2l-1.3,1.2c-.1.1-.2.3-.2.5v4.3c0,.2,0,.3.2.5l1.3,1.2c.1.1.3.2.4.2h12.8c.2,0,.3,0,.4.2l5,4.8c.1.1.2.3.2.5v8.8c0,.2,0,.3-.2.5l-5.1,4.8c-.1.1-.3.2-.4.2h-15.7c-.2,0-.3,0-.4-.2l-5-4.8c-.1-.1-.2-.3-.2-.5Z"/>
</svg>