<?xml version="1.0" encoding="UTF-8"?>
<svg id="Layer_2" class="overflow-visible" xmlns="http://www.w3.org/2000/svg" version="1.1" viewBox="0 0 377.6 113.4">
  <!-- Generator: Adobe Illustrator 29.4.0, SVG Export Plug-In . SVG Version: 2.1.0 Build 152)  -->
  <defs>
    <style>
      .st0 {
        fill: #d8c7a2;
      }
    </style>
  </defs>
  <path class="st0" d="M118.5,91.1v-11.9l2.9-2.9h8.8l2.9,2.9v2.7h-3.5v-1.4l-1.2-1.2h-5.2l-1.3,1.3v9.3l1.3,1.3h5.3l1.2-1.2v-2.8h-3.8v-2.9h7.2v7l-2.9,2.9h-8.8l-2.9-2.9h0ZM143.2,76.3h3.1l6.5,17.7h-3.5l-1.5-3.9h-6.2l-1.5,3.9h-3.5l6.5-17.7h0ZM147.1,87.2l-2.4-6.7h0l-2.3,6.7h4.7ZM171.2,88.1v5.9h-3.5v-5.1l-1.5-1.7h-5.5v6.8h-3.5v-17.7h11.2l2.7,2.7v5.4l-1.7,1.7,1.8,2h0ZM160.6,84.4h6.1l.9-.9v-3.4l-.9-.9h-6.1v5.2h0ZM176.9,76.3h11.4l3.1,3v11.6l-3.1,3h-11.4v-17.7ZM186.5,91l1.3-1.3v-9.3l-1.3-1.3h-6.2v11.8h6.2ZM196.9,76.3h12.9v2.9h-9.4v4.5h8.7v2.9h-8.7v4.5h9.4v2.9h-12.9v-17.7ZM214.8,76.3h3.1l7.9,12h0v-12h3.3v17.7h-3.1l-7.9-12h0v12h-3.3v-17.7ZM244.3,91.1v-11.9l2.9-2.9h8.7l2.9,2.9v2.7h-3.5v-1.4l-1.2-1.2h-5.1l-1.3,1.3v9.3l1.3,1.3h5.1l1.2-1.2v-1.4h3.5v2.7l-2.9,2.9h-8.7l-2.9-2.9h0ZM263.7,76.3h12.9v2.9h-9.4v4.5h8.7v2.9h-8.7v4.5h9.4v2.9h-12.9v-17.7ZM281.6,76.3h3.1l7.9,12h0v-12h3.3v17.7h-3.1l-7.9-12h0v12h-3.3v-17.7ZM305.9,79.2h-5.3v-2.9h14.1v2.9h-5.3v14.8h-3.5v-14.8h0ZM319.3,76.3h12.9v2.9h-9.4v4.5h8.7v2.9h-8.7v4.5h9.4v2.9h-12.9v-17.7ZM351.2,88.1v5.9h-3.5v-5.1l-1.5-1.7h-5.5v6.8h-3.5v-17.7h11.2l2.7,2.7v5.4l-1.7,1.7,1.8,2h0ZM340.6,84.4h6.1l.9-.9v-3.4l-.9-.9h-6.1v5.2h0Z"/>
  <path class="st0" d="M46.5,5.8c12.4,0,22.3,4.3,29.4,12.9,7.7,9.2,11.9,22.8,11.9,38.3s-4.2,29.1-11.9,38.3c-7.1,8.6-17,12.9-29.4,12.9s-22.3-4.3-29.4-12.9c-7.7-9.2-11.9-22.8-11.9-38.3s4.2-29.1,11.9-38.3c7.1-8.6,17-12.9,29.4-12.9M46.5,1.3c-13.8,0-24.8,4.9-32.9,14.5C5.3,25.9.7,40.5.7,57s4.6,31.1,13,41.1c8,9.6,19.1,14.5,32.9,14.5s24.8-4.9,32.9-14.5c8.4-10,13-24.6,13-41.1s-4.6-31.1-13-41.1C71.4,6.2,60.3,1.3,46.5,1.3h0ZM73.6,36.2l-1.6,3.2v41.2s1.6,3.5,1.6,3.5v3.4h-12.8l-6.2-6.2v-18.9h0c-5.1-.7-10.3-1-15.2.5-.2,0-.8.2-.9.3,0,0,0,0,0,0v24.2h-12.8c0-.2-.2-.3-.4-.5-1.8-1.7-3.6-3.5-5.3-5.3,0,0-.5-.5-.5-.5v-3.2l1.6-3.4v-41c-.4-1.2-1-2.3-1.6-3.4v-3.6h12.8c1.6,1.6,3.2,3.2,4.8,4.8.4.4.8.9,1.2,1.2,0,0,.2,0,.2,0v13.6c5.4-.8,11-.3,16.2,1.5v-21.3h12.8c1.9,2,3.9,3.9,5.8,5.9,0,0,.2.2.4.3v3.4h0ZM56.8,50.9h0c-1.7-.5-3.3-1.2-5.1-1.7-5.7-1.5-11.8-1.4-17.5.3-1.4.4-2.7,1-4.1,1.4v-22.1h0c0,0-8.4,0-8.4,0v.8c0,.1,0,.2,0,.3.5,1,1.1,2.1,1.5,3.2v41.8c-.4,1.2-1,2.3-1.5,3.4,0,0,0,.1,0,.2h0c0,.3.2.6.6.6h7.9v-23.7c1.3-.4,2.6-.9,4-1.2,7.5-2,15.5-1.5,22.7,1.3v23.6h8.5v-.7c-.5-1.2-1.2-2.3-1.6-3.5v-42.1s1.6-3.2,1.6-3.2v-.8h-8.5v22.2h0Z"/>
  <path class="st0" d="M118.8,24.9h6.8v13.9h14.9v-13.9h6.8v33.3h-6.8v-13.9h-14.9v13.9h-6.8V24.9ZM167.8,24.9h5.3c.3,0,.5.2.6.4l12.4,32c.2.4-.1.9-.6.9h-5.5c-.3,0-.5-.2-.6-.4l-2.5-6.5c0-.2-.3-.4-.6-.4h-11.5c-.3,0-.5.2-.6.4l-2.5,6.5c0,.2-.3.4-.6.4h-5.5c-.5,0-.8-.5-.6-.9l12.4-32c0-.2.3-.4.6-.4h0ZM174.2,45.5c.5,0,.8-.4.6-.9l-4.4-11.8h0l-4.2,11.8c-.1.4.2.9.6.9h7.4,0ZM222.4,47.4v10.1c0,.4-.3.7-.7.7h-5.5c-.4,0-.7-.3-.7-.7v-8.7c0-.2,0-.3-.2-.4l-2.6-2.8c-.1-.1-.3-.2-.5-.2h-10c-.4,0-.7.3-.7.7v11.5c0,.4-.3.7-.7.7h-5.5c-.4,0-.7-.3-.7-.7V25.5c0-.4.3-.7.7-.7h21.2c.2,0,.3,0,.4.2l5,4.8c.1.1.2.3.2.5v9.5c0,.2,0,.3-.2.5l-2.8,2.6c-.3.2-.3.7,0,.9l3,3.1c.1.1.2.3.2.4h0ZM202.2,40.1h11.2c.2,0,.3,0,.4-.2l1.4-1.3c.1-.1.2-.3.2-.5v-5.9c0-.2,0-.3-.2-.5l-1.4-1.3c-.1-.1-.3-.2-.4-.2h-11.2c-.4,0-.7.3-.7.7v8.5c0,.4.3.7.7.7h0ZM259.5,24.9h-5.1c-.2,0-.3.1-.4.3l-9.1,23.6c0,.2-.4.2-.4,0l-8.9-23.6c0-.2-.2-.3-.4-.3h-5.1c-.3,0-.5.3-.4.6l12.2,32.3c0,.3.3.4.6.4h4.8c0,0,.2,0,.2-.1l12.5-32.6c0-.3-.1-.5-.4-.5h0ZM269.3,24.9h24.2c.4,0,.7.3.7.7v4.2c0,.4-.3.7-.7.7h-17.3c-.4,0-.7.3-.7.7v7.1c0,.4.3.7.7.7h15.9c.4,0,.7.3.7.7v4.1c0,.4-.3.7-.7.7h-15.9c-.4,0-.7.3-.7.7v7.3c0,.4.3.7.7.7h17.3c.4,0,.7.3.7.7v4.2c0,.4-.3.7-.7.7h-24.2c-.4,0-.7-.3-.7-.7V25.5c0-.4.3-.7.7-.7h0ZM313.4,44.4l-11.8-18.6c-.3-.4,0-1,.5-1h5.9c.2,0,.4.1.6.3l8.2,13.4h0l8.2-13.4c.1-.2.3-.3.6-.3h5.9c.5,0,.8.6.5,1l-11.8,18.6c0,0,0,.2,0,.3v12.8c0,.4-.3.7-.7.7h-5.5c-.4,0-.7-.3-.7-.7v-12.8c0-.1,0-.2,0-.3h0ZM337.6,30.2v-4.7c0-.4.3-.7.7-.7h5.5c.4,0,.7.3.7.7v4.7h0c0,0-.7,6.4-.7,6.4,0,.3-.3.6-.6.6h-4.1c-.3,0-.6-.2-.6-.6l-.7-6.3h0c0,0,0,0,0,0ZM350.1,52.8v-3.8c0-.4.3-.7.7-.7h5.4c.4,0,.7.3.7.7v1.9c0,.2,0,.3.2.5l1.3,1.2c.1.1.3.2.4.2h9.9c.2,0,.3,0,.4-.2l1.3-1.2c.1-.1.2-.3.2-.5v-5c0-.2,0-.3-.2-.5l-1.3-1.2c-.1-.1-.3-.2-.4-.2h-12.8c-.2,0-.3,0-.4-.2l-5-4.8c-.1-.1-.2-.3-.2-.5v-8.2c0-.2,0-.3.2-.5l5-4.8c.1-.1.3-.2.4-.2h15.4c.2,0,.3,0,.4.2l5,4.8c.1.1.2.3.2.5v3.9c0,.4-.3.7-.7.7h-5.4c-.4,0-.7-.3-.7-.7v-1.9c0-.2,0-.3-.2-.5l-1.3-1.2c-.1-.1-.3-.2-.4-.2h-9.4c-.2,0-.3,0-.4.2l-1.3,1.2c-.1.1-.2.3-.2.5v4.3c0,.2,0,.3.2.5l1.3,1.2c.1.1.3.2.4.2h12.8c.2,0,.3,0,.4.2l5,4.8c.1.1.2.3.2.5v8.8c0,.2,0,.3-.2.5l-5.1,4.9c-.1.1-.3.2-.4.2h-15.8c-.2,0-.3,0-.4-.2l-5-4.8c-.1-.1-.2-.3-.2-.5Z"/>
</svg>