<?xml version="1.0" encoding="UTF-8"?>
<svg id="Layer_2" xmlns="http://www.w3.org/2000/svg" version="1.1" viewBox="0 0 378.9 112.4">
  <!-- Generator: Adobe Illustrator 29.4.0, SVG Export Plug-In . SVG Version: 2.1.0 Build 152)  -->
  <defs>
    <style>
      .st0 {
        fill: #1b1b1b;
      }
    </style>
  </defs>
  <path class="st0" d="M118.7,23.7h6.9v14h15v-14h6.9v33.5h-6.9v-13.9h-15v13.9h-6.9s0-33.5,0-33.5ZM168,23.7h5.4c.3,0,.5.2.6.4l12.5,32.2c.2.4-.1.9-.6.9h-5.6c-.3,0-.5-.2-.6-.4l-2.6-6.6c0-.2-.3-.4-.6-.4h-11.6c-.3,0-.5.2-.6.4l-2.6,6.6c0,.2-.3.4-.6.4h-5.6c-.5,0-.8-.5-.6-.9l12.5-32.2c0-.2.3-.4.6-.4h0ZM174.4,44.4c.5,0,.8-.4.6-.9l-4.4-11.9h0l-4.2,11.9c-.2.4.2.9.6.9h7.5-.1ZM222.9,46.3v10.2c0,.4-.3.7-.7.7h-5.6c-.4,0-.7-.3-.7-.7v-8.7c0-.2,0-.3-.2-.4l-2.7-2.8c-.1,0-.3-.2-.5-.2h-10.1c-.4,0-.7.3-.7.7v11.5c0,.4-.3.7-.7.7h-5.6c-.4,0-.7-.3-.7-.7V24.3c0-.4.3-.7.7-.7h21.3c.2,0,.3,0,.5.2l5,4.8c.1.1.2.3.2.5v9.6c0,.2,0,.3-.2.5l-2.8,2.7c-.3.2-.3.7,0,.9l3,3.1c.1,0,.2.3.2.4h.3ZM202.6,39h11.3c.2,0,.3,0,.5-.2l1.4-1.3c.1,0,.2-.3.2-.5v-6c0-.2,0-.3-.2-.5l-1.4-1.3c-.1-.1-.3-.2-.5-.2h-11.3c-.4,0-.7.3-.7.7v8.6c0,.4.3.7.7.7h0ZM260.3,23.7h-5.2c-.2,0-.3.1-.4.3l-9.2,23.7c0,.2-.4.2-.5,0l-8.9-23.7c0-.2-.2-.3-.4-.3h-5.2c-.3,0-.5.3-.4.6l12.2,32.5c0,.3.3.4.6.4h5l12.6-32.8c0-.3-.1-.5-.4-.5h.2v-.2ZM270.1,23.7h24.3c.4,0,.7.3.7.7v4.2c0,.4-.3.7-.7.7h-17.4c-.4,0-.7.3-.7.7v7.2c0,.4.3.7.7.7h16c.4,0,.7.3.7.7v4.1c0,.4-.3.7-.7.7h-16c-.4,0-.7.3-.7.7v7.3c0,.4.3.7.7.7h17.4c.4,0,.7.3.7.7v4.2c0,.4-.3.7-.7.7h-24.3c-.4,0-.7-.3-.7-.7V24.3c0-.4.3-.7.7-.7h0ZM314.4,43.3l-11.9-18.7c-.3-.4,0-1,.6-1h6c.2,0,.4.1.6.3l8.3,13.4h.1l8.3-13.4c.1-.2.3-.3.6-.3h6c.5,0,.8.6.6,1l-11.9,18.7v13.2c0,.4-.3.7-.7.7h-5.6c-.4,0-.7-.3-.7-.7v-12.9s0-.2-.1-.3h-.2,0ZM338.8,29.1v-4.8c0-.4.3-.7.7-.7h5.6c.4,0,.7.3.7.7v4.8h0l-.7,6.5c0,.3-.3.6-.7.6h-4.1c-.3,0-.6-.2-.7-.6l-.7-6.4h0ZM351.4,51.7v-3.9c0-.4.3-.7.7-.7h5.5c.4,0,.7.3.7.7v1.9c0,.2,0,.3.2.5l1.3,1.2c.1,0,.3.2.5.2h10c.2,0,.3,0,.5-.2l1.3-1.3c.1,0,.2-.3.2-.5v-5c0-.2,0-.3-.2-.5l-1.3-1.2c-.1,0-.3-.2-.5-.2h-12.9c-.2,0-.3,0-.5-.2l-5.1-4.8c-.1,0-.2-.3-.2-.5v-8.3c0-.2,0-.3.2-.5l5.1-4.8c.1-.1.3-.2.5-.2h15.5c.2,0,.3,0,.5.2l5.1,4.8c.1.1.2.3.2.5v3.9c0,.4-.3.7-.7.7h-5.5c-.4,0-.7-.3-.7-.7v-1.9c0-.2,0-.3-.2-.5l-1.3-1.2c-.1-.1-.3-.2-.5-.2h-9.5c-.2,0-.3,0-.5.2l-1.3,1.2c-.1.1-.2.3-.2.5v4.4c0,.2,0,.3.2.5l1.3,1.2c.1,0,.3.2.5.2h12.9c.2,0,.3,0,.5.2l5.1,4.8c.1,0,.2.3.2.5v8.9c0,.2,0,.3-.2.5l-5.2,4.9c-.1,0-.3.2-.5.2h-15.9c-.2,0-.3,0-.5-.2l-5.1-4.8c-.1,0-.2-.3-.2-.5ZM46,4.5c12.5,0,22.4,4.4,29.6,13,7.7,9.3,12,22.9,12,38.5s-4.3,29.2-12,38.5c-7.2,8.6-17.1,13-29.6,13s-22.4-4.4-29.6-13c-7.7-9.3-12-22.9-12-38.5s4.3-29.2,12-38.5c7.2-8.6,17.1-13,29.6-13M46,0c-13.9,0-25,4.9-33.1,14.6C4.5,24.7,0,39.4,0,56s4.6,31.3,13,41.4c8.1,9.7,19.2,14.6,33.1,14.6s25-4.9,33.1-14.6c8.4-10.1,13-24.8,13-41.4s-4.6-31.3-13-41.4C70.9,4.9,59.8,0,46,0h0ZM73.2,35.1l-1.6,3.2v41.4l1.6,3.5v3.4h-12.9l-6.2-6.2v-19h0c-5.1-.7-10.4-1-15.3.5-.2,0-.8.2-1,.3h0v24.4h-12.9c0-.2-.2-.3-.4-.5-1.8-1.7-3.6-3.5-5.3-5.3l-.5-.5v-3.2l1.6-3.4v-41.2c-.4-1.2-1-2.3-1.6-3.4v-3.6h12.9c1.6,1.7,3.3,3.2,4.9,4.9.4.4.8.9,1.2,1.2h.2v13.7c5.5-.8,11.1-.3,16.3,1.5v-21.4h12.9c1.9,2,3.9,3.9,5.9,5.9,0,0,.2.2.4.3v3.4h-.2ZM56.3,49.9h0c-1.7-.5-3.4-1.2-5.1-1.7-5.8-1.5-11.9-1.4-17.6.3-1.4.4-2.8,1-4.1,1.4v-22.2h-8.5v1.1c.5,1.1,1.1,2.1,1.5,3.2v42.1c-.4,1.2-1,2.3-1.5,3.4v.2h0c0,.3.3.6.6.6h7.9v-23.8c1.3-.4,2.6-.9,4-1.3,7.6-2,15.6-1.6,22.9,1.3v23.8h8.6v-.7c-.6-1.2-1.2-2.3-1.6-3.5V31.6l1.6-3.3v-.8h-8.6v22.3h-.1ZM118.1,90.9v-2.6h3.5v1.5l.9.8h5.4l.9-.9v-3l-.9-.8h-6.9l-2.8-2.8v-4.8l2.8-2.8h8.2l2.8,2.8v2.6h-3.5v-1.5l-.9-.8h-5.1l-.9.8v2.7l.9.8h6.9l2.8,2.8v5.1l-2.9,2.8h-8.4l-2.8-2.8h0ZM137.5,75.7h13.1v3h-9.6v4.6h8.8v2.9h-8.8v4.6h9.6v3h-13.1v-18.1ZM155.8,75.7h13.1v3h-9.6v4.6h8.8v2.9h-8.8v4.6h9.6v3h-13.1v-18.1ZM174.1,75.7h11.6l3.1,3.1v11.9l-3.1,3.1h-11.6v-18.1ZM184,90.7l1.3-1.3v-9.4l-1.3-1.3h-6.3v12.1h6.3Z"/>
</svg>