<?xml version="1.0" encoding="UTF-8"?>
<svg id="Layer_2" class="overflow-visible" xmlns="http://www.w3.org/2000/svg" version="1.1" viewBox="0 0 376.6 112.4">
  <!-- Generator: Adobe Illustrator 29.4.0, SVG Export Plug-In . SVG Version: 2.1.0 Build 152)  -->
  <defs>
    <style>
      .st0 {
        fill: #c05017;
      }
    </style>
  </defs>
  <path class="st0" d="M117.7,90.7v-12l2.9-2.9h8.8l2.9,2.9v2.7h-3.5v-1.5l-1.2-1.2h-5.2l-1.3,1.3v9.3l1.3,1.3h5.3l1.2-1.2v-2.8h-3.8v-2.9h7.2v7l-2.9,2.9h-8.8l-2.9-2.9h0ZM142.4,75.8h3.2l6.5,17.8h-3.5l-1.5-3.9h-6.3l-1.5,3.9h-3.5l6.5-17.8h0ZM146.3,86.8l-2.4-6.8h0l-2.3,6.8h4.7ZM170.4,87.7v5.9h-3.5v-5.1l-1.5-1.7h-5.5v6.8h-3.5v-17.8h11.2l2.7,2.8v5.4l-1.7,1.8,1.8,2h0ZM159.8,83.9h6.1l.9-.9v-3.5l-.9-.9h-6.1v5.2h0ZM176.1,75.8h11.4l3.1,3.1v11.7l-3.1,3.1h-11.4v-17.8ZM185.8,90.6l1.3-1.3v-9.3l-1.3-1.3h-6.2v11.9h6.2ZM196.1,75.8h12.9v2.9h-9.4v4.5h8.7v2.9h-8.7v4.6h9.4v2.9h-12.9v-17.8ZM214,75.8h3.1l7.9,12.1h0v-12.1h3.3v17.8h-3.1l-7.9-12.1h0v12.1h-3.3v-17.8ZM243.5,90.7v-12l2.9-2.9h8.7l2.9,2.9v2.7h-3.5v-1.5l-1.2-1.2h-5.1l-1.3,1.3v9.3l1.3,1.3h5.1l1.2-1.2v-1.5h3.5v2.7l-2.9,2.9h-8.7l-2.9-2.9h0ZM262.9,75.8h12.9v2.9h-9.4v4.5h8.7v2.9h-8.7v4.6h9.4v2.9h-12.9v-17.8ZM280.9,75.8h3.1l7.9,12.1h0v-12.1h3.3v17.8h-3.1l-7.9-12.1h0v12.1h-3.3v-17.8ZM305.2,78.7h-5.3v-2.9h14.1v2.9h-5.3v14.9h-3.5v-14.9h0ZM318.5,75.8h12.9v2.9h-9.4v4.5h8.7v2.9h-8.7v4.6h9.4v2.9h-12.9v-17.8ZM350.4,87.7v5.9h-3.5v-5.1l-1.5-1.7h-5.5v6.8h-3.5v-17.8h11.2l2.7,2.8v5.4l-1.7,1.8,1.8,2h0ZM339.9,83.9h6.1l.9-.9v-3.5l-.9-.9h-6.1v5.2h0Z"/>
  <path class="st0" d="M45.7,4.9c12.4,0,22.3,4.4,29.4,13,7.7,9.3,11.9,23,11.9,38.5s-4.2,29.3-11.9,38.5c-7.1,8.6-17,13-29.4,13s-22.3-4.4-29.4-13c-7.7-9.3-11.9-23-11.9-38.5s4.2-29.3,11.9-38.5c7.1-8.6,17-13,29.4-13M45.7.3C31.9.3,20.8,5.3,12.8,15,4.4,25-.2,39.8-.2,56.4s4.6,31.3,13,41.4c8,9.7,19.1,14.6,32.9,14.6s24.9-4.9,32.9-14.6c8.4-10.1,13-24.8,13-41.4s-4.6-31.3-13-41.4C70.5,5.3,59.5.3,45.7.3h0ZM72.8,35.4l-1.6,3.2v41.4s1.6,3.5,1.6,3.5v3.4h-12.8l-6.2-6.2v-19h0c-5.1-.7-10.3-1-15.2.5-.2,0-.8.2-.9.3,0,0,0,0,0,0v24.4h-12.8c0-.2-.2-.3-.4-.5-1.8-1.7-3.6-3.5-5.3-5.3,0,0-.5-.5-.5-.5v-3.2l1.6-3.4v-41.2c-.4-1.2-1-2.3-1.6-3.4v-3.6h12.8c1.6,1.7,3.2,3.2,4.8,4.9.4.4.8.9,1.2,1.2,0,0,.2,0,.2,0v13.7c5.4-.8,11-.3,16.2,1.5v-21.4h12.8c1.9,2,3.9,3.9,5.8,5.9,0,0,.2.2.4.3v3.4h0ZM55.9,50.3h0c-1.7-.5-3.4-1.2-5.1-1.7-5.7-1.5-11.8-1.4-17.5.3-1.4.4-2.7,1-4.1,1.4v-22.3h0c0,0-8.4,0-8.4,0v.8c0,.1,0,.2,0,.3.5,1.1,1.1,2.1,1.5,3.2v42.1c-.4,1.2-1,2.3-1.5,3.4,0,0,0,.1,0,.2h0c0,.3.2.6.6.6h7.9v-23.8c1.3-.4,2.6-.9,4-1.3,7.5-2,15.5-1.6,22.8,1.3v23.8h8.5v-.7c-.5-1.2-1.2-2.3-1.6-3.5V32s1.6-3.3,1.6-3.3v-.8h-8.5v22.3h0Z"/>
  <path class="st0" d="M118,24h6.8v14h14.9v-14h6.8v33.5h-6.8v-13.9h-14.9v13.9h-6.8V24ZM167,24h5.4c.3,0,.5.2.6.4l12.4,32.2c.2.4-.1.9-.6.9h-5.5c-.3,0-.5-.2-.6-.4l-2.5-6.6c0-.2-.3-.4-.6-.4h-11.5c-.3,0-.5.2-.6.4l-2.5,6.6c0,.2-.3.4-.6.4h-5.5c-.5,0-.8-.5-.6-.9l12.4-32.2c0-.2.3-.4.6-.4h0ZM173.4,44.8c.5,0,.8-.4.6-.9l-4.4-11.9h0l-4.2,11.9c-.1.4.2.9.6.9h7.4,0ZM221.6,46.7v10.2c0,.4-.3.7-.7.7h-5.5c-.4,0-.7-.3-.7-.7v-8.7c0-.2,0-.3-.2-.4l-2.6-2.8c-.1-.1-.3-.2-.5-.2h-10c-.4,0-.7.3-.7.7v11.5c0,.4-.3.7-.7.7h-5.5c-.4,0-.7-.3-.7-.7V24.7c0-.4.3-.7.7-.7h21.2c.2,0,.3,0,.4.2l5,4.8c.1.1.2.3.2.5v9.6c0,.2,0,.3-.2.5l-2.8,2.7c-.3.2-.3.7,0,.9l3,3.1c.1.1.2.3.2.4h0ZM201.5,39.3h11.2c.2,0,.3,0,.4-.2l1.4-1.3c.1-.1.2-.3.2-.5v-6c0-.2,0-.3-.2-.5l-1.4-1.3c-.1-.1-.3-.2-.4-.2h-11.2c-.4,0-.7.3-.7.7v8.6c0,.4.3.7.7.7h0ZM258.8,24h-5.2c-.2,0-.3.1-.4.3l-9.1,23.7c0,.2-.4.2-.4,0l-8.9-23.7c0-.2-.2-.3-.4-.3h-5.1c-.3,0-.5.3-.4.6l12.2,32.6c0,.3.3.4.6.4h4.8c0,0,.2,0,.2-.1l12.5-32.8c0-.3-.1-.5-.4-.5h0ZM268.5,24h24.2c.4,0,.7.3.7.7v4.2c0,.4-.3.7-.7.7h-17.3c-.4,0-.7.3-.7.7v7.2c0,.4.3.7.7.7h15.9c.4,0,.7.3.7.7v4.1c0,.4-.3.7-.7.7h-15.9c-.4,0-.7.3-.7.7v7.3c0,.4.3.7.7.7h17.3c.4,0,.7.3.7.7v4.2c0,.4-.3.7-.7.7h-24.2c-.4,0-.7-.3-.7-.7V24.7c0-.4.3-.7.7-.7h0ZM312.6,43.7l-11.8-18.7c-.3-.4,0-1,.5-1h5.9c.2,0,.4.1.6.3l8.2,13.4h0l8.2-13.4c.1-.2.3-.3.6-.3h5.9c.5,0,.8.6.5,1l-11.8,18.7c0,0,0,.2,0,.3v12.9c0,.4-.3.7-.7.7h-5.5c-.4,0-.7-.3-.7-.7v-12.9c0-.1,0-.2,0-.3h0ZM336.9,29.4v-4.8c0-.4.3-.7.7-.7h5.5c.4,0,.7.3.7.7v4.8h0c0,0-.7,6.5-.7,6.5,0,.3-.3.6-.6.6h-4.1c-.3,0-.6-.2-.6-.6l-.7-6.4h0c0,0,0,0,0,0ZM349.3,52.1v-3.9c0-.4.3-.7.7-.7h5.4c.4,0,.7.3.7.7v1.9c0,.2,0,.3.2.5l1.3,1.2c.1.1.3.2.4.2h9.9c.2,0,.3,0,.4-.2l1.3-1.3c.1-.1.2-.3.2-.5v-5c0-.2,0-.3-.2-.5l-1.3-1.2c-.1-.1-.3-.2-.4-.2h-12.8c-.2,0-.3,0-.4-.2l-5-4.8c-.1-.1-.2-.3-.2-.5v-8.3c0-.2,0-.3.2-.5l5-4.8c.1-.1.3-.2.4-.2h15.4c.2,0,.3,0,.4.2l5,4.8c.1.1.2.3.2.5v3.9c0,.4-.3.7-.7.7h-5.4c-.4,0-.7-.3-.7-.7v-1.9c0-.2,0-.3-.2-.5l-1.3-1.2c-.1-.1-.3-.2-.4-.2h-9.4c-.2,0-.3,0-.4.2l-1.3,1.2c-.1.1-.2.3-.2.5v4.4c0,.2,0,.3.2.5l1.3,1.2c.1.1.3.2.4.2h12.8c.2,0,.3,0,.4.2l5,4.8c.1.1.2.3.2.5v8.9c0,.2,0,.3-.2.5l-5.1,4.9c-.1.1-.3.2-.4.2h-15.8c-.2,0-.3,0-.4-.2l-5-4.8c-.1-.1-.2-.3-.2-.5Z"/>
</svg>