<?xml version="1.0" encoding="UTF-8"?>
<svg id="Layer_2" xmlns="http://www.w3.org/2000/svg" version="1.1" viewBox="0 0 382.6 112.4">
  <!-- Generator: Adobe Illustrator 29.4.0, SVG Export Plug-In . SVG Version: 2.1.0 Build 152)  -->
  <defs>
    <style>
      .st0 {
        fill: #c05017;
      }
    </style>
  </defs>
  <path class="st0" d="M119.6,90.6v-12.1l3-3h8.8l2.9,2.9v2.7h-3.5v-1.5l-1.2-1.2h-5.2l-1.3,1.3v9.4l1.3,1.3h5.2l1.2-1.2v-1.5h3.5v2.7l-2.9,2.9h-8.8l-3-3h0ZM139.1,90.6v-12.1l3-3h9.3l3,3v12.1l-3,3h-9.3l-3-3h0ZM149.5,90.6l1.3-1.3v-9.4l-1.3-1.3h-5.6l-1.3,1.3v9.4l1.3,1.3h5.6ZM160,75.6h3.3l5.4,11.6h0l5.4-11.6h3.3v18h-3.4v-10.9h0l-4.2,8.4h-2.2l-4.1-8.4h0v10.9h-3.4v-18h0ZM183.3,75.6h3.3l5.4,11.6h0l5.4-11.6h3.3v18h-3.4v-10.9h0l-4.2,8.4h-2.2l-4.1-8.4h0v10.9h-3.4v-18ZM206.3,90.6v-12.1l3-3h9.3l3,3v12.1l-3,3h-9.3l-3-3ZM216.7,90.6l1.3-1.3v-9.4l-1.3-1.3h-5.6l-1.3,1.3v9.4l1.3,1.3h5.6ZM227.2,75.6h11.6l3.1,3.1v11.8l-3.1,3.1h-11.6v-18ZM237,90.6l1.3-1.3v-9.4l-1.3-1.3h-6.3v12h6.3ZM247.6,75.6h3.5v18h-3.5v-18ZM261.3,78.5h-5.4v-3h14.3v3h-5.4v15h-3.5v-15h0ZM275,75.6h3.5v18h-3.5v-18ZM284.6,75.6h13.1v3h-9.6v4.5h8.8v2.9h-8.8v4.6h9.6v3h-13.1v-18ZM302.4,90.8v-2.6h3.5v1.5l.8.8h5.3l.9-.9v-3l-.8-.8h-6.8l-2.8-2.8v-4.8l2.8-2.8h8.2l2.8,2.8v2.6h-3.5v-1.5l-.8-.8h-5.1l-.8.8v2.6l.8.8h6.8l2.8,2.8v5.1l-2.8,2.8h-8.4l-2.8-2.8h0Z"/>
  <path class="st0" d="M119.9,23.3h7v14.2h15.1v-14.2h7v33.9h-7v-14.1h-15.1v14.1h-7V23.3ZM169.7,23.3h5.4c.3,0,.5.2.6.4l12.6,32.5c.2.4-.2.9-.6.9h-5.6c-.3,0-.5-.2-.6-.4l-2.6-6.7c-.1-.3-.3-.4-.6-.4h-11.7c-.3,0-.5.2-.6.4l-2.6,6.7c-.1.3-.3.4-.6.4h-5.6c-.5,0-.8-.5-.6-.9l12.6-32.5c.1-.3.3-.4.6-.4h0ZM176.2,44.3c.5,0,.8-.5.6-.9l-4.4-12h-.1l-4.3,12c-.2.4.2.9.6.9h7.6,0ZM225.2,46.2v10.3c0,.4-.3.7-.7.7h-5.6c-.4,0-.7-.3-.7-.7v-8.8c0-.2,0-.3-.2-.5l-2.7-2.8c-.1-.1-.3-.2-.5-.2h-10.2c-.4,0-.7.3-.7.7v11.6c0,.4-.3.7-.7.7h-5.6c-.4,0-.7-.3-.7-.7V24c0-.4.3-.7.7-.7h21.5c.2,0,.3,0,.5.2l5.1,4.8c.1.1.2.3.2.5v9.7c0,.2,0,.4-.2.5l-2.8,2.7c-.3.3-.3.7,0,.9l3,3.2c.1.1.2.3.2.5h0ZM204.7,38.8h11.4c.2,0,.3,0,.5-.2l1.4-1.3c.1-.1.2-.3.2-.5v-6c0-.2,0-.4-.2-.5l-1.4-1.3c-.1-.1-.3-.2-.5-.2h-11.4c-.4,0-.7.3-.7.7v8.6c0,.4.3.7.7.7h0ZM262.9,23.3h-5.2c-.2,0-.3.1-.4.3l-9.3,23.9c0,.2-.4.2-.5,0l-9-24c0-.2-.2-.3-.4-.3h-5.2c-.3,0-.5.3-.4.6l12.4,32.9c.1.3.3.4.6.4h4.9c.1,0,.2,0,.2-.2l12.7-33.2c0-.3-.1-.6-.4-.6h0ZM272.8,23.3h24.6c.4,0,.7.3.7.7v4.2c0,.4-.3.7-.7.7h-17.6c-.4,0-.7.3-.7.7v7.2c0,.4.3.7.7.7h16.1c.4,0,.7.3.7.7v4.1c0,.4-.3.7-.7.7h-16.1c-.4,0-.7.3-.7.7v7.4c0,.4.3.7.7.7h17.6c.4,0,.7.3.7.7v4.2c0,.4-.3.7-.7.7h-24.6c-.4,0-.7-.3-.7-.7V24c0-.4.3-.7.7-.7h0ZM317.6,43.2l-12-18.9c-.3-.4,0-1,.6-1h6c.2,0,.4.1.6.3l8.3,13.6h.1l8.3-13.6c.1-.2.3-.3.6-.3h6c.5,0,.8.6.6,1l-12,18.9c0,.1-.1.2-.1.4v13c0,.4-.3.7-.7.7h-5.6c-.4,0-.7-.3-.7-.7v-13c0-.1,0-.3-.1-.4h0ZM342.3,28.8v-4.8c0-.4.3-.7.7-.7h5.6c.4,0,.7.3.7.7v4.8h0c0,0-.7,6.5-.7,6.5,0,.3-.3.6-.7.6h-4.1c-.3,0-.6-.3-.7-.6l-.7-6.4h0c0,0,0,0,0,0ZM354.9,51.7v-3.9c0-.4.3-.7.7-.7h5.5c.4,0,.7.3.7.7v1.9c0,.2,0,.4.2.5l1.3,1.2c.1.1.3.2.5.2h10.1c.2,0,.3,0,.5-.2l1.3-1.3c.1-.1.2-.3.2-.5v-5c0-.2,0-.4-.2-.5l-1.3-1.2c-.1-.1-.3-.2-.5-.2h-13c-.2,0-.3,0-.5-.2l-5.1-4.8c-.1-.1-.2-.3-.2-.5v-8.4c0-.2,0-.4.2-.5l5.1-4.8c.1-.1.3-.2.5-.2h15.6c.2,0,.3,0,.5.2l5.1,4.8c.1.1.2.3.2.5v3.9c0,.4-.3.7-.7.7h-5.5c-.4,0-.7-.3-.7-.7v-2c0-.2,0-.4-.2-.5l-1.3-1.2c-.1-.1-.3-.2-.5-.2h-9.6c-.2,0-.3,0-.5.2l-1.3,1.2c-.1.1-.2.3-.2.5v4.4c0,.2,0,.4.2.5l1.3,1.2c.1.1.3.2.5.2h13c.2,0,.3,0,.5.2l5.1,4.8c.1.1.2.3.2.5v9c0,.2,0,.4-.2.5l-5.2,4.9c-.1.1-.3.2-.5.2h-16c-.2,0-.3,0-.5-.2l-5.1-4.8c-.1-.1-.2-.3-.2-.5Z"/>
  <path class="st0" d="M46.4,4c12.6,0,22.6,4.4,29.9,13.1,7.8,9.4,12.1,23.2,12.1,38.9s-4.3,29.5-12.1,38.9c-7.3,8.7-17.3,13.1-29.9,13.1s-22.6-4.4-29.9-13.1c-7.8-9.4-12.1-23.2-12.1-38.9s4.3-29.5,12.1-38.9c7.3-8.7,17.3-13.1,29.9-13.1M46.4-.6c-14,0-25.2,5-33.4,14.8C4.5,24.4-.2,39.2-.2,56s4.7,31.6,13.2,41.8c8.2,9.8,19.4,14.8,33.4,14.8s25.2-5,33.4-14.8c8.5-10.2,13.2-25,13.2-41.8s-4.7-31.6-13.2-41.8C71.7,4.4,60.4-.6,46.4-.6h0ZM74,34.8l-1.6,3.3v41.8s1.6,3.5,1.6,3.5v3.4h-13l-6.3-6.3v-19.2h0c-5.1-.7-10.5-1.1-15.4.5-.2,0-.8.2-1,.3,0,0,0,0,0,0v24.6h-13c0-.2-.2-.3-.4-.5-1.8-1.8-3.6-3.6-5.4-5.4,0,0-.5-.5-.5-.5v-3.3l1.6-3.5v-41.6c-.4-1.2-1.1-2.3-1.6-3.5v-3.6h13c1.6,1.7,3.3,3.3,4.9,4.9.4.4.8.9,1.2,1.2,0,0,.2,0,.2.1v13.9c5.5-.9,11.2-.3,16.5,1.5v-21.6h13c1.9,2,4,4,5.9,6,.1.1.2.3.4.3v3.5h0ZM56.8,49.8h0c-1.7-.5-3.4-1.2-5.2-1.7-5.8-1.5-12-1.4-17.8.3-1.4.4-2.8,1-4.2,1.4v-22.5h0c0,0-8.5,0-8.5,0v.8c0,.1,0,.2,0,.4.5,1.1,1.1,2.1,1.5,3.2v42.5c-.4,1.2-1,2.3-1.5,3.5,0,0,0,.2,0,.2h0c0,.3.3.6.6.6h8v-24.1c1.3-.4,2.7-.9,4-1.3,7.6-2,15.8-1.6,23.1,1.3v24h8.6v-.7c-.6-1.2-1.2-2.4-1.7-3.6V31.4s1.7-3.3,1.7-3.3v-.8h-8.6v22.5h0Z"/>
</svg>