<?xml version="1.0" encoding="UTF-8"?>
<svg id="Layer_2" class="overflow-visible" xmlns="http://www.w3.org/2000/svg" version="1.1" viewBox="0 0 380 111">
  <!-- Generator: Adobe Illustrator 29.4.0, SVG Export Plug-In . SVG Version: 2.1.0 Build 152)  -->
  <defs>
    <style>
      .st0 {
        fill: #c05017;
      }
    </style>
  </defs>
  <path class="st0" d="M193.6,86.5h0l-5.4-11.6h-3.2v17.9h3.4v-10.9h0l4.1,8.4h2.2l4.1-8.4h0v10.9h3.4v-17.9h-3.2l-5.4,11.6ZM210.9,74.9l-3,2.9v12l3,2.9h9.3l3-2.9v-12l-3-2.9h-9.3ZM219.6,88.6l-1.3,1.3h-5.6l-1.3-1.3v-9.4l1.3-1.3h5.6l1.3,1.3v9.4ZM124.5,74.9l-3,2.9v12l3,2.9h8.8l2.9-2.9v-2.7h-3.5v1.5l-1.2,1.2h-5.1l-1.3-1.3v-9.4l1.3-1.3h5.1l1.2,1.2v1.5h3.5v-2.7l-2.9-2.9h-8.8ZM228.8,74.9v17.9h11.5l3.1-3.1v-11.8l-3.1-3.1h-11.5ZM239.9,88.6l-1.3,1.3h-6.3v-12h6.3l1.3,1.3v9.4ZM308.1,82.2l-.8-.8v-2.6l.8-.8h5.1l.8.8v1.5h3.4v-2.6l-2.8-2.8h-8.1l-2.8,2.8v4.7l2.8,2.8h6.8l.8.8v3l-.9.9h-5.3l-.8-.8v-1.5h-3.4v2.6h0s2.8,2.8,2.8,2.8h8.3l2.8-2.8v-5l-2.8-2.8h-6.8ZM143.9,74.9l-3,2.9v12l3,2.9h9.3l3-2.9v-12l-3-2.9h-9.3ZM152.6,88.6l-1.3,1.3h-5.6l-1.3-1.3v-9.4l1.3-1.3h5.6l1.3,1.3v9.4ZM286,92.9h13v-2.9h-9.5v-4.6h8.8v-2.9h-8.8v-4.5h9.5v-2.9h-13v17.9ZM249.2,92.9h3.5v-17.9h-3.5v17.9ZM257.4,77.9h5.4v15h3.5v-15h5.4v-2.9h-14.3v2.9ZM170.4,86.5h0l-5.4-11.6h-3.2v17.9h3.4v-10.9h0l4.1,8.4h2.2l4.1-8.4h0v10.9h3.4v-17.9h-3.2l-5.4,11.6ZM276.4,92.9h3.5v-17.9h-3.5v17.9ZM45.7,0C32,0,20.9,4.9,12.9,14.5,4.6,24.5,0,39,0,55.5s4.6,31,12.9,41c8,9.6,19.1,14.5,32.8,14.5s24.8-4.9,32.8-14.5c8.3-10,12.9-24.5,12.9-41s-4.6-31-12.9-41C70.5,4.9,59.5,0,45.7,0ZM75.1,93.6c-7.1,8.5-17,12.9-29.3,12.9s-22.2-4.3-29.3-12.9c-7.7-9.2-11.9-22.7-11.9-38.1s4.2-29,11.9-38.1c7.1-8.5,17-12.9,29.3-12.9s22.2,4.3,29.3,12.9c7.7,9.2,11.9,22.7,11.9,38.1s-4.2,29-11.9,38.1ZM128.4,44.2h14.9v13.8h6.8V24.8h-6.8v13.9h-14.9v-13.9h-6.8v33.3h6.8v-13.8ZM72.4,31c-2-1.9-3.9-3.9-5.8-5.8h-12.8v21.2c-5.2-1.7-10.8-2.3-16.2-1.5v-13.6s-.2,0-.2,0c-.4-.4-.8-.8-1.2-1.2-1.6-1.6-3.3-3.2-4.8-4.8h-12.8v3.6c.5,1.1,1.1,2.2,1.6,3.4v40.8s-1.6,3.4-1.6,3.4v3.2s.5.4.5.5c1.7,1.8,3.5,3.5,5.3,5.3.1.1.3.3.4.5h12.7v-24.2s0,0,0,0c.1,0,.7-.2.9-.3,4.9-1.5,10.1-1.2,15.2-.5v18.8l6.2,6.2h12.8v-3.4l-1.6-3.4v-41s1.6-3.2,1.6-3.2h0v-3.4c-.1,0-.3-.2-.4-.3ZM64.4,28.1l-1.6,3.2v42c.4,1.2,1.1,2.3,1.6,3.5v.7h-8.5v-23.6c-7.2-2.8-15.2-3.3-22.7-1.3-1.3.4-2.6.8-3.9,1.2v23.6h0c0,0-7.8,0-7.8,0-.3,0-.6-.3-.6-.6s0-.2,0-.2c.5-1.1,1.1-2.2,1.5-3.4V31.6c-.4-1.1-1-2.1-1.5-3.1,0-.1,0-.2,0-.3v-.8h8.4v22.1c1.4-.4,2.7-1,4.1-1.4,5.7-1.7,11.7-1.8,17.5-.3,1.7.5,3.4,1.1,5.1,1.6h0v-22.1h8.5v.8ZM334.3,24.8h-5.9c-.2,0-.4.1-.6.3l-8.2,13.3h0l-8.2-13.3c-.1-.2-.3-.3-.6-.3h-5.9c-.5,0-.8.6-.5,1l11.8,18.5h0c0,0,0,.2,0,.3v12.8c0,.4.3.7.7.7h5.5c.4,0,.7-.3.7-.7v-12.8c0-.1,0-.2,0-.3l11.8-18.5c.3-.4,0-1-.5-1ZM346.5,24.8h-5.5c-.4,0-.7.3-.7.7v4.7h0c0,0,.7,6.4.7,6.4,0,.3.3.6.6.6h4.1c.3,0,.6-.2.6-.6l.7-6.3h0v-4.8c0-.4-.3-.7-.7-.7ZM296.8,57.5v-4.2c0-.4-.3-.7-.7-.7h-17.3c-.4,0-.7-.3-.7-.7v-7.3c0-.4.3-.7.7-.7h15.9c.4,0,.7-.3.7-.7v-4.1c0-.4-.3-.7-.7-.7h-15.9c-.4,0-.7-.3-.7-.7v-7.1c0-.4.3-.7.7-.7h17.3c.4,0,.7-.3.7-.7v-4.2c0-.4-.3-.7-.7-.7h-24.2c-.4,0-.7.3-.7.7v32c0,.4.3.7.7.7h24.2c.4,0,.7-.3.7-.7ZM188.8,57.2l-12.4-32c0-.2-.3-.4-.6-.4h-5.3c-.3,0-.5.2-.6.4l-12.4,32c-.2.4.1.9.6.9h5.5c.3,0,.5-.2.6-.4l2.5-6.5c0-.2.3-.4.6-.4h11.5c.3,0,.5.2.6.4l2.5,6.5c0,.2.3.4.6.4h5.5c.5,0,.8-.5.6-.9ZM176.9,45.4h-7.4c-.5,0-.8-.4-.6-.9l4.2-11.8h0l4.4,11.8c.1.4-.2.9-.6.9ZM379.8,43.3l-5-4.8c-.1-.1-.3-.2-.4-.2h-12.8c-.2,0-.3,0-.4-.2l-1.3-1.2c-.1-.1-.2-.3-.2-.5v-4.3c0-.2,0-.4.2-.5l1.3-1.2c.1-.1.3-.2.4-.2h9.4c.2,0,.3,0,.4.2l1.3,1.2c.1.1.2.3.2.5v1.9c0,.4.3.7.7.7h5.4c.4,0,.7-.3.7-.7v-3.9c0-.2,0-.4-.2-.5l-5-4.8c-.1-.1-.3-.2-.4-.2h-15.4c-.2,0-.3,0-.4.2l-5,4.8c-.1.1-.2.3-.2.5v8.2c0,.2,0,.4.2.5l5,4.8c.1.1.3.2.4.2h12.8c.2,0,.3,0,.4.2l1.3,1.2c.1.1.2.3.2.5v5c0,.2,0,.4-.2.5l-1.3,1.2c-.1.1-.3.2-.4.2h-9.9c-.2,0-.3,0-.4-.2l-1.3-1.2c-.1-.1-.2-.3-.2-.5v-1.9c0-.4-.3-.7-.7-.7h-5.4c-.4,0-.7.3-.7.7v3.8c0,.2,0,.4.2.5l5,4.8c.1.1.3.2.4.2h15.8c.2,0,.3,0,.4-.2l5.1-4.9c.1-.1.2-.3.2-.5v-8.8c0-.2,0-.4-.2-.5ZM250.1,57.9l12.5-32.6c0-.3-.1-.5-.4-.5h0s-5.1,0-5.1,0c-.2,0-.3.1-.4.3l-9.1,23.5c0,.2-.4.2-.4,0l-8.9-23.6c0-.2-.2-.3-.4-.3h-5.1c-.3,0-.5.3-.4.6l12.2,32.3c0,.3.3.4.6.4h4.8c0,0,.2,0,.2-.1ZM224.9,46.8l-3-3.1c-.2-.3-.2-.7,0-.9l2.8-2.6c.1-.1.2-.3.2-.5v-9.5c0-.2,0-.3-.2-.5l-5-4.8c-.1-.1-.3-.2-.4-.2h-21.2c-.4,0-.7.3-.7.7v32c0,.4.3.7.7.7h5.5c.4,0,.7-.3.7-.7v-11.4c0-.4.3-.7.7-.7h10c.2,0,.4,0,.5.2l2.6,2.8c.1.1.2.3.2.4v8.7c0,.4.3.7.7.7h5.5c.4,0,.7-.3.7-.7v-10.1h0c0-.2,0-.3-.2-.5ZM218.2,38c0,.2,0,.4-.2.5l-1.4,1.3c-.1.1-.3.2-.4.2h-11.2c-.4,0-.7-.3-.7-.7v-8.5c0-.4.3-.7.7-.7h11.2c.2,0,.3,0,.4.2l1.4,1.3c.1.1.2.3.2.5v5.9Z"/>
</svg>