<?xml version="1.0" encoding="UTF-8"?>
<svg id="Layer_2" xmlns="http://www.w3.org/2000/svg" version="1.1" viewBox="0 0 381.7 112.4">
  <!-- Generator: Adobe Illustrator 29.4.0, SVG Export Plug-In . SVG Version: 2.1.0 Build 152)  -->
  <defs>
    <style>
      .st0 {
        fill: #f6eceb;
      }
    </style>
  </defs>
  <path class="st0" d="M119.6,75.6h12.8v3h-9.3v5h8v3h-8v7.1h-3.5v-17.9ZM137,75.6h13v3h-9.5v4.5h8.8v2.9h-8.8v4.6h9.5v3h-13v-17.9ZM155.2,75.6h13v3h-9.5v4.5h8.8v2.9h-8.8v4.6h9.5v3h-13v-17.9ZM173.4,75.6h11.5l3.1,3.1v11.8l-3.1,3.1h-11.5v-17.9ZM183.2,90.5l1.3-1.3v-9.4l-1.3-1.3h-6.3v12h6.3Z"/>
  <path class="st0" d="M46.3,4.1c12.5,0,22.6,4.4,29.8,13.1,7.8,9.3,12.1,23.1,12.1,38.8s-4.3,29.5-12.1,38.8c-7.2,8.7-17.3,13.1-29.8,13.1s-22.6-4.4-29.8-13.1c-7.8-9.3-12.1-23.1-12.1-38.8s4.3-29.5,12.1-38.8c7.2-8.7,17.3-13.1,29.8-13.1M46.3-.4C32.3-.4,21.1,4.5,13,14.3,4.5,24.4-.2,39.3-.2,56s4.7,31.6,13.1,41.7c8.1,9.8,19.4,14.7,33.3,14.7s25.2-4.9,33.3-14.7c8.5-10.2,13.1-25,13.1-41.7s-4.7-31.6-13.1-41.7C71.5,4.5,60.3-.4,46.3-.4h0ZM73.8,34.9l-1.6,3.3v41.7s1.6,3.5,1.6,3.5v3.4h-13l-6.3-6.3v-19.2h0c-5.1-.7-10.5-1.1-15.4.5-.2,0-.8.2-1,.3,0,0,0,0,0,0v24.6h-13c0-.2-.2-.3-.4-.5-1.8-1.7-3.6-3.5-5.4-5.3,0,0-.5-.5-.5-.5v-3.3l1.6-3.5v-41.5c-.4-1.2-1-2.3-1.6-3.4v-3.6h13c1.6,1.7,3.3,3.3,4.9,4.9.4.4.8.9,1.2,1.2,0,0,.2,0,.2.1v13.8c5.5-.9,11.2-.3,16.4,1.5v-21.6h13c1.9,2,3.9,4,5.9,5.9.1.1.2.3.4.3v3.4h0ZM56.7,49.8h0c-1.7-.5-3.4-1.2-5.1-1.7-5.8-1.5-12-1.4-17.8.3-1.4.4-2.8,1-4.2,1.4v-22.4h0c0,0-8.5,0-8.5,0v.8c0,.1,0,.2,0,.4.5,1.1,1.1,2.1,1.5,3.2v42.4c-.4,1.2-1,2.3-1.5,3.4,0,0,0,.2,0,.2h0c0,.3.3.6.6.6h8v-24c1.3-.4,2.7-.9,4-1.3,7.6-2,15.8-1.6,23.1,1.3v24h8.6v-.7c-.6-1.2-1.2-2.3-1.7-3.6V31.4s1.7-3.3,1.7-3.3v-.8h-8.6v22.5h0Z"/>
  <path class="st0" d="M119.6,23.4h6.9v14.1h15.1v-14.1h6.9v33.8h-6.9v-14h-15.1v14h-6.9V23.4ZM169.3,23.4h5.4c.3,0,.5.2.6.4l12.5,32.5c.2.4-.2.9-.6.9h-5.6c-.3,0-.5-.2-.6-.4l-2.6-6.6c-.1-.3-.3-.4-.6-.4h-11.6c-.3,0-.5.2-.6.4l-2.6,6.6c-.1.3-.3.4-.6.4h-5.6c-.5,0-.8-.5-.6-.9l12.5-32.5c.1-.3.3-.4.6-.4h0ZM175.8,44.3c.5,0,.8-.5.6-.9l-4.4-12h-.1l-4.3,12c-.2.4.2.9.6.9h7.5,0ZM224.7,46.3v10.3c0,.4-.3.7-.7.7h-5.6c-.4,0-.7-.3-.7-.7v-8.8c0-.2,0-.3-.2-.5l-2.7-2.8c-.1-.1-.3-.2-.5-.2h-10.2c-.4,0-.7.3-.7.7v11.6c0,.4-.3.7-.7.7h-5.6c-.4,0-.7-.3-.7-.7V24.1c0-.4.3-.7.7-.7h21.5c.2,0,.3,0,.5.2l5.1,4.8c.1.1.2.3.2.5v9.7c0,.2,0,.4-.2.5l-2.8,2.7c-.3.3-.3.7,0,.9l3,3.2c.1.1.2.3.2.5h0ZM204.2,38.8h11.4c.2,0,.3,0,.5-.2l1.4-1.3c.1-.1.2-.3.2-.5v-6c0-.2,0-.4-.2-.5l-1.4-1.3c-.1-.1-.3-.2-.5-.2h-11.4c-.4,0-.7.3-.7.7v8.6c0,.4.3.7.7.7h0ZM262.3,23.4h-5.2c-.2,0-.3.1-.4.3l-9.2,23.9c0,.2-.4.2-.5,0l-9-23.9c0-.2-.2-.3-.4-.3h-5.2c-.3,0-.5.3-.4.6l12.3,32.8c.1.3.3.4.6.4h4.9c.1,0,.2,0,.2-.2l12.6-33.1c0-.3-.1-.6-.4-.6h0ZM272.1,23.4h24.5c.4,0,.7.3.7.7v4.2c0,.4-.3.7-.7.7h-17.5c-.4,0-.7.3-.7.7v7.2c0,.4.3.7.7.7h16.1c.4,0,.7.3.7.7v4.1c0,.4-.3.7-.7.7h-16.1c-.4,0-.7.3-.7.7v7.4c0,.4.3.7.7.7h17.5c.4,0,.7.3.7.7v4.2c0,.4-.3.7-.7.7h-24.5c-.4,0-.7-.3-.7-.7V24.1c0-.4.3-.7.7-.7h0ZM316.9,43.2l-12-18.8c-.3-.4,0-1,.6-1h6c.2,0,.4.1.6.3l8.3,13.5h.1l8.3-13.5c.1-.2.3-.3.6-.3h6c.5,0,.8.6.6,1l-12,18.8c0,.1-.1.2-.1.4v12.9c0,.4-.3.7-.7.7h-5.6c-.4,0-.7-.3-.7-.7v-12.9c0-.1,0-.3-.1-.4h0ZM341.5,28.9v-4.8c0-.4.3-.7.7-.7h5.6c.4,0,.7.3.7.7v4.8h0c0,0-.7,6.5-.7,6.5,0,.3-.3.6-.7.6h-4.1c-.3,0-.6-.3-.7-.6l-.7-6.4h0c0,0,0,0,0,0ZM354.1,51.7v-3.9c0-.4.3-.7.7-.7h5.5c.4,0,.7.3.7.7v1.9c0,.2,0,.4.2.5l1.3,1.2c.1.1.3.2.5.2h10c.2,0,.3,0,.5-.2l1.3-1.3c.1-.1.2-.3.2-.5v-5c0-.2,0-.4-.2-.5l-1.3-1.2c-.1-.1-.3-.2-.5-.2h-13c-.2,0-.3,0-.5-.2l-5.1-4.8c-.1-.1-.2-.3-.2-.5v-8.4c0-.2,0-.4.2-.5l5.1-4.8c.1-.1.3-.2.5-.2h15.6c.2,0,.3,0,.5.2l5.1,4.8c.1.1.2.3.2.5v3.9c0,.4-.3.7-.7.7h-5.5c-.4,0-.7-.3-.7-.7v-2c0-.2,0-.4-.2-.5l-1.3-1.2c-.1-.1-.3-.2-.5-.2h-9.6c-.2,0-.3,0-.5.2l-1.3,1.2c-.1.1-.2.3-.2.5v4.4c0,.2,0,.4.2.5l1.3,1.2c.1.1.3.2.5.2h13c.2,0,.3,0,.5.2l5.1,4.8c.1.1.2.3.2.5v8.9c0,.2,0,.4-.2.5l-5.2,4.9c-.1.1-.3.2-.5.2h-16c-.2,0-.3,0-.5-.2l-5.1-4.8c-.1-.1-.2-.3-.2-.5Z"/>
</svg>