<?xml version="1.0" encoding="UTF-8"?>
<svg id="Layer_2" xmlns="http://www.w3.org/2000/svg" version="1.1" viewBox="0 0 379.9 113.4">
  <!-- Generator: Adobe Illustrator 29.4.0, SVG Export Plug-In . SVG Version: 2.1.0 Build 152)  -->
  <defs>
    <style>
      .st0 {
        fill: #d8c7a2;
      }

      .st1 {
        fill: #d8c7a2;
      }
    </style>
  </defs>
  <path class="st1" d="M118.9,25.4h6.9v14.1h15v-14.1h6.9v33.6h-6.9v-14h-15v14h-6.9V25.4ZM168.3,25.4h5.4c.3,0,.5.2.6.4l12.5,32.3c.2.4-.2.9-.6.9h-5.6c-.3,0-.5-.2-.6-.4l-2.6-6.6c-.1-.2-.3-.4-.6-.4h-11.6c-.3,0-.5.2-.6.4l-2.6,6.6c-.1.2-.3.4-.6.4h-5.6c-.5,0-.8-.5-.6-.9l12.5-32.3c.1-.2.3-.4.6-.4h0ZM174.8,46.2c.5,0,.8-.4.6-.9l-4.4-11.9h-.1l-4.3,11.9c-.2.4.2.9.6.9h7.6ZM223.5,48.1v10.2c0,.4-.3.7-.7.7h-5.6c-.4,0-.7-.3-.7-.7v-8.7c0-.2,0-.3-.2-.4l-2.7-2.8c-.1,0-.3-.2-.5-.2h-10.1c-.4,0-.7.3-.7.7v11.6c0,.4-.3.7-.7.7h-5.6c-.4,0-.7-.3-.7-.7V26c0-.4.3-.7.7-.7h21.4c.2,0,.3,0,.5.2l5,4.8c.1.1.2.3.2.5v9.6c0,.2,0,.3-.2.5l-2.8,2.7c-.3.2-.3.7,0,.9l3,3.1c.1,0,.2.3.2.4h.2ZM203.1,40.7h11.3c.2,0,.3,0,.5-.2l1.4-1.3c.1,0,.2-.3.2-.5v-6c0-.2,0-.3-.2-.5l-1.4-1.3c-.1-.1-.3-.2-.5-.2h-11.3c-.4,0-.7.3-.7.7v8.6c0,.4.3.7.7.7h0ZM260.9,25.4h-5.2c-.2,0-.3.1-.4.3l-9.2,23.8c0,.2-.4.2-.5,0l-9-23.8c0-.2-.2-.3-.4-.3h-5.2c-.3,0-.5.3-.4.6l12.3,32.7c.1.3.3.4.6.4h4.9c.1,0,.2,0,.2-.2l12.6-32.9c0-.3-.1-.5-.4-.5h0ZM270.8,25.4h24.4c.4,0,.7.3.7.7v4.2c0,.4-.3.7-.7.7h-17.5c-.4,0-.7.3-.7.7v7.2c0,.4.3.7.7.7h16c.4,0,.7.3.7.7v4.1c0,.4-.3.7-.7.7h-16c-.4,0-.7.3-.7.7v7.3c0,.4.3.7.7.7h17.5c.4,0,.7.3.7.7v4.2c0,.4-.3.7-.7.7h-24.4c-.4,0-.7-.3-.7-.7V26c0-.4.3-.7.7-.7h0ZM315.3,45.1l-11.9-18.7c-.3-.4,0-1,.6-1h6c.2,0,.4.1.6.3l8.3,13.5h.1l8.3-13.5c.1-.2.3-.3.6-.3h6c.5,0,.8.6.6,1l-11.9,18.7s-.1.2-.1.3v12.9c0,.4-.3.7-.7.7h-5.6c-.4,0-.7-.3-.7-.7v-12.9c0,0,0-.2-.1-.3h0ZM339.8,30.8v-4.8c0-.4.3-.7.7-.7h5.6c.4,0,.7.3.7.7v4.8h0l-.7,6.5c0,.3-.3.6-.7.6h-4.1c-.3,0-.6-.2-.7-.6l-.7-6.4h0ZM352.4,53.5v-3.9c0-.4.3-.7.7-.7h5.5c.4,0,.7.3.7.7v1.9c0,.2,0,.3.2.5l1.3,1.2c.1,0,.3.2.5.2h10c.2,0,.3,0,.5-.2l1.3-1.3c.1,0,.2-.3.2-.5v-5c0-.2,0-.3-.2-.5l-1.3-1.2c-.1,0-.3-.2-.5-.2h-12.9c-.2,0-.3,0-.5-.2l-5.1-4.8c-.1,0-.2-.3-.2-.5v-8.3c0-.2,0-.3.2-.5l5.1-4.8c.1-.1.3-.2.5-.2h15.5c.2,0,.3,0,.5.2l5.1,4.8c.1.1.2.3.2.5v3.9c0,.4-.3.7-.7.7h-5.5c-.4,0-.7-.3-.7-.7v-1.9c0-.2,0-.3-.2-.5l-1.3-1.2c-.1-.1-.3-.2-.5-.2h-9.5c-.2,0-.3,0-.5.2l-1.3,1.2c-.1,0-.2.3-.2.5v4.4c0,.2,0,.3.2.5l1.3,1.2c.1,0,.3.2.5.2h12.9c.2,0,.3,0,.5.2l5.1,4.8c.1,0,.2.3.2.5v8.9c0,.2,0,.3-.2.5l-5.2,4.9c-.1,0-.3.2-.5.2h-15.9c-.2,0-.3,0-.5-.2l-5.1-4.8c-.1,0-.2-.3-.2-.5ZM45.9,6.2c12.5,0,22.5,4.4,29.7,13,7.8,9.3,12,23,12,38.6s-4.3,29.3-12,38.6c-7.2,8.6-17.2,13-29.7,13s-22.5-4.4-29.7-13c-7.8-9.3-12-23-12-38.6s4.3-29.3,12-38.6c7.2-8.6,17.2-13,29.7-13M45.9,1.6c-13.9,0-25.1,4.9-33.2,14.7C4.2,26.4-.4,41.2-.4,57.8s4.6,31.4,13.1,41.5c8.1,9.7,19.3,14.7,33.2,14.7s25.1-4.9,33.2-14.7c8.4-10.1,13.1-24.9,13.1-41.5s-4.6-31.4-13.1-41.5C70.9,6.5,59.8,1.6,45.9,1.6h0ZM73.2,36.8l-1.6,3.3v41.6l1.6,3.5v3.4h-12.9l-6.3-6.3v-19.1h0c-5.1-.7-10.4-1-15.3.5-.2,0-.8.2-1,.3h0v24.5h-12.9c0-.2-.2-.3-.4-.5-1.8-1.7-3.6-3.5-5.3-5.3l-.5-.5v-3.2l1.6-3.5v-41.4c-.4-1.2-1-2.3-1.6-3.4v-3.6h12.9c1.6,1.7,3.3,3.3,4.9,4.9.4.4.8.9,1.2,1.2h.2v13.8c5.5-.8,11.1-.3,16.4,1.5v-21.5h12.9c1.9,2,3.9,3.9,5.9,5.9,0,0,.2.2.4.3v3.4h0l-.2.2ZM56.2,51.7h0c-1.7-.5-3.4-1.2-5.1-1.7-5.8-1.5-11.9-1.4-17.7.3-1.4.4-2.8,1-4.2,1.4v-22.3h-8.5v1.1c.5,1.1,1.1,2.1,1.5,3.2v42.2c-.4,1.2-1,2.3-1.5,3.4v.2h0c0,.3.3.6.6.6h8v-23.9c1.3-.4,2.7-.9,4-1.3,7.6-2,15.7-1.6,23,1.3v23.9h8.6v-.7c-.6-1.2-1.2-2.3-1.6-3.5v-42.5l1.6-3.3v-.8h-8.6v22.4h-.1ZM118.2,92.9v-2.6h3.5v1.5l.9.8h5.4l.9-.9v-3l-.9-.8h-6.9l-2.8-2.8v-4.8l2.8-2.8h8.2l2.8,2.8v2.6h-3.5v-1.5l-.9-.8h-5.1l-.9.8v2.7l.9.8h6.9l2.8,2.8v5.1l-2.9,2.8h-8.4l-2.8-2.8h0ZM137.8,77.6h13.1v3h-9.6v4.6h8.9v2.9h-8.9v4.7h9.6v3h-13.1v-18.1h0ZM156.1,77.6h13.1v3h-9.6v4.6h8.9v2.9h-8.9v4.7h9.6v3h-13.1v-18.1h0ZM174.5,77.6h11.6l3.1,3.1v11.9l-3.1,3.1h-11.6v-18.1ZM184.4,92.7l1.3-1.3v-9.5l-1.3-1.3h-6.4v12.1s6.4,0,6.4,0Z"/>
  <path class="st0" d="M119.5,25.2h6.9v14h15v-14h6.9v33.5h-6.9v-13.9h-15v13.9h-6.9V25.2ZM168.7,25.2h5.4c.3,0,.5.2.6.4l12.4,32.2c.2.4-.1.9-.6.9h-5.6c-.3,0-.5-.2-.6-.4l-2.6-6.6c0-.2-.3-.4-.6-.4h-11.5c-.3,0-.5.2-.6.4l-2.6,6.6c0,.2-.3.4-.6.4h-5.6c-.5,0-.8-.5-.6-.9l12.4-32.2c0-.2.3-.4.6-.4h0ZM175.1,45.9c.5,0,.8-.4.6-.9l-4.4-11.9h0l-4.2,11.9c-.1.4.2.9.6.9h7.5,0ZM223.6,47.8v10.2c0,.4-.3.7-.7.7h-5.6c-.4,0-.7-.3-.7-.7v-8.7c0-.2,0-.3-.2-.4l-2.7-2.8c-.1-.1-.3-.2-.5-.2h-10.1c-.4,0-.7.3-.7.7v11.5c0,.4-.3.7-.7.7h-5.6c-.4,0-.7-.3-.7-.7V25.8c0-.4.3-.7.7-.7h21.3c.2,0,.3,0,.4.2l5,4.8c.1.1.2.3.2.5v9.6c0,.2,0,.3-.2.5l-2.8,2.7c-.3.2-.3.7,0,.9l3,3.1c.1.1.2.3.2.4h0ZM203.3,40.5h11.3c.2,0,.3,0,.4-.2l1.4-1.3c.1-.1.2-.3.2-.5v-6c0-.2,0-.3-.2-.5l-1.4-1.3c-.1-.1-.3-.2-.4-.2h-11.3c-.4,0-.7.3-.7.7v8.5c0,.4.3.7.7.7h0ZM260.9,25.2h-5.2c-.2,0-.3.1-.4.3l-9.2,23.7c0,.2-.4.2-.4,0l-8.9-23.7c0-.2-.2-.3-.4-.3h-5.2c-.3,0-.5.3-.4.6l12.2,32.5c0,.3.3.4.6.4h4.8c0,0,.2,0,.2-.1l12.5-32.8c0-.3-.1-.5-.4-.5h0ZM270.7,25.2h24.3c.4,0,.7.3.7.7v4.2c0,.4-.3.7-.7.7h-17.4c-.4,0-.7.3-.7.7v7.2c0,.4.3.7.7.7h15.9c.4,0,.7.3.7.7v4.1c0,.4-.3.7-.7.7h-15.9c-.4,0-.7.3-.7.7v7.3c0,.4.3.7.7.7h17.4c.4,0,.7.3.7.7v4.2c0,.4-.3.7-.7.7h-24.3c-.4,0-.7-.3-.7-.7V25.8c0-.4.3-.7.7-.7h0ZM315,44.8l-11.9-18.6c-.3-.4,0-1,.5-1h6c.2,0,.4.1.6.3l8.3,13.4h0l8.3-13.4c.1-.2.3-.3.6-.3h6c.5,0,.8.6.5,1l-11.9,18.6c0,0,0,.2,0,.3v12.8c0,.4-.3.7-.7.7h-5.6c-.4,0-.7-.3-.7-.7v-12.8c0-.1,0-.2,0-.3h0ZM339.4,30.6v-4.8c0-.4.3-.7.7-.7h5.6c.4,0,.7.3.7.7v4.8h0c0,0-.7,6.4-.7,6.4,0,.3-.3.6-.6.6h-4.1c-.3,0-.6-.2-.6-.6l-.7-6.4h0c0,0,0,0,0,0ZM351.9,53.2v-3.9c0-.4.3-.7.7-.7h5.5c.4,0,.7.3.7.7v1.9c0,.2,0,.3.2.5l1.3,1.2c.1.1.3.2.4.2h9.9c.2,0,.3,0,.4-.2l1.3-1.3c.1-.1.2-.3.2-.5v-5c0-.2,0-.3-.2-.5l-1.3-1.2c-.1-.1-.3-.2-.4-.2h-12.9c-.2,0-.3,0-.4-.2l-5.1-4.8c-.1-.1-.2-.3-.2-.5v-8.3c0-.2,0-.3.2-.5l5.1-4.8c.1-.1.3-.2.4-.2h15.5c.2,0,.3,0,.4.2l5.1,4.8c.1.1.2.3.2.5v3.9c0,.4-.3.7-.7.7h-5.5c-.4,0-.7-.3-.7-.7v-1.9c0-.2,0-.3-.2-.5l-1.3-1.2c-.1-.1-.3-.2-.4-.2h-9.5c-.2,0-.3,0-.4.2l-1.3,1.2c-.1.1-.2.3-.2.5v4.4c0,.2,0,.3.2.5l1.3,1.2c.1.1.3.2.4.2h12.9c.2,0,.3,0,.4.2l5.1,4.8c.1.1.2.3.2.5v8.9c0,.2,0,.3-.2.5l-5.2,4.9c-.1.1-.3.2-.4.2h-15.9c-.2,0-.3,0-.4-.2l-5.1-4.8c-.1-.1-.2-.3-.2-.5ZM46.8,6.1c12.4,0,22.4,4.4,29.6,13,7.7,9.3,12,22.9,12,38.5s-4.3,29.2-12,38.5c-7.2,8.6-17.1,13-29.6,13s-22.4-4.4-29.6-13c-7.7-9.3-12-22.9-12-38.5s4.3-29.2,12-38.5c7.2-8.6,17.1-13,29.6-13M46.8,1.6c-13.8,0-25,4.9-33,14.6C5.3,26.2.7,40.9.7,57.5s4.6,31.3,13,41.3c8.1,9.7,19.2,14.6,33,14.6s25-4.9,33-14.6c8.4-10.1,13-24.7,13-41.3s-4.6-31.3-13-41.3C71.7,6.5,60.6,1.6,46.8,1.6h0ZM74,36.6l-1.6,3.2v41.4s1.6,3.5,1.6,3.5v3.4h-12.9l-6.2-6.2v-19h0c-5.1-.7-10.4-1-15.3.5-.2,0-.8.2-.9.3,0,0,0,0,0,0v24.4h-12.9c0-.2-.2-.3-.4-.5-1.8-1.7-3.6-3.5-5.3-5.3,0,0-.5-.5-.5-.5v-3.2l1.6-3.4v-41.2c-.4-1.2-1-2.3-1.6-3.4v-3.6h12.9c1.6,1.7,3.2,3.2,4.9,4.9.4.4.8.9,1.2,1.2,0,0,.2,0,.2,0v13.7c5.4-.8,11.1-.3,16.3,1.5v-21.4h12.9c1.9,2,3.9,3.9,5.9,5.9,0,0,.2.2.4.3v3.4h0ZM57.1,51.4h0c-1.7-.5-3.4-1.2-5.1-1.7-5.8-1.5-11.9-1.4-17.6.3-1.4.4-2.7,1-4.1,1.4v-22.2h0c0,0-8.4,0-8.4,0v.8c0,.1,0,.2,0,.3.5,1.1,1.1,2.1,1.5,3.2v42c-.4,1.2-1,2.3-1.5,3.4,0,0,0,.1,0,.2h0c0,.3.2.6.6.6h7.9v-23.8c1.3-.4,2.6-.9,4-1.3,7.5-2,15.6-1.6,22.9,1.3v23.7h8.5v-.7c-.5-1.2-1.2-2.3-1.6-3.5v-42.3s1.6-3.3,1.6-3.3v-.8h-8.5v22.3h0ZM118.8,92.4v-2.6h3.5v1.5l.8.8h5.4l.9-.9v-3l-.8-.8h-6.9l-2.8-2.8v-4.8l2.8-2.8h8.2l2.8,2.8v2.6h-3.5v-1.5l-.8-.8h-5.1l-.8.8v2.7l.8.8h6.9l2.8,2.8v5.1l-2.8,2.8h-8.4l-2.8-2.8h0ZM138.3,77.2h13.1v3h-9.6v4.6h8.8v2.9h-8.8v4.6h9.6v3h-13.1v-18ZM156.5,77.2h13.1v3h-9.6v4.6h8.8v2.9h-8.8v4.6h9.6v3h-13.1v-18ZM174.8,77.2h11.6l3.1,3.1v11.9l-3.1,3.1h-11.6v-18ZM184.7,92.2l1.3-1.3v-9.4l-1.3-1.3h-6.3v12.1h6.3Z"/>
</svg>