<?xml version="1.0" encoding="UTF-8"?>
<svg id="Layer_2" xmlns="http://www.w3.org/2000/svg" version="1.1" viewBox="0 0 374.9 112.4">
  <!-- Generator: Adobe Illustrator 29.4.0, SVG Export Plug-In . SVG Version: 2.1.0 Build 152)  -->
  <defs>
    <style>
      .st0 {
        fill: #1b1b1b;
      }
    </style>
  </defs>
  <path class="st0" d="M130.6,87.6v5.8h-3.4v-5.1l-1.5-1.7h-5.5v6.7h-3.4v-17.6h11.1l2.7,2.7v5.3l-1.7,1.7,1.8,2h0ZM120.2,83.8h6.1l.9-.9v-3.4l-.9-.9h-6.1v5.2h0ZM136.3,75.8h12.8v2.9h-9.3v4.5h8.6v2.8h-8.6v4.5h9.3v2.9h-12.8v-17.6ZM158.2,78.7h-5.3v-2.9h14v2.9h-5.3v14.7h-3.4v-14.7h0ZM174.1,75.8h3.1l6.5,17.6h-3.5l-1.4-3.9h-6.2l-1.4,3.9h-3.5l6.5-17.6h0ZM178,86.7l-2.4-6.7h0l-2.3,6.7h4.7ZM188.2,75.8h3.4v17.6h-3.4v-17.6ZM197.5,75.8h3.4v14.7h8.8v2.9h-12.3v-17.6Z"/>
  <path class="st0" d="M45.7,5.7c12.3,0,22.2,4.3,29.3,12.8,7.6,9.2,11.9,22.7,11.9,38.1s-4.2,28.9-11.9,38.1c-7.1,8.5-16.9,12.8-29.3,12.8s-22.2-4.3-29.3-12.8c-7.6-9.2-11.9-22.7-11.9-38.1s4.2-28.9,11.9-38.1c7.1-8.5,16.9-12.8,29.3-12.8M45.7,1.2c-13.7,0-24.7,4.9-32.7,14.4C4.6,25.6,0,40.2,0,56.6s4.6,31,12.9,40.9c8,9.6,19,14.4,32.7,14.4s24.7-4.9,32.7-14.4c8.3-10,12.9-24.5,12.9-40.9s-4.6-31-12.9-40.9C70.4,6.1,59.4,1.2,45.7,1.2h0ZM72.6,35.9l-1.6,3.2v41s1.6,3.4,1.6,3.4v3.4h-12.7l-6.2-6.2v-18.8h0c-5-.7-10.3-1-15.1.5-.2,0-.8.2-.9.3,0,0,0,0,0,0v24.1h-12.7c0-.2-.2-.3-.4-.5-1.8-1.7-3.5-3.5-5.3-5.2,0,0-.5-.5-.5-.5v-3.2l1.6-3.4v-40.8c-.4-1.2-1-2.3-1.6-3.4v-3.5h12.7c1.6,1.6,3.2,3.2,4.8,4.8.4.4.8.9,1.2,1.2,0,0,.2,0,.2,0v13.6c5.4-.8,11-.3,16.1,1.5v-21.2h12.7c1.9,2,3.9,3.9,5.8,5.8,0,0,.2.2.4.3v3.4h0ZM55.9,50.5h0c-1.7-.5-3.3-1.2-5-1.6-5.7-1.5-11.8-1.4-17.4.3-1.4.4-2.7.9-4.1,1.4v-22h0c0,0-8.4,0-8.4,0v.8c0,.1,0,.2,0,.3.5,1,1.1,2.1,1.5,3.1v41.6c-.4,1.2-1,2.3-1.5,3.4,0,0,0,.1,0,.2h0c0,.3.2.6.6.6h7.9v-23.6c1.3-.4,2.6-.9,3.9-1.2,7.5-2,15.5-1.5,22.6,1.3v23.5h8.5v-.7c-.5-1.2-1.2-2.3-1.6-3.5v-41.9s1.6-3.2,1.6-3.2v-.8h-8.5v22.1h0Z"/>
  <path class="st0" d="M117.6,24.6h6.8v13.9h14.8v-13.9h6.8v33.2h-6.8v-13.8h-14.8v13.8h-6.8V24.6ZM166.3,24.6h5.3c.3,0,.5.2.6.4l12.3,31.9c.2.4-.1.9-.6.9h-5.5c-.3,0-.5-.2-.6-.4l-2.5-6.5c0-.2-.3-.4-.6-.4h-11.4c-.3,0-.5.2-.6.4l-2.5,6.5c0,.2-.3.4-.6.4h-5.5c-.5,0-.8-.5-.6-.9l12.3-31.9c0-.2.3-.4.6-.4h0ZM172.7,45.1c.5,0,.8-.4.6-.9l-4.3-11.7h0l-4.2,11.7c-.1.4.2.9.6.9h7.4,0ZM220.7,47v10.1c0,.4-.3.7-.7.7h-5.5c-.4,0-.7-.3-.7-.7v-8.6c0-.2,0-.3-.2-.4l-2.6-2.8c-.1-.1-.3-.2-.5-.2h-10c-.4,0-.7.3-.7.7v11.4c0,.4-.3.7-.7.7h-5.5c-.4,0-.7-.3-.7-.7v-31.9c0-.4.3-.7.7-.7h21.1c.2,0,.3,0,.4.2l5,4.7c.1.1.2.3.2.5v9.5c0,.2,0,.3-.2.5l-2.7,2.6c-.3.2-.3.7,0,.9l3,3.1c.1.1.2.3.2.4h0ZM200.6,39.8h11.2c.2,0,.3,0,.4-.2l1.4-1.3c.1-.1.2-.3.2-.5v-5.9c0-.2,0-.3-.2-.5l-1.4-1.3c-.1-.1-.3-.2-.4-.2h-11.2c-.4,0-.7.3-.7.7v8.5c0,.4.3.7.7.7h0ZM257.6,24.6h-5.1c-.2,0-.3.1-.4.3l-9.1,23.5c0,.2-.4.2-.4,0l-8.8-23.5c0-.2-.2-.3-.4-.3h-5.1c-.3,0-.5.3-.4.6l12.1,32.2c0,.3.3.4.6.4h4.8c0,0,.2,0,.2-.1l12.4-32.5c0-.3-.1-.5-.4-.5h0ZM267.3,24.6h24c.4,0,.7.3.7.7v4.2c0,.4-.3.7-.7.7h-17.2c-.4,0-.7.3-.7.7v7.1c0,.4.3.7.7.7h15.8c.4,0,.7.3.7.7v4.1c0,.4-.3.7-.7.7h-15.8c-.4,0-.7.3-.7.7v7.2c0,.4.3.7.7.7h17.2c.4,0,.7.3.7.7v4.2c0,.4-.3.7-.7.7h-24c-.4,0-.7-.3-.7-.7v-31.9c0-.4.3-.7.7-.7h0ZM311.2,44.1l-11.7-18.5c-.3-.4,0-1,.5-1h5.9c.2,0,.4.1.6.3l8.2,13.3h0l8.2-13.3c.1-.2.3-.3.6-.3h5.9c.5,0,.8.6.5,1l-11.7,18.5c0,0,0,.2,0,.3v12.7c0,.4-.3.7-.7.7h-5.5c-.4,0-.7-.3-.7-.7v-12.7c0-.1,0-.2,0-.3h0ZM335.4,30v-4.7c0-.4.3-.7.7-.7h5.5c.4,0,.7.3.7.7v4.7h0c0,0-.7,6.4-.7,6.4,0,.3-.3.6-.6.6h-4c-.3,0-.6-.2-.6-.6l-.7-6.3h0c0,0,0,0,0,0ZM347.8,52.4v-3.8c0-.4.3-.7.7-.7h5.4c.4,0,.7.3.7.7v1.9c0,.2,0,.3.2.5l1.3,1.2c.1.1.3.2.4.2h9.8c.2,0,.3,0,.4-.2l1.3-1.2c.1-.1.2-.3.2-.5v-4.9c0-.2,0-.3-.2-.5l-1.3-1.2c-.1-.1-.3-.2-.4-.2h-12.8c-.2,0-.3,0-.4-.2l-5-4.7c-.1-.1-.2-.3-.2-.5v-8.2c0-.2,0-.3.2-.5l5-4.7c.1-.1.3-.2.4-.2h15.3c.2,0,.3,0,.4.2l5,4.7c.1.1.2.3.2.5v3.9c0,.4-.3.7-.7.7h-5.4c-.4,0-.7-.3-.7-.7v-1.9c0-.2,0-.3-.2-.5l-1.3-1.2c-.1-.1-.3-.2-.4-.2h-9.4c-.2,0-.3,0-.4.2l-1.3,1.2c-.1.1-.2.3-.2.5v4.3c0,.2,0,.3.2.5l1.3,1.2c.1.1.3.2.4.2h12.8c.2,0,.3,0,.4.2l5,4.7c.1.1.2.3.2.5v8.8c0,.2,0,.3-.2.5l-5.1,4.8c-.1.1-.3.2-.4.2h-15.7c-.2,0-.3,0-.4-.2l-5-4.7c-.1-.1-.2-.3-.2-.5Z"/>
</svg>