<?xml version="1.0" encoding="UTF-8"?><svg id="a" xmlns="http://www.w3.org/2000/svg" viewBox="0 0 376.6 112.4"><g id="b"><path d="M116.6,25.2h6.9v14.1h15v-14.1h6.9v33.7h-6.9v-14h-15v14h-6.9V25.2ZM165.8,25.2h5.4c.3,0,.5.2.6.4l12.4,32.3c.2.4-.1.9-.6.9h-5.6c-.3,0-.5-.2-.6-.4l-2.6-6.6c-.1-.2-.3-.4-.6-.4h-11.6c-.3,0-.5.2-.6.4l-2.6,6.6c-.1.2-.3.4-.6.4h-5.6c-.5,0-.8-.5-.6-.9l12.4-32.3c.1-.2.3-.4.6-.4h0ZM172.3,46.1c.5,0,.8-.5.6-.9l-4.4-11.9h-.1l-4.2,11.9c-.1.4.2.9.6.9h7.5,0ZM220.8,48v10.2c0,.4-.3.7-.7.7h-5.6c-.4,0-.7-.3-.7-.7v-8.8c0-.2,0-.3-.2-.5l-2.7-2.8c-.1-.1-.3-.2-.5-.2h-10.1c-.4,0-.7.3-.7.7v11.6c0,.4-.3.7-.7.7h-5.6c-.4,0-.7-.3-.7-.7V25.9c0-.4.3-.7.7-.7h21.3c.2,0,.3,0,.4.2l5,4.8c.1.1.2.3.2.5v9.6c0,.2,0,.3-.2.5l-2.8,2.7c-.3.2-.3.7,0,.9l3,3.1c.1.1.2.3.2.5h0ZM200.5,40.6h11.3c.2,0,.3,0,.4-.2l1.4-1.3c.1-.1.2-.3.2-.5v-6c0-.2,0-.3-.2-.5l-1.4-1.3c-.1-.1-.3-.2-.4-.2h-11.3c-.4,0-.7.3-.7.7v8.6c0,.4.3.7.7.7h0ZM258.1,25.2h-5.2c-.2,0-.3.1-.4.3l-9.2,23.8c0,.2-.4.2-.4,0l-8.9-23.8c0-.2-.2-.3-.4-.3h-5.2c-.3,0-.5.3-.4.6l12.2,32.7c.1.3.3.4.6.4h4.8c.1,0,.2,0,.2-.2l12.6-33c0-.3-.1-.5-.4-.5h0ZM267.9,25.2h24.3c.4,0,.7.3.7.7v4.2c0,.4-.3.7-.7.7h-17.4c-.4,0-.7.3-.7.7v7.2c0,.4.3.7.7.7h16c.4,0,.7.3.7.7v4.1c0,.4-.3.7-.7.7h-16c-.4,0-.7.3-.7.7v7.3c0,.4.3.7.7.7h17.4c.4,0,.7.3.7.7v4.2c0,.4-.3.7-.7.7h-24.3c-.4,0-.7-.3-.7-.7V25.9c0-.4.3-.7.7-.7ZM312.3,45l-11.9-18.7c-.3-.4,0-1,.5-1h6c.2,0,.4.1.6.3l8.3,13.5h.1l8.3-13.5c.1-.2.3-.3.6-.3h6c.5,0,.8.6.5,1l-11.9,18.7c0,0-.1.2-.1.3v12.9c0,.4-.3.7-.7.7h-5.6c-.4,0-.7-.3-.7-.7v-12.9c0-.1,0-.2-.1-.3h0ZM336.7,30.7v-4.8c0-.4.3-.7.7-.7h5.6c.4,0,.7.3.7.7v4.8h0c0,0-.7,6.5-.7,6.5,0,.3-.3.6-.6.6h-4.1c-.3,0-.6-.2-.6-.6l-.7-6.4h0c0,0,0,0,0,0ZM349.2,53.4v-3.9c0-.4.3-.7.7-.7h5.5c.4,0,.7.3.7.7v1.9c0,.2,0,.3.2.5l1.3,1.2c.1.1.3.2.5.2h10c.2,0,.3,0,.5-.2l1.3-1.3c.1-.1.2-.3.2-.5v-5c0-.2,0-.3-.2-.5l-1.3-1.2c-.1-.1-.3-.2-.5-.2h-12.9c-.2,0-.3,0-.5-.2l-5.1-4.8c-.1-.1-.2-.3-.2-.5v-8.3c0-.2,0-.4.2-.5l5.1-4.8c.1-.1.3-.2.5-.2h15.5c.2,0,.3,0,.5.2l5.1,4.8c.1.1.2.3.2.5v3.9c0,.4-.3.7-.7.7h-5.5c-.4,0-.7-.3-.7-.7v-2c0-.2,0-.3-.2-.5l-1.3-1.2c-.1-.1-.3-.2-.5-.2h-9.5c-.2,0-.3,0-.5.2l-1.3,1.2c-.1.1-.2.3-.2.5v4.4c0,.2,0,.3.2.5l1.3,1.2c.1.1.3.2.5.2h12.9c.2,0,.3,0,.5.2l5.1,4.8c.1.1.2.3.2.5v8.9c0,.2,0,.3-.2.5l-5.2,4.9c-.1.1-.3.2-.5.2h-15.9c-.2,0-.3,0-.5-.2l-5.1-4.8c-.1-.1-.2-.3-.2-.5ZM46.1,4.5c12.5,0,22.4,4.4,29.6,13,7.7,9.3,12,23,12,38.7s-4.3,29.4-12,38.6c-7.2,8.6-17.1,13-29.6,13s-22.4-4.4-29.6-13c-7.7-9.3-12-23-12-38.7s4.3-29.4,12-38.7c7.2-8.6,17.1-13,29.6-13M46.1,0c-13.9,0-25,4.9-33.1,14.7C4.6,24.8,0,39.5,0,56.2s4.6,31.4,13,41.5c8.1,9.7,19.2,14.7,33.1,14.7s25-4.9,33.1-14.7c8.4-10.1,13-24.9,13-41.5s-4.6-31.4-13-41.5C71.1,4.9,60,0,46.1,0h0ZM73.4,35.2l-1.6,3.3v41.6s1.6,3.5,1.6,3.5v3.4h-12.9l-6.2-6.3v-19.1h0c-5.1-.7-10.4-1-15.3.5-.2,0-.8.2-1,.3,0,0,0,0,0,0v24.5h-12.9c0-.2-.2-.3-.4-.5-1.8-1.7-3.6-3.5-5.3-5.3,0,0-.5-.5-.5-.5v-3.2l1.6-3.5v-41.4c-.4-1.2-1-2.3-1.6-3.4v-3.6h12.9c1.6,1.7,3.2,3.3,4.9,4.9.4.4.8.9,1.2,1.2,0,0,.2,0,.2.1v13.8c5.5-.8,11.1-.3,16.3,1.5v-21.5h12.9c1.9,2,3.9,4,5.9,5.9,0,.1.2.2.4.3v3.4h0ZM56.4,50.1h0c-1.7-.5-3.4-1.2-5.1-1.7-5.8-1.5-11.9-1.4-17.6.3-1.4.4-2.8,1-4.1,1.4v-22.3h0c0,0-8.4,0-8.4,0v.8c0,.1,0,.2,0,.4.5,1.1,1.1,2.1,1.5,3.2v42.2c-.4,1.2-1,2.3-1.5,3.4,0,0,0,.2,0,.2h0c0,.3.2.6.6.6h7.9v-23.9c1.3-.4,2.6-.9,4-1.3,7.5-2,15.6-1.6,22.9,1.3v23.9h8.6v-.7c-.6-1.2-1.2-2.3-1.6-3.5V31.7s1.6-3.3,1.6-3.3v-.8h-8.5v22.4h0ZM118,91.1v-12.2l3-3h9l2.9,2.9v2.8h-3.5v-1.5l-1.2-1.2h-5.3l-1.3,1.3v9.5l1.3,1.3h5.4l1.3-1.3v-2.8h-3.9v-3h7.3v7.1l-3,3h-9l-3-3h0ZM143.2,76h3.2l6.6,18.1h-3.6l-1.5-4h-6.4l-1.5,4h-3.6l6.6-18.1h0ZM147.2,87.2l-2.4-6.9h0l-2.3,6.9h4.8ZM171.7,88.1v6h-3.5v-5.2l-1.6-1.7h-5.6v6.9h-3.5v-18.1h11.4l2.8,2.8v5.5l-1.8,1.8,1.9,2.1h0ZM161,84.2h6.2l.9-.9v-3.5l-.9-.9h-6.2v5.3h0ZM177.5,76h11.6l3.1,3.1v11.9l-3.1,3.1h-11.6v-18.1ZM187.4,91.1l1.3-1.3v-9.5l-1.3-1.3h-6.3v12.1h6.3ZM197.9,76h13.1v3h-9.6v4.6h8.8v2.9h-8.8v4.7h9.6v3h-13.1v-18.1ZM216.2,76h3.2l8.1,12.3h0v-12.3h3.4v18.1h-3.2l-8.1-12.3h0v12.3h-3.4v-18.1ZM246.2,91.1v-12.2l3-3h8.9l2.9,2.9v2.8h-3.5v-1.5l-1.2-1.2h-5.2l-1.3,1.3v9.5l1.3,1.3h5.2l1.2-1.2v-1.5h3.5v2.8l-2.9,2.9h-8.9l-3-3h0ZM266,76h13.1v3h-9.6v4.6h8.8v2.9h-8.8v4.7h9.6v3h-13.1v-18.1ZM284.3,76h3.2l8.1,12.3h0v-12.3h3.4v18.1h-3.2l-8.1-12.3h0v12.3h-3.4v-18.1ZM309.1,78.9h-5.4v-3h14.4v3h-5.4v15.2h-3.5v-15.2h0ZM322.6,76h13.1v3h-9.6v4.6h8.8v2.9h-8.8v4.7h9.6v3h-13.1v-18.1ZM355.2,88.1v6h-3.5v-5.2l-1.5-1.7h-5.6v6.9h-3.5v-18.1h11.4l2.8,2.8v5.5l-1.8,1.8,1.9,2.1h0ZM344.5,84.2h6.2l.9-.9v-3.5l-.9-.9h-6.2v5.3h0Z" style="fill:#1b1b1b;"/></g></svg>