<?xml version="1.0" encoding="UTF-8"?>
<svg id="Layer_2" xmlns="http://www.w3.org/2000/svg" version="1.1" viewBox="0 0 383.6 113.4">
  <!-- Generator: Adobe Illustrator 29.4.0, SVG Export Plug-In . SVG Version: 2.1.0 Build 152)  -->
  <defs>
    <style>
      .st0 {
        fill: #d8c7a2;
      }
    </style>
  </defs>
  <path class="st0" d="M119.9,91.7v-12.1l3-3h8.9l2.9,2.9v2.8h-3.5v-1.5l-1.2-1.2h-5.2l-1.3,1.3v9.4l1.3,1.3h5.2l1.2-1.2v-1.5h3.5v2.8l-2.9,2.9h-8.9l-3-3h0ZM139.4,91.7v-12.1l3-3h9.3l3,3v12.1l-3,3h-9.3l-3-3h0ZM149.9,91.7l1.3-1.3v-9.4l-1.3-1.3h-5.6l-1.3,1.3v9.4l1.3,1.3h5.6ZM160.4,76.6h3.3l5.4,11.7h0l5.4-11.7h3.3v18h-3.4v-11h0l-4.2,8.4h-2.2l-4.1-8.4h0v11h-3.4v-18h0ZM183.7,76.6h3.3l5.4,11.7h0l5.4-11.7h3.3v18h-3.4v-11h0l-4.2,8.4h-2.2l-4.1-8.4h0v11h-3.4v-18ZM206.8,91.7v-12.1l3-3h9.3l3,3v12.1l-3,3h-9.3l-3-3ZM217.2,91.7l1.3-1.3v-9.4l-1.3-1.3h-5.6l-1.3,1.3v9.4l1.3,1.3h5.6ZM227.8,76.6h11.6l3.1,3.1v11.8l-3.1,3.1h-11.6v-18ZM237.6,91.7l1.3-1.3v-9.4l-1.3-1.3h-6.3v12.1h6.3ZM248.3,76.6h3.5v18h-3.5v-18ZM262,79.6h-5.4v-3h14.3v3h-5.4v15.1h-3.5v-15.1h0ZM275.7,76.6h3.5v18h-3.5v-18ZM285.3,76.6h13.1v3h-9.6v4.6h8.8v2.9h-8.8v4.6h9.6v3h-13.1v-18ZM303.2,91.9v-2.6h3.5v1.5l.8.8h5.4l.9-.9v-3l-.8-.8h-6.9l-2.8-2.8v-4.8l2.8-2.8h8.2l2.8,2.8v2.6h-3.5v-1.5l-.8-.8h-5.1l-.8.8v2.7l.8.8h6.9l2.8,2.8v5.1l-2.8,2.8h-8.4l-2.8-2.8h0Z"/>
  <path class="st0" d="M120.2,24.2h7v14.2h15.2v-14.2h7v33.9h-7v-14.1h-15.2v14.1h-7V24.2ZM170.1,24.2h5.4c.3,0,.5.2.6.4l12.6,32.6c.2.4-.2.9-.6.9h-5.7c-.3,0-.5-.2-.6-.4l-2.6-6.7c-.1-.3-.3-.4-.6-.4h-11.7c-.3,0-.5.2-.6.4l-2.6,6.7c-.1.3-.3.4-.6.4h-5.7c-.5,0-.8-.5-.6-.9l12.6-32.6c.1-.3.3-.4.6-.4h0ZM176.6,45.2c.5,0,.8-.5.6-.9l-4.4-12h-.1l-4.3,12c-.2.4.2.9.6.9h7.6,0ZM225.8,47.2v10.3c0,.4-.3.7-.7.7h-5.6c-.4,0-.7-.3-.7-.7v-8.8c0-.2,0-.3-.2-.5l-2.7-2.9c-.1-.1-.3-.2-.5-.2h-10.2c-.4,0-.7.3-.7.7v11.7c0,.4-.3.7-.7.7h-5.6c-.4,0-.7-.3-.7-.7V24.9c0-.4.3-.7.7-.7h21.6c.2,0,.3,0,.5.2l5.1,4.9c.1.1.2.3.2.5v9.7c0,.2,0,.4-.2.5l-2.8,2.7c-.3.3-.3.7,0,.9l3,3.2c.1.1.2.3.2.5h0ZM205.2,39.8h11.4c.2,0,.3,0,.5-.2l1.4-1.3c.1-.1.2-.3.2-.5v-6c0-.2,0-.4-.2-.5l-1.4-1.3c-.1-.1-.3-.2-.5-.2h-11.4c-.4,0-.7.3-.7.7v8.7c0,.4.3.7.7.7h0ZM263.6,24.2h-5.2c-.2,0-.3.1-.4.3l-9.3,24c0,.2-.4.2-.5,0l-9-24c0-.2-.2-.3-.4-.3h-5.2c-.3,0-.5.3-.4.6l12.4,33c.1.3.3.4.6.4h4.9c.1,0,.2,0,.2-.2l12.7-33.2c0-.3-.1-.6-.4-.6h0ZM273.5,24.2h24.6c.4,0,.7.3.7.7v4.3c0,.4-.3.7-.7.7h-17.6c-.4,0-.7.3-.7.7v7.3c0,.4.3.7.7.7h16.2c.4,0,.7.3.7.7v4.2c0,.4-.3.7-.7.7h-16.2c-.4,0-.7.3-.7.7v7.4c0,.4.3.7.7.7h17.6c.4,0,.7.3.7.7v4.3c0,.4-.3.7-.7.7h-24.6c-.4,0-.7-.3-.7-.7V24.9c0-.4.3-.7.7-.7h0ZM318.4,44.2l-12-18.9c-.3-.4,0-1,.6-1h6.1c.2,0,.4.1.6.3l8.4,13.6h.1l8.4-13.6c.1-.2.3-.3.6-.3h6.1c.5,0,.8.6.6,1l-12,18.9c0,.1-.1.2-.1.4v13c0,.4-.3.7-.7.7h-5.6c-.4,0-.7-.3-.7-.7v-13c0-.1,0-.3-.1-.4h0ZM343.2,29.7v-4.8c0-.4.3-.7.7-.7h5.6c.4,0,.7.3.7.7v4.8h0c0,0-.7,6.5-.7,6.5,0,.3-.3.6-.7.6h-4.1c-.3,0-.6-.3-.7-.6l-.7-6.5h0c0,0,0,0,0,0ZM355.8,52.7v-3.9c0-.4.3-.7.7-.7h5.5c.4,0,.7.3.7.7v1.9c0,.2,0,.4.2.5l1.3,1.2c.1.1.3.2.5.2h10.1c.2,0,.3,0,.5-.2l1.3-1.3c.1-.1.2-.3.2-.5v-5.1c0-.2,0-.4-.2-.5l-1.3-1.2c-.1-.1-.3-.2-.5-.2h-13.1c-.2,0-.3,0-.5-.2l-5.1-4.9c-.1-.1-.2-.3-.2-.5v-8.4c0-.2,0-.4.2-.5l5.1-4.9c.1-.1.3-.2.5-.2h15.7c.2,0,.3,0,.5.2l5.1,4.9c.1.1.2.3.2.5v4c0,.4-.3.7-.7.7h-5.5c-.4,0-.7-.3-.7-.7v-2c0-.2,0-.4-.2-.5l-1.3-1.2c-.1-.1-.3-.2-.5-.2h-9.6c-.2,0-.3,0-.5.2l-1.3,1.2c-.1.1-.2.3-.2.5v4.4c0,.2,0,.4.2.5l1.3,1.2c.1.1.3.2.5.2h13.1c.2,0,.3,0,.5.2l5.1,4.9c.1.1.2.3.2.5v9c0,.2,0,.4-.2.5l-5.2,5c-.1.1-.3.2-.5.2h-16.1c-.2,0-.3,0-.5-.2l-5.1-4.9c-.1-.1-.2-.3-.2-.5Z"/>
  <path class="st0" d="M46.5,4.9c12.6,0,22.7,4.4,30,13.1,7.8,9.4,12.1,23.2,12.1,39s-4.3,29.6-12.1,39c-7.3,8.7-17.4,13.1-30,13.1s-22.7-4.4-30-13.1c-7.8-9.4-12.1-23.2-12.1-39s4.3-29.6,12.1-39c7.3-8.7,17.4-13.1,30-13.1M46.5.3C32.5.3,21.2,5.3,13,15.1,4.5,25.3-.2,40.2-.2,57s4.7,31.7,13.2,41.9c8.2,9.8,19.5,14.8,33.5,14.8s25.3-5,33.5-14.8c8.5-10.2,13.2-25.1,13.2-41.9s-4.7-31.7-13.2-41.9C71.8,5.3,60.6.3,46.5.3h0ZM74.1,35.8l-1.6,3.3v41.9s1.6,3.5,1.6,3.5v3.4h-13l-6.3-6.3v-19.3h0c-5.2-.7-10.5-1.1-15.5.5-.2,0-.8.2-1,.3,0,0,0,0,0,0v24.7h-13c0-.2-.2-.3-.4-.5-1.8-1.8-3.6-3.6-5.4-5.4,0,0-.5-.5-.5-.5v-3.3l1.6-3.5v-41.7c-.4-1.2-1.1-2.3-1.6-3.5v-3.6h13c1.6,1.7,3.3,3.3,4.9,4.9.4.4.8.9,1.2,1.3,0,0,.2,0,.2.1v13.9c5.5-.9,11.2-.3,16.5,1.5v-21.7h13c2,2,4,4,6,6,.1.1.2.3.4.3v3.5h0ZM57,50.8h0c-1.7-.5-3.4-1.2-5.2-1.7-5.9-1.6-12-1.5-17.8.3-1.4.4-2.8,1-4.2,1.4v-22.5h0c0,0-8.6,0-8.6,0v.8c0,.1,0,.2,0,.4.5,1.1,1.1,2.1,1.5,3.2v42.6c-.4,1.2-1,2.3-1.5,3.5,0,0,0,.2,0,.2h0c0,.3.3.6.6.6h8v-24.1c1.3-.4,2.7-.9,4-1.3,7.6-2,15.8-1.6,23.2,1.3v24.1h8.7v-.7c-.6-1.2-1.2-2.4-1.7-3.6v-42.9s1.7-3.3,1.7-3.3v-.8h-8.7v22.6h0Z"/>
</svg>