<?xml version="1.0" encoding="UTF-8"?>
<svg id="Layer_2" data-name="Layer 2" xmlns="http://www.w3.org/2000/svg" viewBox="0 0 331.9 42.96">
  <defs>
    <style>
      .cls-1 {
        fill: #2a3c1a;
      }
    </style>
  </defs>
  <g id="Layer_1-2" data-name="Layer 1">
    <g>
      <path class="cls-1" d="M0,0h8.79v17.98h19.12V0h8.79v42.96h-8.79v-17.86H8.79v17.86H0V0Z"/>
      <path class="cls-1" d="M62.84,0h6.86c.35,0,.66.21.78.54l15.89,41.28c.21.55-.19,1.14-.78,1.14h-7.12c-.35,0-.66-.21-.78-.53l-3.27-8.44c-.12-.32-.43-.53-.78-.53h-14.74c-.35,0-.66.21-.78.53l-3.27,8.44c-.12.32-.43.53-.78.53h-7.12c-.59,0-.99-.59-.78-1.14L62.06.54c.12-.32.43-.54.78-.54ZM71.08,26.57c.58,0,.99-.58.79-1.13l-5.59-15.2h-.13l-5.42,15.21c-.19.54.21,1.12.79,1.12h9.57Z"/>
      <path class="cls-1" d="M132.99,29.06v13.06c0,.46-.37.84-.84.84h-7.11c-.46,0-.84-.37-.84-.84v-11.17c0-.21-.08-.42-.23-.57l-3.4-3.61c-.16-.17-.38-.26-.61-.26h-12.88c-.46,0-.84.37-.84.84v14.77c0,.46-.37.84-.84.84h-7.11c-.46,0-.84-.37-.84-.84V.84c0-.46.37-.84.84-.84h27.19c.22,0,.42.08.58.23l6.41,6.15c.16.16.26.38.26.6v12.3c0,.23-.09.44-.26.6l-3.54,3.41c-.33.32-.34.85-.02,1.18l3.84,4c.15.16.23.36.23.58ZM107.08,19.64h14.4c.21,0,.42-.08.58-.23l1.76-1.67c.17-.16.26-.38.26-.61v-7.63c0-.23-.09-.45-.26-.61l-1.76-1.67c-.16-.15-.36-.23-.58-.23h-14.4c-.46,0-.84.37-.84.84v10.97c0,.46.37.84.84.84Z"/>
      <path class="cls-1" d="M180.63,0h-6.61c-.23,0-.43.14-.5.36l-11.7,30.38c-.1.26-.47.26-.57,0L149.84.34C149.77.14,149.57,0,149.35,0h-6.6c-.37,0-.63.37-.5.72l15.61,41.7c.12.33.43.54.78.54h6.17c.13,0,.24-.08.29-.2L181.13.7C181.25.36,180.99,0,180.63,0Z"/>
      <path class="cls-1" d="M193.12,0h31.01c.46,0,.84.37.84.84v5.38c0,.46-.37.84-.84.84h-22.23c-.46,0-.84.37-.84.84v9.19c0,.46.37.84.84.84h20.35c.46,0,.84.37.84.84v5.26c0,.46-.37.84-.84.84h-20.35c-.46,0-.84.37-.84.84v9.37c0,.46.37.84.84.84h22.23c.46,0,.84.37.84.84v5.38c0,.46-.37.84-.84.84h-31.01c-.46,0-.84-.37-.84-.84V.84c0-.46.37-.84.84-.84Z"/>
      <path class="cls-1" d="M249.75,25.2l-15.14-23.92c-.35-.56.05-1.28.71-1.28h7.64c.29,0,.56.15.71.4l10.54,17.21h.13L264.88.4c.15-.25.42-.4.71-.4h7.64c.66,0,1.06.73.71,1.28l-15.14,23.92c-.08.13-.13.29-.13.45v16.47c0,.46-.37.84-.84.84h-7.11c-.46,0-.84-.37-.84-.84v-16.47c0-.16-.05-.31-.13-.45Z"/>
      <path class="cls-1" d="M280.9,6.95V.84c0-.46.37-.84.84-.84h7.11c.46,0,.84.37.84.84v6.11s0,.06,0,.1l-.94,8.17c-.05.42-.41.74-.83.74h-5.23c-.43,0-.78-.32-.83-.74l-.94-8.17s0-.06,0-.1Z"/>
      <path class="cls-1" d="M296.88,35.97v-4.94c0-.46.37-.84.84-.84h6.98c.46,0,.84.37.84.84v2.42c0,.23.09.45.26.61l1.63,1.55c.16.15.36.23.58.23h12.7c.21,0,.42-.08.58-.23l1.69-1.61c.17-.16.26-.38.26-.61v-6.4c0-.23-.09-.45-.26-.61l-1.63-1.55c-.16-.15-.36-.23-.58-.23h-16.45c-.21,0-.42-.08-.58-.23l-6.47-6.15c-.17-.16-.26-.38-.26-.61V6.99c0-.23.09-.45.26-.61l6.47-6.15c.16-.15.36-.23.58-.23h19.75c.21,0,.42.08.58.23l6.47,6.15c.17.16.26.38.26.61v5c0,.46-.37.84-.84.84h-6.98c-.46,0-.84-.37-.84-.84v-2.49c0-.23-.09-.45-.26-.61l-1.63-1.55c-.16-.15-.36-.23-.58-.23h-12.12c-.21,0-.42.08-.58.23l-1.63,1.55c-.17.16-.26.38-.26.61v5.6c0,.23.09.45.26.61l1.63,1.55c.16.15.36.23.58.23h16.45c.21,0,.42.08.58.23l6.47,6.15c.17.16.26.38.26.61v11.37c0,.23-.09.45-.26.61l-6.6,6.27c-.16.15-.36.23-.58.23h-20.26c-.21,0-.42-.08-.58-.23l-6.47-6.15c-.17-.16-.26-.38-.26-.61Z"/>
    </g>
  </g>
</svg>